SplineFontDB: 3.2
FontName: unscii-8
FullName: unscii-8
FamilyName: unscii
Weight: Thin
Copyright: 
Version: 1.0
ItalicAngle: 0
UnderlinePosition: 0
UnderlineWidth: 0
Ascent: 32
Descent: 0
InvalidEm: 0
sfntRevision: 0x00010000
LayerCount: 2
Layer: 0 1 "Back" 1
Layer: 1 1 "Fore" 0
XUID: [1021 175 -2146470783 524930]
StyleMap: 0x0000
FSType: 8
OS2Version: 1
OS2_WeightWidthSlopeOnly: 0
OS2_UseTypoMetrics: 0
CreationTime: 1603976292
ModificationTime: 1603978731
PfmFamily: 17
TTFWeight: 0
TTFWidth: 5
LineGap: 3
VLineGap: 0
Panose: 2 0 2 3 0 0 0 0 0 0
OS2TypoAscent: 26
OS2TypoAOffset: 0
OS2TypoDescent: -6
OS2TypoDOffset: 0
OS2TypoLinegap: 3
OS2WinAscent: 26
OS2WinAOffset: 0
OS2WinDescent: 0
OS2WinDOffset: 0
HheadAscent: 26
HheadAOffset: 0
HheadDescent: 0
HheadDOffset: 0
OS2SubXSize: 20
OS2SubYSize: 22
OS2SubXOff: 0
OS2SubYOff: 4
OS2SupXSize: 20
OS2SupYSize: 22
OS2SupXOff: 0
OS2SupYOff: 15
OS2StrikeYSize: 2
OS2StrikeYPos: 8
OS2Vendor: 'PfEd'
OS2CodePages: 400000ff.ffff0000
OS2UnicodeRanges: e0002aff.1200f8fb.0004a018.00002008
MarkAttachClasses: 1
DEI: 91125
ShortTable: cvt  2
  2
  40
EndShort
ShortTable: maxp 16
  1
  0
  3163
  128
  21
  0
  0
  2
  0
  1
  1
  0
  64
  46
  0
  0
EndShort
LangName: 1033 "" "" "" "FontForge 2.0 : unscii-8 : 29-10-2020" "" "Version 1.0"
GaspTable: 1 65535 2 0
Encoding: UnicodeFull
UnicodeInterp: none
NameList: AGL For New Fonts
DisplaySize: -48
AntiAlias: 1
FitToEm: 0
WinInfo: 50 25 11
BeginPrivate: 0
EndPrivate
BeginChars: 1114116 3163

StartChar: .notdef
Encoding: 1114112 -1 0
Width: 16
Flags: W
LayerCount: 2
Fore
SplineSet
1 0 m 1,0,-1
 1 21 l 1,1,-1
 9 21 l 1,2,-1
 9 0 l 1,3,-1
 1 0 l 1,0,-1
2 1 m 1,4,-1
 8 1 l 1,5,-1
 8 20 l 1,6,-1
 2 20 l 1,7,-1
 2 1 l 1,4,-1
EndSplineSet
EndChar

StartChar: space
Encoding: 32 32 3
Width: 16
Flags: W
LayerCount: 2
Fore
SplineSet
0 26 m 1024,0,-1
EndSplineSet
EndChar

StartChar: exclam
Encoding: 33 33 4
Width: 16
Flags: W
LayerCount: 2
Fore
SplineSet
6 14 m 1,0,-1
 10 14 l 1,1,-1
 10 12 l 1,2,-1
 6 12 l 1,3,-1
 6 14 l 1,0,-1
6 26 m 1,4,-1
 10 26 l 1,5,-1
 10 16 l 1,6,-1
 6 16 l 1,7,-1
 6 26 l 1,4,-1
EndSplineSet
EndChar

StartChar: quotedbl
Encoding: 34 34 5
Width: 16
Flags: W
LayerCount: 2
Fore
SplineSet
10 26 m 1,0,-1
 14 26 l 1,1,-1
 14 20 l 1,2,-1
 10 20 l 1,3,-1
 10 26 l 1,0,-1
2 26 m 1,4,-1
 6 26 l 1,5,-1
 6 20 l 1,6,-1
 2 20 l 1,7,-1
 2 26 l 1,4,-1
EndSplineSet
EndChar

StartChar: numbersign
Encoding: 35 35 6
Width: 16
Flags: W
LayerCount: 2
Fore
SplineSet
8 26 m 1,0,-1
 12 26 l 1,1,-1
 12 22 l 1,2,-1
 14 22 l 1,3,-1
 14 20 l 1,4,-1
 12 20 l 1,5,-1
 12 18 l 1,6,-1
 14 18 l 1,7,-1
 14 16 l 1,8,-1
 12 16 l 1,9,-1
 12 12 l 1,10,-1
 8 12 l 1,11,-1
 8 16 l 1,12,-1
 6 16 l 1,13,-1
 6 12 l 1,14,-1
 2 12 l 1,15,-1
 2 16 l 1,16,-1
 0 16 l 1,17,-1
 0 18 l 1,18,-1
 2 18 l 1,19,-1
 2 20 l 1,20,-1
 0 20 l 1,21,-1
 0 22 l 1,22,-1
 2 22 l 1,23,-1
 2 26 l 1,24,-1
 6 26 l 1,25,-1
 6 22 l 1,26,-1
 8 22 l 1,27,-1
 8 26 l 1,0,-1
8 18 m 1,28,-1
 8 20 l 1,29,-1
 6 20 l 1,30,-1
 6 18 l 1,31,-1
 8 18 l 1,28,-1
EndSplineSet
EndChar

StartChar: dollar
Encoding: 36 36 7
Width: 16
Flags: W
LayerCount: 2
Fore
SplineSet
6 26 m 1,0,-1
 10 26 l 1,1,-1
 10 24 l 1,2,-1
 14 24 l 1,3,-1
 14 22 l 1,4,-1
 6 22 l 1,5,-1
 6 20 l 1,6,-1
 12 20 l 1,7,-1
 12 18 l 1,8,-1
 14 18 l 1,9,-1
 14 16 l 1,10,-1
 12 16 l 1,11,-1
 12 14 l 1,12,-1
 10 14 l 1,13,-1
 10 12 l 1,14,-1
 6 12 l 1,15,-1
 6 14 l 1,16,-1
 2 14 l 1,17,-1
 2 16 l 1,18,-1
 10 16 l 1,19,-1
 10 18 l 1,20,-1
 4 18 l 1,21,-1
 4 20 l 1,22,-1
 2 20 l 1,23,-1
 2 22 l 1,24,-1
 4 22 l 1,25,-1
 4 24 l 1,26,-1
 6 24 l 1,27,-1
 6 26 l 1,0,-1
EndSplineSet
EndChar

StartChar: percent
Encoding: 37 37 8
Width: 16
Flags: W
LayerCount: 2
Fore
SplineSet
10 16 m 1,0,-1
 14 16 l 1,1,-1
 14 14 l 1,2,-1
 14 12 l 1,3,-1
 10 12 l 1,4,-1
 10 14 l 1,5,-1
 10 16 l 1,0,-1
10 24 m 1,6,-1
 14 24 l 1,7,-1
 14 22 l 1,8,-1
 12 22 l 1,9,-1
 12 20 l 1,10,-1
 10 20 l 1,11,-1
 10 18 l 1,12,-1
 8 18 l 1,13,-1
 8 16 l 1,14,-1
 6 16 l 1,15,-1
 6 14 l 1,16,-1
 4 14 l 1,17,-1
 4 12 l 1,18,-1
 0 12 l 1,19,-1
 0 14 l 1,20,-1
 2 14 l 1,21,-1
 2 16 l 1,22,-1
 4 16 l 1,23,-1
 4 18 l 1,24,-1
 6 18 l 1,25,-1
 6 20 l 1,26,-1
 8 20 l 1,27,-1
 8 22 l 1,28,-1
 10 22 l 1,29,-1
 10 24 l 1,6,-1
0 24 m 1,30,-1
 4 24 l 1,31,-1
 4 20 l 1,32,-1
 0 20 l 1,33,-1
 0 24 l 1,30,-1
EndSplineSet
EndChar

StartChar: ampersand
Encoding: 38 38 9
Width: 16
Flags: W
LayerCount: 2
Fore
SplineSet
4 26 m 1,0,-1
 10 26 l 1,1,-1
 10 24 l 1,2,-1
 12 24 l 1,3,-1
 12 22 l 1,4,-1
 10 22 l 1,5,-1
 10 20 l 1,6,-1
 14 20 l 1,7,-1
 14 18 l 1,8,-1
 12 18 l 1,9,-1
 12 14 l 1,10,-1
 14 14 l 1,11,-1
 14 12 l 1,12,-1
 10 12 l 1,13,-1
 10 14 l 1,14,-1
 8 14 l 1,15,-1
 8 16 l 1,16,-1
 6 16 l 1,17,-1
 6 18 l 1,18,-1
 4 18 l 1,19,-1
 4 14 l 1,20,-1
 8 14 l 1,21,-1
 8 12 l 1,22,-1
 2 12 l 1,23,-1
 2 14 l 1,24,-1
 0 14 l 1,25,-1
 0 18 l 1,26,-1
 2 18 l 1,27,-1
 2 20 l 1,28,-1
 4 20 l 1,29,-1
 4 22 l 1,30,-1
 2 22 l 1,31,-1
 2 24 l 1,32,-1
 4 24 l 1,33,-1
 4 26 l 1,0,-1
10 18 m 1,34,-1
 10 20 l 1,35,-1
 8 20 l 1,36,-1
 8 18 l 1,37,-1
 10 18 l 1,34,-1
8 22 m 1,38,-1
 8 24 l 1,39,-1
 6 24 l 1,40,-1
 6 22 l 1,41,-1
 8 22 l 1,38,-1
EndSplineSet
EndChar

StartChar: quotesingle
Encoding: 39 39 10
Width: 16
Flags: W
LayerCount: 2
Fore
SplineSet
6 26 m 1,0,-1
 10 26 l 1,1,-1
 10 22 l 1,2,-1
 8 22 l 1,3,-1
 8 20 l 1,4,-1
 4 20 l 1,5,-1
 4 22 l 1,6,-1
 6 22 l 1,7,-1
 6 26 l 1,0,-1
EndSplineSet
EndChar

StartChar: parenleft
Encoding: 40 40 11
Width: 16
Flags: W
LayerCount: 2
Fore
SplineSet
8 26 m 1,0,-1
 12 26 l 1,1,-1
 12 24 l 1,2,-1
 10 24 l 1,3,-1
 10 22 l 1,4,-1
 8 22 l 1,5,-1
 8 16 l 1,6,-1
 10 16 l 1,7,-1
 10 14 l 1,8,-1
 12 14 l 1,9,-1
 12 12 l 1,10,-1
 8 12 l 1,11,-1
 8 14 l 1,12,-1
 6 14 l 1,13,-1
 6 16 l 1,14,-1
 4 16 l 1,15,-1
 4 22 l 1,16,-1
 6 22 l 1,17,-1
 6 24 l 1,18,-1
 8 24 l 1,19,-1
 8 26 l 1,0,-1
EndSplineSet
EndChar

StartChar: parenright
Encoding: 41 41 12
Width: 16
Flags: W
LayerCount: 2
Fore
SplineSet
4 26 m 1,0,-1
 8 26 l 1,1,-1
 8 24 l 1,2,-1
 10 24 l 1,3,-1
 10 22 l 1,4,-1
 12 22 l 1,5,-1
 12 16 l 1,6,-1
 10 16 l 1,7,-1
 10 14 l 1,8,-1
 8 14 l 1,9,-1
 8 12 l 1,10,-1
 4 12 l 1,11,-1
 4 14 l 1,12,-1
 6 14 l 1,13,-1
 6 16 l 1,14,-1
 8 16 l 1,15,-1
 8 22 l 1,16,-1
 6 22 l 1,17,-1
 6 24 l 1,18,-1
 4 24 l 1,19,-1
 4 26 l 1,0,-1
EndSplineSet
EndChar

StartChar: asterisk
Encoding: 42 42 13
Width: 16
Flags: W
LayerCount: 2
Fore
SplineSet
10 24 m 1,0,-1
 14 24 l 1,1,-1
 14 22 l 1,2,-1
 12 22 l 1,3,-1
 12 20 l 1,4,-1
 16 20 l 1,5,-1
 16 18 l 1,6,-1
 12 18 l 1,7,-1
 12 16 l 1,8,-1
 14 16 l 1,9,-1
 14 14 l 1,10,-1
 10 14 l 1,11,-1
 10 16 l 1,12,-1
 6 16 l 1,13,-1
 6 14 l 1,14,-1
 2 14 l 1,15,-1
 2 16 l 1,16,-1
 4 16 l 1,17,-1
 4 18 l 1,18,-1
 0 18 l 1,19,-1
 0 20 l 1,20,-1
 4 20 l 1,21,-1
 4 22 l 1,22,-1
 2 22 l 1,23,-1
 2 24 l 1,24,-1
 6 24 l 1,25,-1
 6 22 l 1,26,-1
 10 22 l 1,27,-1
 10 24 l 1,0,-1
EndSplineSet
EndChar

StartChar: plus
Encoding: 43 43 14
Width: 16
Flags: W
LayerCount: 2
Fore
SplineSet
6 24 m 1,0,-1
 10 24 l 1,1,-1
 10 20 l 1,2,-1
 14 20 l 1,3,-1
 14 18 l 1,4,-1
 10 18 l 1,5,-1
 10 14 l 1,6,-1
 6 14 l 1,7,-1
 6 18 l 1,8,-1
 2 18 l 1,9,-1
 2 20 l 1,10,-1
 6 20 l 1,11,-1
 6 24 l 1,0,-1
EndSplineSet
EndChar

StartChar: comma
Encoding: 44 44 15
Width: 16
Flags: W
LayerCount: 2
Fore
SplineSet
6 16 m 1,0,-1
 10 16 l 1,1,-1
 10 12 l 1,2,-1
 8 12 l 1,3,-1
 8 10 l 1,4,-1
 4 10 l 1,5,-1
 4 12 l 1,6,-1
 6 12 l 1,7,-1
 6 16 l 1,0,-1
EndSplineSet
EndChar

StartChar: hyphen
Encoding: 45 45 16
Width: 16
Flags: W
LayerCount: 2
Fore
SplineSet
2 20 m 1,0,-1
 14 20 l 1,1,-1
 14 18 l 1,2,-1
 2 18 l 1,3,-1
 2 20 l 1,0,-1
EndSplineSet
EndChar

StartChar: period
Encoding: 46 46 17
Width: 16
Flags: W
LayerCount: 2
Fore
SplineSet
6 16 m 1,0,-1
 10 16 l 1,1,-1
 10 12 l 1,2,-1
 6 12 l 1,3,-1
 6 16 l 1,0,-1
EndSplineSet
EndChar

StartChar: slash
Encoding: 47 47 18
Width: 16
Flags: W
LayerCount: 2
Fore
SplineSet
12 26 m 1,0,-1
 16 26 l 1,1,-1
 16 24 l 1,2,-1
 14 24 l 1,3,-1
 14 22 l 1,4,-1
 12 22 l 1,5,-1
 12 20 l 1,6,-1
 10 20 l 1,7,-1
 10 18 l 1,8,-1
 8 18 l 1,9,-1
 8 16 l 1,10,-1
 6 16 l 1,11,-1
 6 14 l 1,12,-1
 4 14 l 1,13,-1
 4 12 l 1,14,-1
 0 12 l 1,15,-1
 0 14 l 1,16,-1
 2 14 l 1,17,-1
 2 16 l 1,18,-1
 4 16 l 1,19,-1
 4 18 l 1,20,-1
 6 18 l 1,21,-1
 6 20 l 1,22,-1
 8 20 l 1,23,-1
 8 22 l 1,24,-1
 10 22 l 1,25,-1
 10 24 l 1,26,-1
 12 24 l 1,27,-1
 12 26 l 1,0,-1
EndSplineSet
EndChar

StartChar: zero
Encoding: 48 48 19
Width: 16
Flags: W
LayerCount: 2
Fore
SplineSet
4 26 m 1,0,-1
 12 26 l 1,1,-1
 12 24 l 1,2,-1
 14 24 l 1,3,-1
 14 18 l 1,4,-1
 14 14 l 1,5,-1
 12 14 l 1,6,-1
 12 12 l 1,7,-1
 4 12 l 1,8,-1
 4 14 l 1,9,-1
 2 14 l 1,10,-1
 2 18 l 1,11,-1
 2 24 l 1,12,-1
 4 24 l 1,13,-1
 4 26 l 1,0,-1
10 14 m 1,14,-1
 10 18 l 1,15,-1
 10 20 l 1,16,-1
 8 20 l 1,17,-1
 8 22 l 1,18,-1
 10 22 l 1,19,-1
 10 24 l 1,20,-1
 6 24 l 1,21,-1
 6 20 l 1,22,-1
 8 20 l 1,23,-1
 8 18 l 1,24,-1
 6 18 l 1,25,-1
 6 14 l 1,26,-1
 10 14 l 1,14,-1
EndSplineSet
EndChar

StartChar: one
Encoding: 49 49 20
Width: 16
Flags: W
LayerCount: 2
Fore
SplineSet
6 26 m 1,0,-1
 10 26 l 1,1,-1
 10 14 l 1,2,-1
 14 14 l 1,3,-1
 14 12 l 1,4,-1
 2 12 l 1,5,-1
 2 14 l 1,6,-1
 6 14 l 1,7,-1
 6 22 l 1,8,-1
 4 22 l 1,9,-1
 4 24 l 1,10,-1
 6 24 l 1,11,-1
 6 26 l 1,0,-1
EndSplineSet
EndChar

StartChar: two
Encoding: 50 50 21
Width: 16
Flags: W
LayerCount: 2
Fore
SplineSet
4 26 m 1,0,-1
 12 26 l 1,1,-1
 12 24 l 1,2,-1
 14 24 l 1,3,-1
 14 22 l 1,4,-1
 12 22 l 1,5,-1
 12 20 l 1,6,-1
 10 20 l 1,7,-1
 10 18 l 1,8,-1
 8 18 l 1,9,-1
 8 16 l 1,10,-1
 6 16 l 1,11,-1
 6 14 l 1,12,-1
 14 14 l 1,13,-1
 14 12 l 1,14,-1
 2 12 l 1,15,-1
 2 16 l 1,16,-1
 4 16 l 1,17,-1
 4 18 l 1,18,-1
 6 18 l 1,19,-1
 6 20 l 1,20,-1
 8 20 l 1,21,-1
 8 22 l 1,22,-1
 10 22 l 1,23,-1
 10 24 l 1,24,-1
 6 24 l 1,25,-1
 6 22 l 1,26,-1
 2 22 l 1,27,-1
 2 24 l 1,28,-1
 4 24 l 1,29,-1
 4 26 l 1,0,-1
EndSplineSet
EndChar

StartChar: three
Encoding: 51 51 22
Width: 16
Flags: W
LayerCount: 2
Fore
SplineSet
2 16 m 1,0,-1
 6 16 l 1,1,-1
 6 14 l 1,2,-1
 10 14 l 1,3,-1
 10 16 l 1,4,-1
 10 18 l 1,5,-1
 6 18 l 1,6,-1
 6 20 l 1,7,-1
 10 20 l 1,8,-1
 10 24 l 1,9,-1
 6 24 l 1,10,-1
 6 22 l 1,11,-1
 2 22 l 1,12,-1
 2 24 l 1,13,-1
 4 24 l 1,14,-1
 4 26 l 1,15,-1
 12 26 l 1,16,-1
 12 24 l 1,17,-1
 14 24 l 1,18,-1
 14 20 l 1,19,-1
 12 20 l 1,20,-1
 12 18 l 1,21,-1
 14 18 l 1,22,-1
 14 16 l 1,23,-1
 14 14 l 1,24,-1
 12 14 l 1,25,-1
 12 12 l 1,26,-1
 4 12 l 1,27,-1
 4 14 l 1,28,-1
 2 14 l 1,29,-1
 2 16 l 1,0,-1
EndSplineSet
EndChar

StartChar: four
Encoding: 52 52 23
Width: 16
Flags: W
LayerCount: 2
Fore
SplineSet
6 26 m 1,0,-1
 12 26 l 1,1,-1
 12 22 l 1,2,-1
 12 20 l 1,3,-1
 12 18 l 1,4,-1
 14 18 l 1,5,-1
 14 16 l 1,6,-1
 12 16 l 1,7,-1
 12 12 l 1,8,-1
 8 12 l 1,9,-1
 8 16 l 1,10,-1
 0 16 l 1,11,-1
 0 20 l 1,12,-1
 2 20 l 1,13,-1
 2 22 l 1,14,-1
 4 22 l 1,15,-1
 4 24 l 1,16,-1
 6 24 l 1,17,-1
 6 26 l 1,0,-1
8 18 m 1,18,-1
 8 20 l 1,19,-1
 8 22 l 1,20,-1
 6 22 l 1,21,-1
 6 20 l 1,22,-1
 4 20 l 1,23,-1
 4 18 l 1,24,-1
 8 18 l 1,18,-1
EndSplineSet
EndChar

StartChar: five
Encoding: 53 53 24
Width: 16
Flags: W
LayerCount: 2
Fore
SplineSet
2 16 m 1,0,-1
 6 16 l 1,1,-1
 6 14 l 1,2,-1
 10 14 l 1,3,-1
 10 16 l 1,4,-1
 10 20 l 1,5,-1
 2 20 l 1,6,-1
 2 24 l 1,7,-1
 2 26 l 1,8,-1
 14 26 l 1,9,-1
 14 24 l 1,10,-1
 6 24 l 1,11,-1
 6 22 l 1,12,-1
 12 22 l 1,13,-1
 12 20 l 1,14,-1
 14 20 l 1,15,-1
 14 16 l 1,16,-1
 14 14 l 1,17,-1
 12 14 l 1,18,-1
 12 12 l 1,19,-1
 4 12 l 1,20,-1
 4 14 l 1,21,-1
 2 14 l 1,22,-1
 2 16 l 1,0,-1
EndSplineSet
EndChar

StartChar: six
Encoding: 54 54 25
Width: 16
Flags: W
LayerCount: 2
Fore
SplineSet
6 26 m 1,0,-1
 12 26 l 1,1,-1
 12 24 l 1,2,-1
 8 24 l 1,3,-1
 8 22 l 1,4,-1
 6 22 l 1,5,-1
 6 20 l 1,6,-1
 12 20 l 1,7,-1
 12 18 l 1,8,-1
 14 18 l 1,9,-1
 14 14 l 1,10,-1
 12 14 l 1,11,-1
 12 12 l 1,12,-1
 4 12 l 1,13,-1
 4 14 l 1,14,-1
 2 14 l 1,15,-1
 2 18 l 1,16,-1
 2 22 l 1,17,-1
 4 22 l 1,18,-1
 4 24 l 1,19,-1
 6 24 l 1,20,-1
 6 26 l 1,0,-1
10 14 m 1,21,-1
 10 18 l 1,22,-1
 6 18 l 1,23,-1
 6 14 l 1,24,-1
 10 14 l 1,21,-1
EndSplineSet
EndChar

StartChar: seven
Encoding: 55 55 26
Width: 16
Flags: W
LayerCount: 2
Fore
SplineSet
2 26 m 1,0,-1
 14 26 l 1,1,-1
 14 20 l 1,2,-1
 12 20 l 1,3,-1
 12 18 l 1,4,-1
 10 18 l 1,5,-1
 10 12 l 1,6,-1
 6 12 l 1,7,-1
 6 18 l 1,8,-1
 8 18 l 1,9,-1
 8 20 l 1,10,-1
 10 20 l 1,11,-1
 10 24 l 1,12,-1
 2 24 l 1,13,-1
 2 26 l 1,0,-1
EndSplineSet
EndChar

StartChar: eight
Encoding: 56 56 27
Width: 16
Flags: W
LayerCount: 2
Fore
SplineSet
4 26 m 1,0,-1
 12 26 l 1,1,-1
 12 24 l 1,2,-1
 14 24 l 1,3,-1
 14 20 l 1,4,-1
 12 20 l 1,5,-1
 12 18 l 1,6,-1
 14 18 l 1,7,-1
 14 14 l 1,8,-1
 12 14 l 1,9,-1
 12 12 l 1,10,-1
 4 12 l 1,11,-1
 4 14 l 1,12,-1
 2 14 l 1,13,-1
 2 18 l 1,14,-1
 4 18 l 1,15,-1
 4 20 l 1,16,-1
 2 20 l 1,17,-1
 2 24 l 1,18,-1
 4 24 l 1,19,-1
 4 26 l 1,0,-1
10 14 m 1,20,-1
 10 18 l 1,21,-1
 6 18 l 1,22,-1
 6 14 l 1,23,-1
 10 14 l 1,20,-1
10 20 m 1,24,-1
 10 24 l 1,25,-1
 6 24 l 1,26,-1
 6 20 l 1,27,-1
 10 20 l 1,24,-1
EndSplineSet
EndChar

StartChar: nine
Encoding: 57 57 28
Width: 16
Flags: W
LayerCount: 2
Fore
SplineSet
4 26 m 1,0,-1
 12 26 l 1,1,-1
 12 24 l 1,2,-1
 14 24 l 1,3,-1
 14 20 l 1,4,-1
 14 16 l 1,5,-1
 12 16 l 1,6,-1
 12 14 l 1,7,-1
 10 14 l 1,8,-1
 10 12 l 1,9,-1
 4 12 l 1,10,-1
 4 14 l 1,11,-1
 8 14 l 1,12,-1
 8 16 l 1,13,-1
 10 16 l 1,14,-1
 10 18 l 1,15,-1
 4 18 l 1,16,-1
 4 20 l 1,17,-1
 2 20 l 1,18,-1
 2 24 l 1,19,-1
 4 24 l 1,20,-1
 4 26 l 1,0,-1
10 20 m 1,21,-1
 10 24 l 1,22,-1
 6 24 l 1,23,-1
 6 20 l 1,24,-1
 10 20 l 1,21,-1
EndSplineSet
EndChar

StartChar: colon
Encoding: 58 58 29
Width: 16
Flags: W
LayerCount: 2
Fore
SplineSet
6 16 m 1,0,-1
 10 16 l 1,1,-1
 10 12 l 1,2,-1
 6 12 l 1,3,-1
 6 16 l 1,0,-1
6 24 m 1,4,-1
 10 24 l 1,5,-1
 10 20 l 1,6,-1
 6 20 l 1,7,-1
 6 24 l 1,4,-1
EndSplineSet
EndChar

StartChar: semicolon
Encoding: 59 59 30
Width: 16
Flags: W
LayerCount: 2
Fore
SplineSet
6 16 m 1,0,-1
 10 16 l 1,1,-1
 10 12 l 1,2,-1
 8 12 l 1,3,-1
 8 10 l 1,4,-1
 4 10 l 1,5,-1
 4 12 l 1,6,-1
 6 12 l 1,7,-1
 6 16 l 1,0,-1
6 24 m 1,8,-1
 10 24 l 1,9,-1
 10 20 l 1,10,-1
 6 20 l 1,11,-1
 6 24 l 1,8,-1
EndSplineSet
EndChar

StartChar: less
Encoding: 60 60 31
Width: 16
Flags: W
LayerCount: 2
Fore
SplineSet
8 26 m 1,0,-1
 12 26 l 1,1,-1
 12 24 l 1,2,-1
 10 24 l 1,3,-1
 10 22 l 1,4,-1
 8 22 l 1,5,-1
 8 20 l 1,6,-1
 6 20 l 1,7,-1
 6 18 l 1,8,-1
 8 18 l 1,9,-1
 8 16 l 1,10,-1
 10 16 l 1,11,-1
 10 14 l 1,12,-1
 12 14 l 1,13,-1
 12 12 l 1,14,-1
 8 12 l 1,15,-1
 8 14 l 1,16,-1
 6 14 l 1,17,-1
 6 16 l 1,18,-1
 4 16 l 1,19,-1
 4 18 l 1,20,-1
 2 18 l 1,21,-1
 2 20 l 1,22,-1
 4 20 l 1,23,-1
 4 22 l 1,24,-1
 6 22 l 1,25,-1
 6 24 l 1,26,-1
 8 24 l 1,27,-1
 8 26 l 1,0,-1
EndSplineSet
EndChar

StartChar: equal
Encoding: 61 61 32
Width: 16
Flags: W
LayerCount: 2
Fore
SplineSet
2 18 m 1,0,-1
 14 18 l 1,1,-1
 14 16 l 1,2,-1
 2 16 l 1,3,-1
 2 18 l 1,0,-1
2 22 m 1,4,-1
 14 22 l 1,5,-1
 14 20 l 1,6,-1
 2 20 l 1,7,-1
 2 22 l 1,4,-1
EndSplineSet
EndChar

StartChar: greater
Encoding: 62 62 33
Width: 16
Flags: W
LayerCount: 2
Fore
SplineSet
2 26 m 1,0,-1
 6 26 l 1,1,-1
 6 24 l 1,2,-1
 8 24 l 1,3,-1
 8 22 l 1,4,-1
 10 22 l 1,5,-1
 10 20 l 1,6,-1
 12 20 l 1,7,-1
 12 18 l 1,8,-1
 10 18 l 1,9,-1
 10 16 l 1,10,-1
 8 16 l 1,11,-1
 8 14 l 1,12,-1
 6 14 l 1,13,-1
 6 12 l 1,14,-1
 2 12 l 1,15,-1
 2 14 l 1,16,-1
 4 14 l 1,17,-1
 4 16 l 1,18,-1
 6 16 l 1,19,-1
 6 18 l 1,20,-1
 8 18 l 1,21,-1
 8 20 l 1,22,-1
 6 20 l 1,23,-1
 6 22 l 1,24,-1
 4 22 l 1,25,-1
 4 24 l 1,26,-1
 2 24 l 1,27,-1
 2 26 l 1,0,-1
EndSplineSet
EndChar

StartChar: question
Encoding: 63 63 34
Width: 16
Flags: W
LayerCount: 2
Fore
SplineSet
6 14 m 1,0,-1
 10 14 l 1,1,-1
 10 12 l 1,2,-1
 6 12 l 1,3,-1
 6 14 l 1,0,-1
4 26 m 1,4,-1
 12 26 l 1,5,-1
 12 24 l 1,6,-1
 14 24 l 1,7,-1
 14 20 l 1,8,-1
 12 20 l 1,9,-1
 12 18 l 1,10,-1
 10 18 l 1,11,-1
 10 16 l 1,12,-1
 6 16 l 1,13,-1
 6 18 l 1,14,-1
 8 18 l 1,15,-1
 8 20 l 1,16,-1
 10 20 l 1,17,-1
 10 24 l 1,18,-1
 6 24 l 1,19,-1
 6 22 l 1,20,-1
 2 22 l 1,21,-1
 2 24 l 1,22,-1
 4 24 l 1,23,-1
 4 26 l 1,4,-1
EndSplineSet
EndChar

StartChar: at
Encoding: 64 64 35
Width: 16
Flags: W
LayerCount: 2
Fore
SplineSet
2 26 m 1,0,-1
 12 26 l 1,1,-1
 12 24 l 1,2,-1
 14 24 l 1,3,-1
 14 16 l 1,4,-1
 6 16 l 1,5,-1
 6 22 l 1,6,-1
 10 22 l 1,7,-1
 10 24 l 1,8,-1
 4 24 l 1,9,-1
 4 14 l 1,10,-1
 12 14 l 1,11,-1
 12 12 l 1,12,-1
 2 12 l 1,13,-1
 2 14 l 1,14,-1
 0 14 l 1,15,-1
 0 24 l 1,16,-1
 2 24 l 1,17,-1
 2 26 l 1,0,-1
EndSplineSet
EndChar

StartChar: A
Encoding: 65 65 36
Width: 16
Flags: W
LayerCount: 2
Fore
SplineSet
6 26 m 1,0,-1
 10 26 l 1,1,-1
 10 24 l 1,2,-1
 12 24 l 1,3,-1
 12 22 l 1,4,-1
 14 22 l 1,5,-1
 14 18 l 1,6,-1
 14 16 l 1,7,-1
 14 12 l 1,8,-1
 10 12 l 1,9,-1
 10 16 l 1,10,-1
 6 16 l 1,11,-1
 6 12 l 1,12,-1
 2 12 l 1,13,-1
 2 16 l 1,14,-1
 2 22 l 1,15,-1
 4 22 l 1,16,-1
 4 24 l 1,17,-1
 6 24 l 1,18,-1
 6 26 l 1,0,-1
10 18 m 1,19,-1
 10 22 l 1,20,-1
 6 22 l 1,21,-1
 6 18 l 1,22,-1
 10 18 l 1,19,-1
EndSplineSet
EndChar

StartChar: B
Encoding: 66 66 37
Width: 16
Flags: W
LayerCount: 2
Fore
SplineSet
2 26 m 1,0,-1
 12 26 l 1,1,-1
 12 24 l 1,2,-1
 14 24 l 1,3,-1
 14 20 l 1,4,-1
 12 20 l 1,5,-1
 12 18 l 1,6,-1
 14 18 l 1,7,-1
 14 14 l 1,8,-1
 12 14 l 1,9,-1
 12 12 l 1,10,-1
 2 12 l 1,11,-1
 2 18 l 1,12,-1
 2 24 l 1,13,-1
 2 26 l 1,0,-1
10 14 m 1,14,-1
 10 18 l 1,15,-1
 6 18 l 1,16,-1
 6 14 l 1,17,-1
 10 14 l 1,14,-1
10 20 m 1,18,-1
 10 24 l 1,19,-1
 6 24 l 1,20,-1
 6 20 l 1,21,-1
 10 20 l 1,18,-1
EndSplineSet
EndChar

StartChar: C
Encoding: 67 67 38
Width: 16
Flags: W
LayerCount: 2
Fore
SplineSet
10 16 m 1,0,-1
 14 16 l 1,1,-1
 14 14 l 1,2,-1
 12 14 l 1,3,-1
 12 12 l 1,4,-1
 4 12 l 1,5,-1
 4 14 l 1,6,-1
 2 14 l 1,7,-1
 2 24 l 1,8,-1
 4 24 l 1,9,-1
 4 26 l 1,10,-1
 12 26 l 1,11,-1
 12 24 l 1,12,-1
 14 24 l 1,13,-1
 14 22 l 1,14,-1
 10 22 l 1,15,-1
 10 24 l 1,16,-1
 6 24 l 1,17,-1
 6 14 l 1,18,-1
 10 14 l 1,19,-1
 10 16 l 1,0,-1
EndSplineSet
EndChar

StartChar: D
Encoding: 68 68 39
Width: 16
Flags: W
LayerCount: 2
Fore
SplineSet
2 26 m 1,0,-1
 10 26 l 1,1,-1
 10 24 l 1,2,-1
 12 24 l 1,3,-1
 12 22 l 1,4,-1
 14 22 l 1,5,-1
 14 16 l 1,6,-1
 12 16 l 1,7,-1
 12 14 l 1,8,-1
 10 14 l 1,9,-1
 10 12 l 1,10,-1
 2 12 l 1,11,-1
 2 24 l 1,12,-1
 2 26 l 1,0,-1
10 16 m 1,13,-1
 10 22 l 1,14,-1
 8 22 l 1,15,-1
 8 24 l 1,16,-1
 6 24 l 1,17,-1
 6 14 l 1,18,-1
 8 14 l 1,19,-1
 8 16 l 1,20,-1
 10 16 l 1,13,-1
EndSplineSet
EndChar

StartChar: E
Encoding: 69 69 40
Width: 16
Flags: W
LayerCount: 2
Fore
SplineSet
2 26 m 1,0,-1
 14 26 l 1,1,-1
 14 24 l 1,2,-1
 6 24 l 1,3,-1
 6 20 l 1,4,-1
 12 20 l 1,5,-1
 12 18 l 1,6,-1
 6 18 l 1,7,-1
 6 14 l 1,8,-1
 14 14 l 1,9,-1
 14 12 l 1,10,-1
 2 12 l 1,11,-1
 2 18 l 1,12,-1
 2 24 l 1,13,-1
 2 26 l 1,0,-1
EndSplineSet
EndChar

StartChar: F
Encoding: 70 70 41
Width: 16
Flags: W
LayerCount: 2
Fore
SplineSet
2 26 m 1,0,-1
 14 26 l 1,1,-1
 14 24 l 1,2,-1
 6 24 l 1,3,-1
 6 20 l 1,4,-1
 12 20 l 1,5,-1
 12 18 l 1,6,-1
 6 18 l 1,7,-1
 6 12 l 1,8,-1
 2 12 l 1,9,-1
 2 18 l 1,10,-1
 2 24 l 1,11,-1
 2 26 l 1,0,-1
EndSplineSet
EndChar

StartChar: G
Encoding: 71 71 42
Width: 16
Flags: W
LayerCount: 2
Fore
SplineSet
8 20 m 1,0,-1
 14 20 l 1,1,-1
 14 14 l 1,2,-1
 14 12 l 1,3,-1
 4 12 l 1,4,-1
 4 14 l 1,5,-1
 2 14 l 1,6,-1
 2 24 l 1,7,-1
 4 24 l 1,8,-1
 4 26 l 1,9,-1
 12 26 l 1,10,-1
 12 24 l 1,11,-1
 14 24 l 1,12,-1
 14 22 l 1,13,-1
 10 22 l 1,14,-1
 10 24 l 1,15,-1
 6 24 l 1,16,-1
 6 14 l 1,17,-1
 10 14 l 1,18,-1
 10 18 l 1,19,-1
 8 18 l 1,20,-1
 8 20 l 1,0,-1
EndSplineSet
EndChar

StartChar: H
Encoding: 72 72 43
Width: 16
Flags: W
LayerCount: 2
Fore
SplineSet
10 26 m 1,0,-1
 14 26 l 1,1,-1
 14 20 l 1,2,-1
 14 18 l 1,3,-1
 14 12 l 1,4,-1
 10 12 l 1,5,-1
 10 18 l 1,6,-1
 6 18 l 1,7,-1
 6 12 l 1,8,-1
 2 12 l 1,9,-1
 2 18 l 1,10,-1
 2 26 l 1,11,-1
 6 26 l 1,12,-1
 6 20 l 1,13,-1
 10 20 l 1,14,-1
 10 26 l 1,0,-1
EndSplineSet
EndChar

StartChar: I
Encoding: 73 73 44
Width: 16
Flags: W
LayerCount: 2
Fore
SplineSet
2 26 m 1,0,-1
 14 26 l 1,1,-1
 14 24 l 1,2,-1
 10 24 l 1,3,-1
 10 14 l 1,4,-1
 14 14 l 1,5,-1
 14 12 l 1,6,-1
 2 12 l 1,7,-1
 2 14 l 1,8,-1
 6 14 l 1,9,-1
 6 24 l 1,10,-1
 2 24 l 1,11,-1
 2 26 l 1,0,-1
EndSplineSet
EndChar

StartChar: J
Encoding: 74 74 45
Width: 16
Flags: W
LayerCount: 2
Fore
SplineSet
2 16 m 1,0,-1
 6 16 l 1,1,-1
 6 14 l 1,2,-1
 10 14 l 1,3,-1
 10 16 l 1,4,-1
 10 26 l 1,5,-1
 14 26 l 1,6,-1
 14 16 l 1,7,-1
 14 14 l 1,8,-1
 12 14 l 1,9,-1
 12 12 l 1,10,-1
 4 12 l 1,11,-1
 4 14 l 1,12,-1
 2 14 l 1,13,-1
 2 16 l 1,0,-1
EndSplineSet
EndChar

StartChar: K
Encoding: 75 75 46
Width: 16
Flags: W
LayerCount: 2
Fore
SplineSet
10 26 m 1,0,-1
 14 26 l 1,1,-1
 14 24 l 1,2,-1
 12 24 l 1,3,-1
 12 22 l 1,4,-1
 10 22 l 1,5,-1
 10 20 l 1,6,-1
 8 20 l 1,7,-1
 8 18 l 1,8,-1
 10 18 l 1,9,-1
 10 16 l 1,10,-1
 12 16 l 1,11,-1
 12 14 l 1,12,-1
 14 14 l 1,13,-1
 14 12 l 1,14,-1
 10 12 l 1,15,-1
 10 14 l 1,16,-1
 8 14 l 1,17,-1
 8 16 l 1,18,-1
 6 16 l 1,19,-1
 6 18 l 1,20,-1
 4 18 l 1,21,-1
 4 12 l 1,22,-1
 0 12 l 1,23,-1
 0 18 l 1,24,-1
 0 26 l 1,25,-1
 4 26 l 1,26,-1
 4 20 l 1,27,-1
 6 20 l 1,28,-1
 6 22 l 1,29,-1
 8 22 l 1,30,-1
 8 24 l 1,31,-1
 10 24 l 1,32,-1
 10 26 l 1,0,-1
EndSplineSet
EndChar

StartChar: L
Encoding: 76 76 47
Width: 16
Flags: W
LayerCount: 2
Fore
SplineSet
2 26 m 1,0,-1
 6 26 l 1,1,-1
 6 14 l 1,2,-1
 14 14 l 1,3,-1
 14 12 l 1,4,-1
 2 12 l 1,5,-1
 2 26 l 1,0,-1
EndSplineSet
EndChar

StartChar: M
Encoding: 77 77 48
Width: 16
Flags: W
LayerCount: 2
Fore
SplineSet
10 26 m 1,0,-1
 14 26 l 1,1,-1
 14 22 l 1,2,-1
 14 20 l 1,3,-1
 14 12 l 1,4,-1
 10 12 l 1,5,-1
 10 20 l 1,6,-1
 8 20 l 1,7,-1
 8 18 l 1,8,-1
 6 18 l 1,9,-1
 6 20 l 1,10,-1
 4 20 l 1,11,-1
 4 12 l 1,12,-1
 0 12 l 1,13,-1
 0 20 l 1,14,-1
 0 26 l 1,15,-1
 4 26 l 1,16,-1
 4 24 l 1,17,-1
 6 24 l 1,18,-1
 6 22 l 1,19,-1
 8 22 l 1,20,-1
 8 24 l 1,21,-1
 10 24 l 1,22,-1
 10 26 l 1,0,-1
EndSplineSet
EndChar

StartChar: N
Encoding: 78 78 49
Width: 16
Flags: W
LayerCount: 2
Fore
SplineSet
10 26 m 1,0,-1
 14 26 l 1,1,-1
 14 20 l 1,2,-1
 14 12 l 1,3,-1
 10 12 l 1,4,-1
 10 16 l 1,5,-1
 8 16 l 1,6,-1
 8 18 l 1,7,-1
 6 18 l 1,8,-1
 6 20 l 1,9,-1
 4 20 l 1,10,-1
 4 12 l 1,11,-1
 0 12 l 1,12,-1
 0 20 l 1,13,-1
 0 26 l 1,14,-1
 4 26 l 1,15,-1
 4 24 l 1,16,-1
 6 24 l 1,17,-1
 6 22 l 1,18,-1
 8 22 l 1,19,-1
 8 20 l 1,20,-1
 10 20 l 1,21,-1
 10 26 l 1,0,-1
EndSplineSet
EndChar

StartChar: O
Encoding: 79 79 50
Width: 16
Flags: W
LayerCount: 2
Fore
SplineSet
4 26 m 1,0,-1
 12 26 l 1,1,-1
 12 24 l 1,2,-1
 14 24 l 1,3,-1
 14 14 l 1,4,-1
 12 14 l 1,5,-1
 12 12 l 1,6,-1
 4 12 l 1,7,-1
 4 14 l 1,8,-1
 2 14 l 1,9,-1
 2 24 l 1,10,-1
 4 24 l 1,11,-1
 4 26 l 1,0,-1
10 14 m 1,12,-1
 10 24 l 1,13,-1
 6 24 l 1,14,-1
 6 14 l 1,15,-1
 10 14 l 1,12,-1
EndSplineSet
EndChar

StartChar: P
Encoding: 80 80 51
Width: 16
Flags: W
LayerCount: 2
Fore
SplineSet
2 26 m 1,0,-1
 12 26 l 1,1,-1
 12 24 l 1,2,-1
 14 24 l 1,3,-1
 14 20 l 1,4,-1
 12 20 l 1,5,-1
 12 18 l 1,6,-1
 6 18 l 1,7,-1
 6 12 l 1,8,-1
 2 12 l 1,9,-1
 2 18 l 1,10,-1
 2 24 l 1,11,-1
 2 26 l 1,0,-1
10 20 m 1,12,-1
 10 24 l 1,13,-1
 6 24 l 1,14,-1
 6 20 l 1,15,-1
 10 20 l 1,12,-1
EndSplineSet
EndChar

StartChar: Q
Encoding: 81 81 52
Width: 16
Flags: W
LayerCount: 2
Fore
SplineSet
4 26 m 1,0,-1
 12 26 l 1,1,-1
 12 24 l 1,2,-1
 14 24 l 1,3,-1
 14 16 l 1,4,-1
 12 16 l 1,5,-1
 12 14 l 1,6,-1
 14 14 l 1,7,-1
 14 12 l 1,8,-1
 10 12 l 1,9,-1
 10 14 l 1,10,-1
 8 14 l 1,11,-1
 8 16 l 1,12,-1
 10 16 l 1,13,-1
 10 24 l 1,14,-1
 6 24 l 1,15,-1
 6 14 l 1,16,-1
 8 14 l 1,17,-1
 8 12 l 1,18,-1
 4 12 l 1,19,-1
 4 14 l 1,20,-1
 2 14 l 1,21,-1
 2 24 l 1,22,-1
 4 24 l 1,23,-1
 4 26 l 1,0,-1
EndSplineSet
EndChar

StartChar: R
Encoding: 82 82 53
Width: 16
Flags: W
LayerCount: 2
Fore
SplineSet
2 26 m 1,0,-1
 12 26 l 1,1,-1
 12 24 l 1,2,-1
 14 24 l 1,3,-1
 14 20 l 1,4,-1
 12 20 l 1,5,-1
 12 18 l 1,6,-1
 12 16 l 1,7,-1
 14 16 l 1,8,-1
 14 12 l 1,9,-1
 10 12 l 1,10,-1
 10 16 l 1,11,-1
 8 16 l 1,12,-1
 8 18 l 1,13,-1
 6 18 l 1,14,-1
 6 12 l 1,15,-1
 2 12 l 1,16,-1
 2 18 l 1,17,-1
 2 24 l 1,18,-1
 2 26 l 1,0,-1
10 20 m 1,19,-1
 10 24 l 1,20,-1
 6 24 l 1,21,-1
 6 20 l 1,22,-1
 10 20 l 1,19,-1
EndSplineSet
EndChar

StartChar: S
Encoding: 83 83 54
Width: 16
Flags: W
LayerCount: 2
Fore
SplineSet
2 16 m 1,0,-1
 6 16 l 1,1,-1
 6 14 l 1,2,-1
 10 14 l 1,3,-1
 10 16 l 1,4,-1
 10 18 l 1,5,-1
 4 18 l 1,6,-1
 4 20 l 1,7,-1
 2 20 l 1,8,-1
 2 24 l 1,9,-1
 4 24 l 1,10,-1
 4 26 l 1,11,-1
 12 26 l 1,12,-1
 12 24 l 1,13,-1
 14 24 l 1,14,-1
 14 22 l 1,15,-1
 10 22 l 1,16,-1
 10 24 l 1,17,-1
 6 24 l 1,18,-1
 6 20 l 1,19,-1
 12 20 l 1,20,-1
 12 18 l 1,21,-1
 14 18 l 1,22,-1
 14 16 l 1,23,-1
 14 14 l 1,24,-1
 12 14 l 1,25,-1
 12 12 l 1,26,-1
 4 12 l 1,27,-1
 4 14 l 1,28,-1
 2 14 l 1,29,-1
 2 16 l 1,0,-1
EndSplineSet
EndChar

StartChar: T
Encoding: 84 84 55
Width: 16
Flags: W
LayerCount: 2
Fore
SplineSet
2 26 m 1,0,-1
 14 26 l 1,1,-1
 14 24 l 1,2,-1
 10 24 l 1,3,-1
 10 12 l 1,4,-1
 6 12 l 1,5,-1
 6 24 l 1,6,-1
 2 24 l 1,7,-1
 2 26 l 1,0,-1
EndSplineSet
EndChar

StartChar: U
Encoding: 85 85 56
Width: 16
Flags: W
LayerCount: 2
Fore
SplineSet
10 26 m 1,0,-1
 14 26 l 1,1,-1
 14 14 l 1,2,-1
 12 14 l 1,3,-1
 12 12 l 1,4,-1
 4 12 l 1,5,-1
 4 14 l 1,6,-1
 2 14 l 1,7,-1
 2 26 l 1,8,-1
 6 26 l 1,9,-1
 6 14 l 1,10,-1
 10 14 l 1,11,-1
 10 26 l 1,0,-1
EndSplineSet
EndChar

StartChar: V
Encoding: 86 86 57
Width: 16
Flags: W
LayerCount: 2
Fore
SplineSet
10 26 m 1,0,-1
 14 26 l 1,1,-1
 14 16 l 1,2,-1
 12 16 l 1,3,-1
 12 14 l 1,4,-1
 10 14 l 1,5,-1
 10 12 l 1,6,-1
 6 12 l 1,7,-1
 6 14 l 1,8,-1
 4 14 l 1,9,-1
 4 16 l 1,10,-1
 2 16 l 1,11,-1
 2 26 l 1,12,-1
 6 26 l 1,13,-1
 6 16 l 1,14,-1
 10 16 l 1,15,-1
 10 26 l 1,0,-1
EndSplineSet
EndChar

StartChar: W
Encoding: 87 87 58
Width: 16
Flags: W
LayerCount: 2
Fore
SplineSet
6 20 m 1,0,-1
 8 20 l 1,1,-1
 8 18 l 1,2,-1
 10 18 l 1,3,-1
 10 20 l 1,4,-1
 10 26 l 1,5,-1
 14 26 l 1,6,-1
 14 20 l 1,7,-1
 14 18 l 1,8,-1
 14 16 l 1,9,-1
 14 14 l 1,10,-1
 14 12 l 1,11,-1
 10 12 l 1,12,-1
 10 14 l 1,13,-1
 8 14 l 1,14,-1
 8 16 l 1,15,-1
 6 16 l 1,16,-1
 6 14 l 1,17,-1
 4 14 l 1,18,-1
 4 12 l 1,19,-1
 0 12 l 1,20,-1
 0 14 l 1,21,-1
 0 16 l 1,22,-1
 0 26 l 1,23,-1
 4 26 l 1,24,-1
 4 18 l 1,25,-1
 6 18 l 1,26,-1
 6 20 l 1,0,-1
EndSplineSet
EndChar

StartChar: X
Encoding: 88 88 59
Width: 16
Flags: W
LayerCount: 2
Fore
SplineSet
12 26 m 1,0,-1
 16 26 l 1,1,-1
 16 24 l 1,2,-1
 14 24 l 1,3,-1
 14 22 l 1,4,-1
 12 22 l 1,5,-1
 12 20 l 1,6,-1
 10 20 l 1,7,-1
 10 18 l 1,8,-1
 12 18 l 1,9,-1
 12 16 l 1,10,-1
 14 16 l 1,11,-1
 14 14 l 1,12,-1
 16 14 l 1,13,-1
 16 12 l 1,14,-1
 12 12 l 1,15,-1
 12 14 l 1,16,-1
 10 14 l 1,17,-1
 10 16 l 1,18,-1
 6 16 l 1,19,-1
 6 14 l 1,20,-1
 4 14 l 1,21,-1
 4 12 l 1,22,-1
 0 12 l 1,23,-1
 0 14 l 1,24,-1
 2 14 l 1,25,-1
 2 16 l 1,26,-1
 4 16 l 1,27,-1
 4 18 l 1,28,-1
 6 18 l 1,29,-1
 6 20 l 1,30,-1
 4 20 l 1,31,-1
 4 22 l 1,32,-1
 2 22 l 1,33,-1
 2 24 l 1,34,-1
 0 24 l 1,35,-1
 0 26 l 1,36,-1
 4 26 l 1,37,-1
 4 24 l 1,38,-1
 6 24 l 1,39,-1
 6 22 l 1,40,-1
 10 22 l 1,41,-1
 10 24 l 1,42,-1
 12 24 l 1,43,-1
 12 26 l 1,0,-1
EndSplineSet
EndChar

StartChar: Y
Encoding: 89 89 60
Width: 16
Flags: W
LayerCount: 2
Fore
SplineSet
12 26 m 1,0,-1
 16 26 l 1,1,-1
 16 24 l 1,2,-1
 14 24 l 1,3,-1
 14 22 l 1,4,-1
 12 22 l 1,5,-1
 12 20 l 1,6,-1
 10 20 l 1,7,-1
 10 12 l 1,8,-1
 6 12 l 1,9,-1
 6 20 l 1,10,-1
 4 20 l 1,11,-1
 4 22 l 1,12,-1
 2 22 l 1,13,-1
 2 24 l 1,14,-1
 0 24 l 1,15,-1
 0 26 l 1,16,-1
 4 26 l 1,17,-1
 4 24 l 1,18,-1
 6 24 l 1,19,-1
 6 22 l 1,20,-1
 10 22 l 1,21,-1
 10 24 l 1,22,-1
 12 24 l 1,23,-1
 12 26 l 1,0,-1
EndSplineSet
EndChar

StartChar: Z
Encoding: 90 90 61
Width: 16
Flags: W
LayerCount: 2
Fore
SplineSet
2 26 m 1,0,-1
 14 26 l 1,1,-1
 14 22 l 1,2,-1
 12 22 l 1,3,-1
 12 20 l 1,4,-1
 10 20 l 1,5,-1
 10 18 l 1,6,-1
 8 18 l 1,7,-1
 8 16 l 1,8,-1
 6 16 l 1,9,-1
 6 14 l 1,10,-1
 14 14 l 1,11,-1
 14 12 l 1,12,-1
 2 12 l 1,13,-1
 2 16 l 1,14,-1
 4 16 l 1,15,-1
 4 18 l 1,16,-1
 6 18 l 1,17,-1
 6 20 l 1,18,-1
 8 20 l 1,19,-1
 8 22 l 1,20,-1
 10 22 l 1,21,-1
 10 24 l 1,22,-1
 2 24 l 1,23,-1
 2 26 l 1,0,-1
EndSplineSet
EndChar

StartChar: bracketleft
Encoding: 91 91 62
Width: 16
Flags: W
LayerCount: 2
Fore
SplineSet
4 26 m 1,0,-1
 12 26 l 1,1,-1
 12 24 l 1,2,-1
 8 24 l 1,3,-1
 8 14 l 1,4,-1
 12 14 l 1,5,-1
 12 12 l 1,6,-1
 4 12 l 1,7,-1
 4 24 l 1,8,-1
 4 26 l 1,0,-1
EndSplineSet
EndChar

StartChar: backslash
Encoding: 92 92 63
Width: 16
Flags: W
LayerCount: 2
Fore
SplineSet
0 26 m 1,0,-1
 4 26 l 1,1,-1
 4 24 l 1,2,-1
 6 24 l 1,3,-1
 6 22 l 1,4,-1
 8 22 l 1,5,-1
 8 20 l 1,6,-1
 10 20 l 1,7,-1
 10 18 l 1,8,-1
 12 18 l 1,9,-1
 12 16 l 1,10,-1
 14 16 l 1,11,-1
 14 14 l 1,12,-1
 16 14 l 1,13,-1
 16 12 l 1,14,-1
 12 12 l 1,15,-1
 12 14 l 1,16,-1
 10 14 l 1,17,-1
 10 16 l 1,18,-1
 8 16 l 1,19,-1
 8 18 l 1,20,-1
 6 18 l 1,21,-1
 6 20 l 1,22,-1
 4 20 l 1,23,-1
 4 22 l 1,24,-1
 2 22 l 1,25,-1
 2 24 l 1,26,-1
 0 24 l 1,27,-1
 0 26 l 1,0,-1
EndSplineSet
EndChar

StartChar: bracketright
Encoding: 93 93 64
Width: 16
Flags: W
LayerCount: 2
Fore
SplineSet
4 26 m 1,0,-1
 12 26 l 1,1,-1
 12 12 l 1,2,-1
 4 12 l 1,3,-1
 4 14 l 1,4,-1
 8 14 l 1,5,-1
 8 24 l 1,6,-1
 4 24 l 1,7,-1
 4 26 l 1,0,-1
EndSplineSet
EndChar

StartChar: asciicircum
Encoding: 94 94 65
Width: 16
Flags: W
LayerCount: 2
Fore
SplineSet
6 26 m 1,0,-1
 8 26 l 1,1,-1
 8 24 l 1,2,-1
 10 24 l 1,3,-1
 10 22 l 1,4,-1
 12 22 l 1,5,-1
 12 20 l 1,6,-1
 14 20 l 1,7,-1
 14 18 l 1,8,-1
 10 18 l 1,9,-1
 10 20 l 1,10,-1
 8 20 l 1,11,-1
 8 22 l 1,12,-1
 6 22 l 1,13,-1
 6 20 l 1,14,-1
 4 20 l 1,15,-1
 4 18 l 1,16,-1
 0 18 l 1,17,-1
 0 20 l 1,18,-1
 2 20 l 1,19,-1
 2 22 l 1,20,-1
 4 22 l 1,21,-1
 4 24 l 1,22,-1
 6 24 l 1,23,-1
 6 26 l 1,0,-1
EndSplineSet
EndChar

StartChar: underscore
Encoding: 95 95 66
Width: 16
Flags: W
LayerCount: 2
Fore
SplineSet
0 12 m 1,0,-1
 16 12 l 1,1,-1
 16 10 l 1,2,-1
 0 10 l 1,3,-1
 0 12 l 1,0,-1
EndSplineSet
EndChar

StartChar: grave
Encoding: 96 96 67
Width: 16
Flags: W
LayerCount: 2
Fore
SplineSet
6 26 m 1,0,-1
 10 26 l 1,1,-1
 10 24 l 1,2,-1
 12 24 l 1,3,-1
 12 22 l 1,4,-1
 14 22 l 1,5,-1
 14 20 l 1,6,-1
 10 20 l 1,7,-1
 10 22 l 1,8,-1
 8 22 l 1,9,-1
 8 24 l 1,10,-1
 6 24 l 1,11,-1
 6 26 l 1,0,-1
EndSplineSet
EndChar

StartChar: a
Encoding: 97 97 68
Width: 16
Flags: W
LayerCount: 2
Fore
SplineSet
4 22 m 1,0,-1
 12 22 l 1,1,-1
 12 20 l 1,2,-1
 14 20 l 1,3,-1
 14 16 l 1,4,-1
 14 14 l 1,5,-1
 14 12 l 1,6,-1
 4 12 l 1,7,-1
 4 14 l 1,8,-1
 2 14 l 1,9,-1
 2 16 l 1,10,-1
 4 16 l 1,11,-1
 4 18 l 1,12,-1
 10 18 l 1,13,-1
 10 20 l 1,14,-1
 4 20 l 1,15,-1
 4 22 l 1,0,-1
10 14 m 1,16,-1
 10 16 l 1,17,-1
 6 16 l 1,18,-1
 6 14 l 1,19,-1
 10 14 l 1,16,-1
EndSplineSet
EndChar

StartChar: b
Encoding: 98 98 69
Width: 16
Flags: W
LayerCount: 2
Fore
SplineSet
2 26 m 1,0,-1
 6 26 l 1,1,-1
 6 22 l 1,2,-1
 12 22 l 1,3,-1
 12 20 l 1,4,-1
 14 20 l 1,5,-1
 14 14 l 1,6,-1
 12 14 l 1,7,-1
 12 12 l 1,8,-1
 2 12 l 1,9,-1
 2 20 l 1,10,-1
 2 26 l 1,0,-1
10 14 m 1,11,-1
 10 20 l 1,12,-1
 6 20 l 1,13,-1
 6 14 l 1,14,-1
 10 14 l 1,11,-1
EndSplineSet
EndChar

StartChar: c
Encoding: 99 99 70
Width: 16
Flags: W
LayerCount: 2
Fore
SplineSet
4 22 m 1,0,-1
 12 22 l 1,1,-1
 12 20 l 1,2,-1
 6 20 l 1,3,-1
 6 14 l 1,4,-1
 12 14 l 1,5,-1
 12 12 l 1,6,-1
 4 12 l 1,7,-1
 4 14 l 1,8,-1
 2 14 l 1,9,-1
 2 20 l 1,10,-1
 4 20 l 1,11,-1
 4 22 l 1,0,-1
EndSplineSet
EndChar

StartChar: d
Encoding: 100 100 71
Width: 16
Flags: W
LayerCount: 2
Fore
SplineSet
10 26 m 1,0,-1
 14 26 l 1,1,-1
 14 20 l 1,2,-1
 14 14 l 1,3,-1
 14 12 l 1,4,-1
 4 12 l 1,5,-1
 4 14 l 1,6,-1
 2 14 l 1,7,-1
 2 20 l 1,8,-1
 4 20 l 1,9,-1
 4 22 l 1,10,-1
 10 22 l 1,11,-1
 10 26 l 1,0,-1
10 14 m 1,12,-1
 10 20 l 1,13,-1
 6 20 l 1,14,-1
 6 14 l 1,15,-1
 10 14 l 1,12,-1
EndSplineSet
EndChar

StartChar: e
Encoding: 101 101 72
Width: 16
Flags: W
LayerCount: 2
Fore
SplineSet
4 22 m 1,0,-1
 12 22 l 1,1,-1
 12 20 l 1,2,-1
 14 20 l 1,3,-1
 14 18 l 1,4,-1
 14 16 l 1,5,-1
 6 16 l 1,6,-1
 6 14 l 1,7,-1
 12 14 l 1,8,-1
 12 12 l 1,9,-1
 4 12 l 1,10,-1
 4 14 l 1,11,-1
 2 14 l 1,12,-1
 2 16 l 1,13,-1
 2 20 l 1,14,-1
 4 20 l 1,15,-1
 4 22 l 1,0,-1
10 18 m 1,16,-1
 10 20 l 1,17,-1
 6 20 l 1,18,-1
 6 18 l 1,19,-1
 10 18 l 1,16,-1
EndSplineSet
EndChar

StartChar: f
Encoding: 102 102 73
Width: 16
Flags: W
LayerCount: 2
Fore
SplineSet
6 26 m 1,0,-1
 12 26 l 1,1,-1
 12 24 l 1,2,-1
 8 24 l 1,3,-1
 8 22 l 1,4,-1
 12 22 l 1,5,-1
 12 20 l 1,6,-1
 8 20 l 1,7,-1
 8 12 l 1,8,-1
 4 12 l 1,9,-1
 4 20 l 1,10,-1
 2 20 l 1,11,-1
 2 22 l 1,12,-1
 4 22 l 1,13,-1
 4 24 l 1,14,-1
 6 24 l 1,15,-1
 6 26 l 1,0,-1
EndSplineSet
EndChar

StartChar: g
Encoding: 103 103 74
Width: 16
Flags: W
LayerCount: 2
Fore
SplineSet
4 22 m 1,0,-1
 14 22 l 1,1,-1
 14 20 l 1,2,-1
 14 16 l 1,3,-1
 14 12 l 1,4,-1
 12 12 l 1,5,-1
 12 10 l 1,6,-1
 2 10 l 1,7,-1
 2 12 l 1,8,-1
 10 12 l 1,9,-1
 10 14 l 1,10,-1
 4 14 l 1,11,-1
 4 16 l 1,12,-1
 2 16 l 1,13,-1
 2 20 l 1,14,-1
 4 20 l 1,15,-1
 4 22 l 1,0,-1
10 16 m 1,16,-1
 10 20 l 1,17,-1
 6 20 l 1,18,-1
 6 16 l 1,19,-1
 10 16 l 1,16,-1
EndSplineSet
EndChar

StartChar: h
Encoding: 104 104 75
Width: 16
Flags: W
LayerCount: 2
Fore
SplineSet
2 26 m 1,0,-1
 6 26 l 1,1,-1
 6 22 l 1,2,-1
 12 22 l 1,3,-1
 12 20 l 1,4,-1
 14 20 l 1,5,-1
 14 12 l 1,6,-1
 10 12 l 1,7,-1
 10 20 l 1,8,-1
 6 20 l 1,9,-1
 6 12 l 1,10,-1
 2 12 l 1,11,-1
 2 20 l 1,12,-1
 2 26 l 1,0,-1
EndSplineSet
EndChar

StartChar: i
Encoding: 105 105 76
Width: 16
Flags: W
LayerCount: 2
Fore
SplineSet
4 22 m 1,0,-1
 10 22 l 1,1,-1
 10 14 l 1,2,-1
 14 14 l 1,3,-1
 14 12 l 1,4,-1
 6 12 l 1,5,-1
 6 20 l 1,6,-1
 4 20 l 1,7,-1
 4 22 l 1,0,-1
6 26 m 1,8,-1
 10 26 l 1,9,-1
 10 24 l 1,10,-1
 6 24 l 1,11,-1
 6 26 l 1,8,-1
EndSplineSet
EndChar

StartChar: j
Encoding: 106 106 77
Width: 16
Flags: W
LayerCount: 2
Fore
SplineSet
8 22 m 1,0,-1
 12 22 l 1,1,-1
 12 12 l 1,2,-1
 10 12 l 1,3,-1
 10 10 l 1,4,-1
 2 10 l 1,5,-1
 2 12 l 1,6,-1
 8 12 l 1,7,-1
 8 22 l 1,0,-1
8 26 m 1,8,-1
 12 26 l 1,9,-1
 12 24 l 1,10,-1
 8 24 l 1,11,-1
 8 26 l 1,8,-1
EndSplineSet
EndChar

StartChar: k
Encoding: 107 107 78
Width: 16
Flags: W
LayerCount: 2
Fore
SplineSet
10 22 m 1,0,-1
 14 22 l 1,1,-1
 14 20 l 1,2,-1
 12 20 l 1,3,-1
 12 18 l 1,4,-1
 10 18 l 1,5,-1
 10 16 l 1,6,-1
 12 16 l 1,7,-1
 12 14 l 1,8,-1
 14 14 l 1,9,-1
 14 12 l 1,10,-1
 10 12 l 1,11,-1
 10 14 l 1,12,-1
 8 14 l 1,13,-1
 8 16 l 1,14,-1
 6 16 l 1,15,-1
 6 12 l 1,16,-1
 2 12 l 1,17,-1
 2 16 l 1,18,-1
 2 26 l 1,19,-1
 6 26 l 1,20,-1
 6 18 l 1,21,-1
 8 18 l 1,22,-1
 8 20 l 1,23,-1
 10 20 l 1,24,-1
 10 22 l 1,0,-1
EndSplineSet
EndChar

StartChar: l
Encoding: 108 108 79
Width: 16
Flags: W
LayerCount: 2
Fore
SplineSet
4 26 m 1,0,-1
 10 26 l 1,1,-1
 10 14 l 1,2,-1
 14 14 l 1,3,-1
 14 12 l 1,4,-1
 6 12 l 1,5,-1
 6 24 l 1,6,-1
 4 24 l 1,7,-1
 4 26 l 1,0,-1
EndSplineSet
EndChar

StartChar: m
Encoding: 109 109 80
Width: 16
Flags: W
LayerCount: 2
Fore
SplineSet
8 22 m 1,0,-1
 12 22 l 1,1,-1
 12 20 l 1,2,-1
 14 20 l 1,3,-1
 14 18 l 1,4,-1
 14 12 l 1,5,-1
 10 12 l 1,6,-1
 10 18 l 1,7,-1
 8 18 l 1,8,-1
 8 14 l 1,9,-1
 6 14 l 1,10,-1
 6 18 l 1,11,-1
 4 18 l 1,12,-1
 4 12 l 1,13,-1
 0 12 l 1,14,-1
 0 18 l 1,15,-1
 0 22 l 1,16,-1
 4 22 l 1,17,-1
 4 20 l 1,18,-1
 8 20 l 1,19,-1
 8 22 l 1,0,-1
EndSplineSet
EndChar

StartChar: n
Encoding: 110 110 81
Width: 16
Flags: W
LayerCount: 2
Fore
SplineSet
2 22 m 1,0,-1
 12 22 l 1,1,-1
 12 20 l 1,2,-1
 14 20 l 1,3,-1
 14 12 l 1,4,-1
 10 12 l 1,5,-1
 10 20 l 1,6,-1
 6 20 l 1,7,-1
 6 12 l 1,8,-1
 2 12 l 1,9,-1
 2 20 l 1,10,-1
 2 22 l 1,0,-1
EndSplineSet
EndChar

StartChar: o
Encoding: 111 111 82
Width: 16
Flags: W
LayerCount: 2
Fore
SplineSet
4 22 m 1,0,-1
 12 22 l 1,1,-1
 12 20 l 1,2,-1
 14 20 l 1,3,-1
 14 14 l 1,4,-1
 12 14 l 1,5,-1
 12 12 l 1,6,-1
 4 12 l 1,7,-1
 4 14 l 1,8,-1
 2 14 l 1,9,-1
 2 20 l 1,10,-1
 4 20 l 1,11,-1
 4 22 l 1,0,-1
10 14 m 1,12,-1
 10 20 l 1,13,-1
 6 20 l 1,14,-1
 6 14 l 1,15,-1
 10 14 l 1,12,-1
EndSplineSet
EndChar

StartChar: p
Encoding: 112 112 83
Width: 16
Flags: W
LayerCount: 2
Fore
SplineSet
2 22 m 1,0,-1
 12 22 l 1,1,-1
 12 20 l 1,2,-1
 14 20 l 1,3,-1
 14 16 l 1,4,-1
 12 16 l 1,5,-1
 12 14 l 1,6,-1
 6 14 l 1,7,-1
 6 10 l 1,8,-1
 2 10 l 1,9,-1
 2 14 l 1,10,-1
 2 20 l 1,11,-1
 2 22 l 1,0,-1
10 16 m 1,12,-1
 10 20 l 1,13,-1
 6 20 l 1,14,-1
 6 16 l 1,15,-1
 10 16 l 1,12,-1
EndSplineSet
EndChar

StartChar: q
Encoding: 113 113 84
Width: 16
Flags: W
LayerCount: 2
Fore
SplineSet
4 22 m 1,0,-1
 14 22 l 1,1,-1
 14 20 l 1,2,-1
 14 16 l 1,3,-1
 14 10 l 1,4,-1
 10 10 l 1,5,-1
 10 14 l 1,6,-1
 4 14 l 1,7,-1
 4 16 l 1,8,-1
 2 16 l 1,9,-1
 2 20 l 1,10,-1
 4 20 l 1,11,-1
 4 22 l 1,0,-1
10 16 m 1,12,-1
 10 20 l 1,13,-1
 6 20 l 1,14,-1
 6 16 l 1,15,-1
 10 16 l 1,12,-1
EndSplineSet
EndChar

StartChar: r
Encoding: 114 114 85
Width: 16
Flags: W
LayerCount: 2
Fore
SplineSet
2 22 m 1,0,-1
 12 22 l 1,1,-1
 12 20 l 1,2,-1
 14 20 l 1,3,-1
 14 18 l 1,4,-1
 10 18 l 1,5,-1
 10 20 l 1,6,-1
 6 20 l 1,7,-1
 6 12 l 1,8,-1
 2 12 l 1,9,-1
 2 20 l 1,10,-1
 2 22 l 1,0,-1
EndSplineSet
EndChar

StartChar: s
Encoding: 115 115 86
Width: 16
Flags: W
LayerCount: 2
Fore
SplineSet
4 22 m 1,0,-1
 14 22 l 1,1,-1
 14 20 l 1,2,-1
 6 20 l 1,3,-1
 6 18 l 1,4,-1
 12 18 l 1,5,-1
 12 16 l 1,6,-1
 14 16 l 1,7,-1
 14 14 l 1,8,-1
 12 14 l 1,9,-1
 12 12 l 1,10,-1
 2 12 l 1,11,-1
 2 14 l 1,12,-1
 10 14 l 1,13,-1
 10 16 l 1,14,-1
 4 16 l 1,15,-1
 4 18 l 1,16,-1
 2 18 l 1,17,-1
 2 20 l 1,18,-1
 4 20 l 1,19,-1
 4 22 l 1,0,-1
EndSplineSet
EndChar

StartChar: t
Encoding: 116 116 87
Width: 16
Flags: W
LayerCount: 2
Fore
SplineSet
4 26 m 1,0,-1
 8 26 l 1,1,-1
 8 22 l 1,2,-1
 14 22 l 1,3,-1
 14 20 l 1,4,-1
 8 20 l 1,5,-1
 8 14 l 1,6,-1
 14 14 l 1,7,-1
 14 12 l 1,8,-1
 6 12 l 1,9,-1
 6 14 l 1,10,-1
 4 14 l 1,11,-1
 4 20 l 1,12,-1
 2 20 l 1,13,-1
 2 22 l 1,14,-1
 4 22 l 1,15,-1
 4 26 l 1,0,-1
EndSplineSet
EndChar

StartChar: u
Encoding: 117 117 88
Width: 16
Flags: W
LayerCount: 2
Fore
SplineSet
10 22 m 1,0,-1
 14 22 l 1,1,-1
 14 14 l 1,2,-1
 14 12 l 1,3,-1
 4 12 l 1,4,-1
 4 14 l 1,5,-1
 2 14 l 1,6,-1
 2 22 l 1,7,-1
 6 22 l 1,8,-1
 6 14 l 1,9,-1
 10 14 l 1,10,-1
 10 22 l 1,0,-1
EndSplineSet
EndChar

StartChar: v
Encoding: 118 118 89
Width: 16
Flags: W
LayerCount: 2
Fore
SplineSet
10 22 m 1,0,-1
 14 22 l 1,1,-1
 14 16 l 1,2,-1
 12 16 l 1,3,-1
 12 14 l 1,4,-1
 10 14 l 1,5,-1
 10 12 l 1,6,-1
 6 12 l 1,7,-1
 6 14 l 1,8,-1
 4 14 l 1,9,-1
 4 16 l 1,10,-1
 2 16 l 1,11,-1
 2 22 l 1,12,-1
 6 22 l 1,13,-1
 6 16 l 1,14,-1
 10 16 l 1,15,-1
 10 22 l 1,0,-1
EndSplineSet
EndChar

StartChar: w
Encoding: 119 119 90
Width: 16
Flags: W
LayerCount: 2
Fore
SplineSet
6 18 m 1,0,-1
 8 18 l 1,1,-1
 8 16 l 1,2,-1
 10 16 l 1,3,-1
 10 18 l 1,4,-1
 10 22 l 1,5,-1
 14 22 l 1,6,-1
 14 18 l 1,7,-1
 14 16 l 1,8,-1
 12 16 l 1,9,-1
 12 14 l 1,10,-1
 12 12 l 1,11,-1
 8 12 l 1,12,-1
 8 14 l 1,13,-1
 6 14 l 1,14,-1
 6 12 l 1,15,-1
 2 12 l 1,16,-1
 2 14 l 1,17,-1
 2 16 l 1,18,-1
 0 16 l 1,19,-1
 0 22 l 1,20,-1
 4 22 l 1,21,-1
 4 16 l 1,22,-1
 6 16 l 1,23,-1
 6 18 l 1,0,-1
EndSplineSet
EndChar

StartChar: x
Encoding: 120 120 91
Width: 16
Flags: W
LayerCount: 2
Fore
SplineSet
10 22 m 1,0,-1
 14 22 l 1,1,-1
 14 20 l 1,2,-1
 12 20 l 1,3,-1
 12 18 l 1,4,-1
 10 18 l 1,5,-1
 10 16 l 1,6,-1
 12 16 l 1,7,-1
 12 14 l 1,8,-1
 14 14 l 1,9,-1
 14 12 l 1,10,-1
 10 12 l 1,11,-1
 10 14 l 1,12,-1
 8 14 l 1,13,-1
 8 16 l 1,14,-1
 6 16 l 1,15,-1
 6 14 l 1,16,-1
 4 14 l 1,17,-1
 4 12 l 1,18,-1
 0 12 l 1,19,-1
 0 14 l 1,20,-1
 2 14 l 1,21,-1
 2 16 l 1,22,-1
 4 16 l 1,23,-1
 4 18 l 1,24,-1
 2 18 l 1,25,-1
 2 20 l 1,26,-1
 0 20 l 1,27,-1
 0 22 l 1,28,-1
 4 22 l 1,29,-1
 4 20 l 1,30,-1
 6 20 l 1,31,-1
 6 18 l 1,32,-1
 8 18 l 1,33,-1
 8 20 l 1,34,-1
 10 20 l 1,35,-1
 10 22 l 1,0,-1
EndSplineSet
EndChar

StartChar: y
Encoding: 121 121 92
Width: 16
Flags: W
LayerCount: 2
Fore
SplineSet
10 22 m 1,0,-1
 14 22 l 1,1,-1
 14 16 l 1,2,-1
 14 12 l 1,3,-1
 12 12 l 1,4,-1
 12 10 l 1,5,-1
 4 10 l 1,6,-1
 4 12 l 1,7,-1
 10 12 l 1,8,-1
 10 14 l 1,9,-1
 4 14 l 1,10,-1
 4 16 l 1,11,-1
 2 16 l 1,12,-1
 2 22 l 1,13,-1
 6 22 l 1,14,-1
 6 16 l 1,15,-1
 10 16 l 1,16,-1
 10 22 l 1,0,-1
EndSplineSet
EndChar

StartChar: z
Encoding: 122 122 93
Width: 16
Flags: W
LayerCount: 2
Fore
SplineSet
2 22 m 1,0,-1
 14 22 l 1,1,-1
 14 20 l 1,2,-1
 12 20 l 1,3,-1
 12 18 l 1,4,-1
 10 18 l 1,5,-1
 10 16 l 1,6,-1
 8 16 l 1,7,-1
 8 14 l 1,8,-1
 14 14 l 1,9,-1
 14 12 l 1,10,-1
 2 12 l 1,11,-1
 2 14 l 1,12,-1
 4 14 l 1,13,-1
 4 16 l 1,14,-1
 6 16 l 1,15,-1
 6 18 l 1,16,-1
 8 18 l 1,17,-1
 8 20 l 1,18,-1
 2 20 l 1,19,-1
 2 22 l 1,0,-1
EndSplineSet
EndChar

StartChar: braceleft
Encoding: 123 123 94
Width: 16
Flags: W
LayerCount: 2
Fore
SplineSet
8 26 m 1,0,-1
 14 26 l 1,1,-1
 14 24 l 1,2,-1
 10 24 l 1,3,-1
 10 20 l 1,4,-1
 8 20 l 1,5,-1
 8 18 l 1,6,-1
 10 18 l 1,7,-1
 10 14 l 1,8,-1
 14 14 l 1,9,-1
 14 12 l 1,10,-1
 8 12 l 1,11,-1
 8 14 l 1,12,-1
 6 14 l 1,13,-1
 6 18 l 1,14,-1
 2 18 l 1,15,-1
 2 20 l 1,16,-1
 6 20 l 1,17,-1
 6 24 l 1,18,-1
 8 24 l 1,19,-1
 8 26 l 1,0,-1
EndSplineSet
EndChar

StartChar: bar
Encoding: 124 124 95
Width: 16
Flags: W
LayerCount: 2
Fore
SplineSet
6 26 m 1,0,-1
 10 26 l 1,1,-1
 10 12 l 1,2,-1
 6 12 l 1,3,-1
 6 26 l 1,0,-1
EndSplineSet
EndChar

StartChar: braceright
Encoding: 125 125 96
Width: 16
Flags: W
LayerCount: 2
Fore
SplineSet
2 26 m 1,0,-1
 8 26 l 1,1,-1
 8 24 l 1,2,-1
 10 24 l 1,3,-1
 10 20 l 1,4,-1
 14 20 l 1,5,-1
 14 18 l 1,6,-1
 10 18 l 1,7,-1
 10 14 l 1,8,-1
 8 14 l 1,9,-1
 8 12 l 1,10,-1
 2 12 l 1,11,-1
 2 14 l 1,12,-1
 6 14 l 1,13,-1
 6 18 l 1,14,-1
 8 18 l 1,15,-1
 8 20 l 1,16,-1
 6 20 l 1,17,-1
 6 24 l 1,18,-1
 2 24 l 1,19,-1
 2 26 l 1,0,-1
EndSplineSet
EndChar

StartChar: asciitilde
Encoding: 126 126 97
Width: 16
Flags: W
LayerCount: 2
Fore
SplineSet
10 26 m 1,0,-1
 14 26 l 1,1,-1
 14 24 l 1,2,-1
 12 24 l 1,3,-1
 12 22 l 1,4,-1
 6 22 l 1,5,-1
 6 24 l 1,6,-1
 4 24 l 1,7,-1
 4 22 l 1,8,-1
 0 22 l 1,9,-1
 0 24 l 1,10,-1
 2 24 l 1,11,-1
 2 26 l 1,12,-1
 8 26 l 1,13,-1
 8 24 l 1,14,-1
 10 24 l 1,15,-1
 10 26 l 1,0,-1
EndSplineSet
EndChar

StartChar: uni007F
Encoding: 127 127 98
Width: 16
Flags: W
LayerCount: 2
Fore
SplineSet
8 22 m 1,0,-1
 14 22 l 1,1,-1
 14 20 l 1,2,-1
 12 20 l 1,3,-1
 12 12 l 1,4,-1
 10 12 l 1,5,-1
 10 20 l 1,6,-1
 8 20 l 1,7,-1
 8 22 l 1,0,-1
0 26 m 1,8,-1
 4 26 l 1,9,-1
 4 24 l 1,10,-1
 6 24 l 1,11,-1
 6 18 l 1,12,-1
 4 18 l 1,13,-1
 4 24 l 1,14,-1
 2 24 l 1,15,-1
 2 18 l 1,16,-1
 4 18 l 1,17,-1
 4 16 l 1,18,-1
 0 16 l 1,19,-1
 0 24 l 1,20,-1
 0 26 l 1,8,-1
EndSplineSet
EndChar

StartChar: uni0080
Encoding: 128 128 99
Width: 16
Flags: W
LayerCount: 2
Fore
SplineSet
8 22 m 1,0,-1
 14 22 l 1,1,-1
 14 20 l 1,2,-1
 14 14 l 1,3,-1
 14 12 l 1,4,-1
 8 12 l 1,5,-1
 8 20 l 1,6,-1
 8 22 l 1,0,-1
0 26 m 1,7,-1
 6 26 l 1,8,-1
 6 24 l 1,9,-1
 6 22 l 1,10,-1
 6 20 l 1,11,-1
 6 18 l 1,12,-1
 6 16 l 1,13,-1
 0 16 l 1,14,-1
 0 20 l 1,15,-1
 0 24 l 1,16,-1
 0 26 l 1,7,-1
12 14 m 1,17,-1
 12 20 l 1,18,-1
 10 20 l 1,19,-1
 10 14 l 1,20,-1
 12 14 l 1,17,-1
4 18 m 1,21,-1
 4 20 l 1,22,-1
 2 20 l 1,23,-1
 2 18 l 1,24,-1
 4 18 l 1,21,-1
4 22 m 1,25,-1
 4 24 l 1,26,-1
 2 24 l 1,27,-1
 2 22 l 1,28,-1
 4 22 l 1,25,-1
EndSplineSet
EndChar

StartChar: uni0081
Encoding: 129 129 100
Width: 16
Flags: W
LayerCount: 2
Fore
SplineSet
10 22 m 1,0,-1
 12 22 l 1,1,-1
 12 20 l 1,2,-1
 12 14 l 1,3,-1
 14 14 l 1,4,-1
 14 12 l 1,5,-1
 8 12 l 1,6,-1
 8 14 l 1,7,-1
 10 14 l 1,8,-1
 10 18 l 1,9,-1
 8 18 l 1,10,-1
 8 20 l 1,11,-1
 10 20 l 1,12,-1
 10 22 l 1,0,-1
0 26 m 1,13,-1
 6 26 l 1,14,-1
 6 24 l 1,15,-1
 6 22 l 1,16,-1
 6 20 l 1,17,-1
 6 18 l 1,18,-1
 6 16 l 1,19,-1
 0 16 l 1,20,-1
 0 20 l 1,21,-1
 0 24 l 1,22,-1
 0 26 l 1,13,-1
4 18 m 1,23,-1
 4 20 l 1,24,-1
 2 20 l 1,25,-1
 2 18 l 1,26,-1
 4 18 l 1,23,-1
4 22 m 1,27,-1
 4 24 l 1,28,-1
 2 24 l 1,29,-1
 2 22 l 1,30,-1
 4 22 l 1,27,-1
EndSplineSet
EndChar

StartChar: uni0082
Encoding: 130 130 101
Width: 16
Flags: W
LayerCount: 2
Fore
SplineSet
8 22 m 1,0,-1
 14 22 l 1,1,-1
 14 20 l 1,2,-1
 14 16 l 1,3,-1
 10 16 l 1,4,-1
 10 14 l 1,5,-1
 14 14 l 1,6,-1
 14 12 l 1,7,-1
 8 12 l 1,8,-1
 8 16 l 1,9,-1
 8 18 l 1,10,-1
 12 18 l 1,11,-1
 12 20 l 1,12,-1
 8 20 l 1,13,-1
 8 22 l 1,0,-1
0 26 m 1,14,-1
 6 26 l 1,15,-1
 6 24 l 1,16,-1
 6 22 l 1,17,-1
 6 20 l 1,18,-1
 6 18 l 1,19,-1
 6 16 l 1,20,-1
 0 16 l 1,21,-1
 0 20 l 1,22,-1
 0 24 l 1,23,-1
 0 26 l 1,14,-1
4 18 m 1,24,-1
 4 20 l 1,25,-1
 2 20 l 1,26,-1
 2 18 l 1,27,-1
 4 18 l 1,24,-1
4 22 m 1,28,-1
 4 24 l 1,29,-1
 2 24 l 1,30,-1
 2 22 l 1,31,-1
 4 22 l 1,28,-1
EndSplineSet
EndChar

StartChar: uni0083
Encoding: 131 131 102
Width: 16
Flags: W
LayerCount: 2
Fore
SplineSet
8 22 m 1,0,-1
 14 22 l 1,1,-1
 14 20 l 1,2,-1
 14 12 l 1,3,-1
 8 12 l 1,4,-1
 8 14 l 1,5,-1
 12 14 l 1,6,-1
 12 16 l 1,7,-1
 8 16 l 1,8,-1
 8 18 l 1,9,-1
 12 18 l 1,10,-1
 12 20 l 1,11,-1
 8 20 l 1,12,-1
 8 22 l 1,0,-1
0 26 m 1,13,-1
 6 26 l 1,14,-1
 6 24 l 1,15,-1
 6 22 l 1,16,-1
 6 20 l 1,17,-1
 6 18 l 1,18,-1
 6 16 l 1,19,-1
 0 16 l 1,20,-1
 0 20 l 1,21,-1
 0 24 l 1,22,-1
 0 26 l 1,13,-1
4 18 m 1,23,-1
 4 20 l 1,24,-1
 2 20 l 1,25,-1
 2 18 l 1,26,-1
 4 18 l 1,23,-1
4 22 m 1,27,-1
 4 24 l 1,28,-1
 2 24 l 1,29,-1
 2 22 l 1,30,-1
 4 22 l 1,27,-1
EndSplineSet
EndChar

StartChar: uni0084
Encoding: 132 132 103
Width: 16
Flags: W
LayerCount: 2
Fore
SplineSet
8 22 m 1,0,-1
 14 22 l 1,1,-1
 14 20 l 1,2,-1
 14 12 l 1,3,-1
 12 12 l 1,4,-1
 12 20 l 1,5,-1
 10 20 l 1,6,-1
 10 12 l 1,7,-1
 8 12 l 1,8,-1
 8 20 l 1,9,-1
 8 22 l 1,0,-1
0 26 m 1,10,-1
 6 26 l 1,11,-1
 6 24 l 1,12,-1
 4 24 l 1,13,-1
 4 18 l 1,14,-1
 6 18 l 1,15,-1
 6 16 l 1,16,-1
 0 16 l 1,17,-1
 0 18 l 1,18,-1
 2 18 l 1,19,-1
 2 24 l 1,20,-1
 0 24 l 1,21,-1
 0 26 l 1,10,-1
EndSplineSet
EndChar

StartChar: uni0085
Encoding: 133 133 104
Width: 16
Flags: W
LayerCount: 2
Fore
SplineSet
8 22 m 1,0,-1
 10 22 l 1,1,-1
 10 14 l 1,2,-1
 14 14 l 1,3,-1
 14 12 l 1,4,-1
 8 12 l 1,5,-1
 8 22 l 1,0,-1
0 26 m 1,6,-1
 6 26 l 1,7,-1
 6 24 l 1,8,-1
 6 16 l 1,9,-1
 4 16 l 1,10,-1
 4 24 l 1,11,-1
 2 24 l 1,12,-1
 2 16 l 1,13,-1
 0 16 l 1,14,-1
 0 24 l 1,15,-1
 0 26 l 1,6,-1
EndSplineSet
EndChar

StartChar: uni0086
Encoding: 134 134 105
Width: 16
Flags: W
LayerCount: 2
Fore
SplineSet
8 22 m 1,0,-1
 14 22 l 1,1,-1
 14 20 l 1,2,-1
 10 20 l 1,3,-1
 10 18 l 1,4,-1
 14 18 l 1,5,-1
 14 12 l 1,6,-1
 8 12 l 1,7,-1
 8 14 l 1,8,-1
 12 14 l 1,9,-1
 12 16 l 1,10,-1
 8 16 l 1,11,-1
 8 20 l 1,12,-1
 8 22 l 1,0,-1
0 26 m 1,13,-1
 6 26 l 1,14,-1
 6 24 l 1,15,-1
 2 24 l 1,16,-1
 2 22 l 1,17,-1
 6 22 l 1,18,-1
 6 16 l 1,19,-1
 0 16 l 1,20,-1
 0 18 l 1,21,-1
 4 18 l 1,22,-1
 4 20 l 1,23,-1
 0 20 l 1,24,-1
 0 24 l 1,25,-1
 0 26 l 1,13,-1
EndSplineSet
EndChar

StartChar: uni0087
Encoding: 135 135 106
Width: 16
Flags: W
LayerCount: 2
Fore
SplineSet
8 22 m 1,0,-1
 14 22 l 1,1,-1
 14 20 l 1,2,-1
 10 20 l 1,3,-1
 10 18 l 1,4,-1
 14 18 l 1,5,-1
 14 12 l 1,6,-1
 8 12 l 1,7,-1
 8 14 l 1,8,-1
 12 14 l 1,9,-1
 12 16 l 1,10,-1
 8 16 l 1,11,-1
 8 20 l 1,12,-1
 8 22 l 1,0,-1
0 26 m 1,13,-1
 6 26 l 1,14,-1
 6 24 l 1,15,-1
 2 24 l 1,16,-1
 2 22 l 1,17,-1
 4 22 l 1,18,-1
 4 20 l 1,19,-1
 2 20 l 1,20,-1
 2 18 l 1,21,-1
 6 18 l 1,22,-1
 6 16 l 1,23,-1
 0 16 l 1,24,-1
 0 20 l 1,25,-1
 0 24 l 1,26,-1
 0 26 l 1,13,-1
EndSplineSet
EndChar

StartChar: uni0088
Encoding: 136 136 107
Width: 16
Flags: W
LayerCount: 2
Fore
SplineSet
8 22 m 1,0,-1
 14 22 l 1,1,-1
 14 20 l 1,2,-1
 10 20 l 1,3,-1
 10 18 l 1,4,-1
 14 18 l 1,5,-1
 14 12 l 1,6,-1
 8 12 l 1,7,-1
 8 14 l 1,8,-1
 12 14 l 1,9,-1
 12 16 l 1,10,-1
 8 16 l 1,11,-1
 8 20 l 1,12,-1
 8 22 l 1,0,-1
4 26 m 1,13,-1
 6 26 l 1,14,-1
 6 22 l 1,15,-1
 6 20 l 1,16,-1
 6 16 l 1,17,-1
 4 16 l 1,18,-1
 4 20 l 1,19,-1
 2 20 l 1,20,-1
 2 16 l 1,21,-1
 0 16 l 1,22,-1
 0 20 l 1,23,-1
 0 26 l 1,24,-1
 2 26 l 1,25,-1
 2 22 l 1,26,-1
 4 22 l 1,27,-1
 4 26 l 1,13,-1
EndSplineSet
EndChar

StartChar: uni0089
Encoding: 137 137 108
Width: 16
Flags: W
LayerCount: 2
Fore
SplineSet
8 16 m 1,0,-1
 10 16 l 1,1,-1
 10 14 l 1,2,-1
 12 14 l 1,3,-1
 12 16 l 1,4,-1
 12 20 l 1,5,-1
 12 22 l 1,6,-1
 14 22 l 1,7,-1
 14 20 l 1,8,-1
 14 16 l 1,9,-1
 14 14 l 1,10,-1
 14 12 l 1,11,-1
 8 12 l 1,12,-1
 8 16 l 1,0,-1
4 26 m 1,13,-1
 6 26 l 1,14,-1
 6 22 l 1,15,-1
 6 20 l 1,16,-1
 6 16 l 1,17,-1
 4 16 l 1,18,-1
 4 20 l 1,19,-1
 2 20 l 1,20,-1
 2 16 l 1,21,-1
 0 16 l 1,22,-1
 0 20 l 1,23,-1
 0 26 l 1,24,-1
 2 26 l 1,25,-1
 2 22 l 1,26,-1
 4 22 l 1,27,-1
 4 26 l 1,13,-1
EndSplineSet
EndChar

StartChar: uni008A
Encoding: 138 138 109
Width: 16
Flags: W
LayerCount: 2
Fore
SplineSet
8 22 m 1,0,-1
 14 22 l 1,1,-1
 14 20 l 1,2,-1
 10 20 l 1,3,-1
 10 18 l 1,4,-1
 14 18 l 1,5,-1
 14 12 l 1,6,-1
 8 12 l 1,7,-1
 8 14 l 1,8,-1
 12 14 l 1,9,-1
 12 16 l 1,10,-1
 8 16 l 1,11,-1
 8 20 l 1,12,-1
 8 22 l 1,0,-1
4 26 m 1,13,-1
 6 26 l 1,14,-1
 6 18 l 1,15,-1
 4 18 l 1,16,-1
 4 26 l 1,13,-1
0 26 m 1,17,-1
 2 26 l 1,18,-1
 2 18 l 1,19,-1
 0 18 l 1,20,-1
 0 26 l 1,17,-1
4 18 m 1,21,-1
 4 16 l 1,22,-1
 2 16 l 1,23,-1
 2 18 l 1,24,-1
 4 18 l 1,21,-1
EndSplineSet
EndChar

StartChar: uni008B
Encoding: 139 139 110
Width: 16
Flags: W
LayerCount: 2
Fore
SplineSet
8 22 m 1,0,-1
 12 22 l 1,1,-1
 12 20 l 1,2,-1
 14 20 l 1,3,-1
 14 14 l 1,4,-1
 12 14 l 1,5,-1
 12 20 l 1,6,-1
 10 20 l 1,7,-1
 10 14 l 1,8,-1
 12 14 l 1,9,-1
 12 12 l 1,10,-1
 8 12 l 1,11,-1
 8 20 l 1,12,-1
 8 22 l 1,0,-1
0 26 m 1,13,-1
 6 26 l 1,14,-1
 6 24 l 1,15,-1
 6 22 l 1,16,-1
 6 20 l 1,17,-1
 2 20 l 1,18,-1
 2 16 l 1,19,-1
 0 16 l 1,20,-1
 0 20 l 1,21,-1
 0 24 l 1,22,-1
 0 26 l 1,13,-1
4 22 m 1,23,-1
 4 24 l 1,24,-1
 2 24 l 1,25,-1
 2 22 l 1,26,-1
 4 22 l 1,23,-1
EndSplineSet
EndChar

StartChar: uni008C
Encoding: 140 140 111
Width: 16
Flags: W
LayerCount: 2
Fore
SplineSet
12 22 m 1,0,-1
 14 22 l 1,1,-1
 14 20 l 1,2,-1
 14 14 l 1,3,-1
 14 12 l 1,4,-1
 8 12 l 1,5,-1
 8 20 l 1,6,-1
 8 22 l 1,7,-1
 10 22 l 1,8,-1
 10 20 l 1,9,-1
 10 14 l 1,10,-1
 12 14 l 1,11,-1
 12 20 l 1,12,-1
 12 22 l 1,0,-1
0 26 m 1,13,-1
 6 26 l 1,14,-1
 6 24 l 1,15,-1
 6 22 l 1,16,-1
 6 20 l 1,17,-1
 2 20 l 1,18,-1
 2 16 l 1,19,-1
 0 16 l 1,20,-1
 0 20 l 1,21,-1
 0 24 l 1,22,-1
 0 26 l 1,13,-1
4 22 m 1,23,-1
 4 24 l 1,24,-1
 2 24 l 1,25,-1
 2 22 l 1,26,-1
 4 22 l 1,23,-1
EndSplineSet
EndChar

StartChar: uni008D
Encoding: 141 141 112
Width: 16
Flags: W
LayerCount: 2
Fore
SplineSet
8 22 m 1,0,-1
 14 22 l 1,1,-1
 14 20 l 1,2,-1
 12 20 l 1,3,-1
 12 14 l 1,4,-1
 14 14 l 1,5,-1
 14 12 l 1,6,-1
 8 12 l 1,7,-1
 8 14 l 1,8,-1
 10 14 l 1,9,-1
 10 20 l 1,10,-1
 8 20 l 1,11,-1
 8 22 l 1,0,-1
0 26 m 1,12,-1
 4 26 l 1,13,-1
 4 24 l 1,14,-1
 6 24 l 1,15,-1
 6 22 l 1,16,-1
 4 22 l 1,17,-1
 4 24 l 1,18,-1
 2 24 l 1,19,-1
 2 22 l 1,20,-1
 4 22 l 1,21,-1
 4 20 l 1,22,-1
 6 20 l 1,23,-1
 6 16 l 1,24,-1
 4 16 l 1,25,-1
 4 20 l 1,26,-1
 2 20 l 1,27,-1
 2 16 l 1,28,-1
 0 16 l 1,29,-1
 0 20 l 1,30,-1
 0 24 l 1,31,-1
 0 26 l 1,12,-1
EndSplineSet
EndChar

StartChar: uni008E
Encoding: 142 142 113
Width: 16
Flags: W
LayerCount: 2
Fore
SplineSet
8 22 m 1,0,-1
 14 22 l 1,1,-1
 14 16 l 1,2,-1
 10 16 l 1,3,-1
 10 14 l 1,4,-1
 14 14 l 1,5,-1
 14 12 l 1,6,-1
 8 12 l 1,7,-1
 8 16 l 1,8,-1
 8 18 l 1,9,-1
 12 18 l 1,10,-1
 12 20 l 1,11,-1
 8 20 l 1,12,-1
 8 22 l 1,0,-1
0 26 m 1,13,-1
 6 26 l 1,14,-1
 6 24 l 1,15,-1
 2 24 l 1,16,-1
 2 22 l 1,17,-1
 6 22 l 1,18,-1
 6 16 l 1,19,-1
 0 16 l 1,20,-1
 0 18 l 1,21,-1
 4 18 l 1,22,-1
 4 20 l 1,23,-1
 0 20 l 1,24,-1
 0 24 l 1,25,-1
 0 26 l 1,13,-1
EndSplineSet
EndChar

StartChar: uni008F
Encoding: 143 143 114
Width: 16
Flags: W
LayerCount: 2
Fore
SplineSet
8 22 m 1,0,-1
 14 22 l 1,1,-1
 14 12 l 1,2,-1
 8 12 l 1,3,-1
 8 14 l 1,4,-1
 12 14 l 1,5,-1
 12 16 l 1,6,-1
 10 16 l 1,7,-1
 10 18 l 1,8,-1
 12 18 l 1,9,-1
 12 20 l 1,10,-1
 8 20 l 1,11,-1
 8 22 l 1,0,-1
0 26 m 1,12,-1
 6 26 l 1,13,-1
 6 24 l 1,14,-1
 2 24 l 1,15,-1
 2 22 l 1,16,-1
 6 22 l 1,17,-1
 6 16 l 1,18,-1
 0 16 l 1,19,-1
 0 18 l 1,20,-1
 4 18 l 1,21,-1
 4 20 l 1,22,-1
 0 20 l 1,23,-1
 0 24 l 1,24,-1
 0 26 l 1,12,-1
EndSplineSet
EndChar

StartChar: uni0090
Encoding: 144 144 115
Width: 16
Flags: W
LayerCount: 2
Fore
SplineSet
8 22 m 1,0,-1
 14 22 l 1,1,-1
 14 20 l 1,2,-1
 10 20 l 1,3,-1
 10 14 l 1,4,-1
 14 14 l 1,5,-1
 14 12 l 1,6,-1
 8 12 l 1,7,-1
 8 20 l 1,8,-1
 8 22 l 1,0,-1
0 26 m 1,9,-1
 4 26 l 1,10,-1
 4 24 l 1,11,-1
 6 24 l 1,12,-1
 6 18 l 1,13,-1
 4 18 l 1,14,-1
 4 24 l 1,15,-1
 2 24 l 1,16,-1
 2 18 l 1,17,-1
 4 18 l 1,18,-1
 4 16 l 1,19,-1
 0 16 l 1,20,-1
 0 24 l 1,21,-1
 0 26 l 1,9,-1
EndSplineSet
EndChar

StartChar: uni0091
Encoding: 145 145 116
Width: 16
Flags: W
LayerCount: 2
Fore
SplineSet
10 22 m 1,0,-1
 12 22 l 1,1,-1
 12 20 l 1,2,-1
 12 14 l 1,3,-1
 14 14 l 1,4,-1
 14 12 l 1,5,-1
 8 12 l 1,6,-1
 8 14 l 1,7,-1
 10 14 l 1,8,-1
 10 18 l 1,9,-1
 8 18 l 1,10,-1
 8 20 l 1,11,-1
 10 20 l 1,12,-1
 10 22 l 1,0,-1
0 26 m 1,13,-1
 6 26 l 1,14,-1
 6 24 l 1,15,-1
 6 22 l 1,16,-1
 6 20 l 1,17,-1
 2 20 l 1,18,-1
 2 16 l 1,19,-1
 0 16 l 1,20,-1
 0 20 l 1,21,-1
 0 24 l 1,22,-1
 0 26 l 1,13,-1
4 22 m 1,23,-1
 4 24 l 1,24,-1
 2 24 l 1,25,-1
 2 22 l 1,26,-1
 4 22 l 1,23,-1
EndSplineSet
EndChar

StartChar: uni0092
Encoding: 146 146 117
Width: 16
Flags: W
LayerCount: 2
Fore
SplineSet
8 22 m 1,0,-1
 14 22 l 1,1,-1
 14 20 l 1,2,-1
 14 16 l 1,3,-1
 10 16 l 1,4,-1
 10 14 l 1,5,-1
 14 14 l 1,6,-1
 14 12 l 1,7,-1
 8 12 l 1,8,-1
 8 16 l 1,9,-1
 8 18 l 1,10,-1
 12 18 l 1,11,-1
 12 20 l 1,12,-1
 8 20 l 1,13,-1
 8 22 l 1,0,-1
0 26 m 1,14,-1
 6 26 l 1,15,-1
 6 24 l 1,16,-1
 6 22 l 1,17,-1
 6 20 l 1,18,-1
 2 20 l 1,19,-1
 2 16 l 1,20,-1
 0 16 l 1,21,-1
 0 20 l 1,22,-1
 0 24 l 1,23,-1
 0 26 l 1,14,-1
4 22 m 1,24,-1
 4 24 l 1,25,-1
 2 24 l 1,26,-1
 2 22 l 1,27,-1
 4 22 l 1,24,-1
EndSplineSet
EndChar

StartChar: uni0093
Encoding: 147 147 118
Width: 16
Flags: W
LayerCount: 2
Fore
SplineSet
8 22 m 1,0,-1
 14 22 l 1,1,-1
 14 20 l 1,2,-1
 10 20 l 1,3,-1
 10 18 l 1,4,-1
 12 18 l 1,5,-1
 12 16 l 1,6,-1
 10 16 l 1,7,-1
 10 14 l 1,8,-1
 14 14 l 1,9,-1
 14 12 l 1,10,-1
 8 12 l 1,11,-1
 8 16 l 1,12,-1
 8 20 l 1,13,-1
 8 22 l 1,0,-1
0 26 m 1,14,-1
 6 26 l 1,15,-1
 6 24 l 1,16,-1
 2 24 l 1,17,-1
 2 22 l 1,18,-1
 6 22 l 1,19,-1
 6 16 l 1,20,-1
 0 16 l 1,21,-1
 0 18 l 1,22,-1
 4 18 l 1,23,-1
 4 20 l 1,24,-1
 0 20 l 1,25,-1
 0 24 l 1,26,-1
 0 26 l 1,14,-1
EndSplineSet
EndChar

StartChar: uni0094
Encoding: 148 148 119
Width: 16
Flags: W
LayerCount: 2
Fore
SplineSet
8 22 m 1,0,-1
 14 22 l 1,1,-1
 14 20 l 1,2,-1
 10 20 l 1,3,-1
 10 14 l 1,4,-1
 14 14 l 1,5,-1
 14 12 l 1,6,-1
 8 12 l 1,7,-1
 8 20 l 1,8,-1
 8 22 l 1,0,-1
0 26 m 1,9,-1
 6 26 l 1,10,-1
 6 24 l 1,11,-1
 2 24 l 1,12,-1
 2 18 l 1,13,-1
 6 18 l 1,14,-1
 6 16 l 1,15,-1
 0 16 l 1,16,-1
 0 24 l 1,17,-1
 0 26 l 1,9,-1
EndSplineSet
EndChar

StartChar: uni0095
Encoding: 149 149 120
Width: 16
Flags: W
LayerCount: 2
Fore
SplineSet
12 22 m 1,0,-1
 14 22 l 1,1,-1
 14 20 l 1,2,-1
 14 18 l 1,3,-1
 14 14 l 1,4,-1
 14 12 l 1,5,-1
 12 12 l 1,6,-1
 12 14 l 1,7,-1
 10 14 l 1,8,-1
 10 12 l 1,9,-1
 8 12 l 1,10,-1
 8 14 l 1,11,-1
 8 20 l 1,12,-1
 8 22 l 1,13,-1
 10 22 l 1,14,-1
 10 20 l 1,15,-1
 10 18 l 1,16,-1
 12 18 l 1,17,-1
 12 20 l 1,18,-1
 12 22 l 1,0,-1
4 26 m 1,19,-1
 6 26 l 1,20,-1
 6 24 l 1,21,-1
 6 20 l 1,22,-1
 6 16 l 1,23,-1
 4 16 l 1,24,-1
 4 20 l 1,25,-1
 2 20 l 1,26,-1
 2 16 l 1,27,-1
 0 16 l 1,28,-1
 0 20 l 1,29,-1
 0 26 l 1,30,-1
 2 26 l 1,31,-1
 2 24 l 1,32,-1
 4 24 l 1,33,-1
 4 26 l 1,19,-1
EndSplineSet
EndChar

StartChar: uni0096
Encoding: 150 150 121
Width: 16
Flags: W
LayerCount: 2
Fore
SplineSet
8 22 m 1,0,-1
 14 22 l 1,1,-1
 14 20 l 1,2,-1
 14 18 l 1,3,-1
 14 16 l 1,4,-1
 10 16 l 1,5,-1
 10 12 l 1,6,-1
 8 12 l 1,7,-1
 8 16 l 1,8,-1
 8 20 l 1,9,-1
 8 22 l 1,0,-1
0 26 m 1,10,-1
 6 26 l 1,11,-1
 6 24 l 1,12,-1
 2 24 l 1,13,-1
 2 22 l 1,14,-1
 6 22 l 1,15,-1
 6 16 l 1,16,-1
 0 16 l 1,17,-1
 0 18 l 1,18,-1
 4 18 l 1,19,-1
 4 20 l 1,20,-1
 0 20 l 1,21,-1
 0 24 l 1,22,-1
 0 26 l 1,10,-1
12 18 m 1,23,-1
 12 20 l 1,24,-1
 10 20 l 1,25,-1
 10 18 l 1,26,-1
 12 18 l 1,23,-1
EndSplineSet
EndChar

StartChar: uni0097
Encoding: 151 151 122
Width: 16
Flags: W
LayerCount: 2
Fore
SplineSet
8 22 m 1,0,-1
 14 22 l 1,1,-1
 14 20 l 1,2,-1
 14 18 l 1,3,-1
 14 16 l 1,4,-1
 10 16 l 1,5,-1
 10 12 l 1,6,-1
 8 12 l 1,7,-1
 8 16 l 1,8,-1
 8 20 l 1,9,-1
 8 22 l 1,0,-1
0 26 m 1,10,-1
 6 26 l 1,11,-1
 6 24 l 1,12,-1
 2 24 l 1,13,-1
 2 22 l 1,14,-1
 4 22 l 1,15,-1
 4 20 l 1,16,-1
 2 20 l 1,17,-1
 2 18 l 1,18,-1
 6 18 l 1,19,-1
 6 16 l 1,20,-1
 0 16 l 1,21,-1
 0 20 l 1,22,-1
 0 24 l 1,23,-1
 0 26 l 1,10,-1
12 18 m 1,24,-1
 12 20 l 1,25,-1
 10 20 l 1,26,-1
 10 18 l 1,27,-1
 12 18 l 1,24,-1
EndSplineSet
EndChar

StartChar: uni0098
Encoding: 152 152 123
Width: 16
Flags: W
LayerCount: 2
Fore
SplineSet
8 22 m 1,0,-1
 14 22 l 1,1,-1
 14 20 l 1,2,-1
 14 18 l 1,3,-1
 14 16 l 1,4,-1
 14 14 l 1,5,-1
 14 12 l 1,6,-1
 8 12 l 1,7,-1
 8 16 l 1,8,-1
 8 20 l 1,9,-1
 8 22 l 1,0,-1
0 26 m 1,10,-1
 6 26 l 1,11,-1
 6 24 l 1,12,-1
 6 22 l 1,13,-1
 6 16 l 1,14,-1
 0 16 l 1,15,-1
 0 18 l 1,16,-1
 4 18 l 1,17,-1
 4 20 l 1,18,-1
 0 20 l 1,19,-1
 0 24 l 1,20,-1
 0 26 l 1,10,-1
12 14 m 1,21,-1
 12 16 l 1,22,-1
 10 16 l 1,23,-1
 10 14 l 1,24,-1
 12 14 l 1,21,-1
12 18 m 1,25,-1
 12 20 l 1,26,-1
 10 20 l 1,27,-1
 10 18 l 1,28,-1
 12 18 l 1,25,-1
4 22 m 1,29,-1
 4 24 l 1,30,-1
 2 24 l 1,31,-1
 2 22 l 1,32,-1
 4 22 l 1,29,-1
EndSplineSet
EndChar

StartChar: uni0099
Encoding: 153 153 124
Width: 16
Flags: W
LayerCount: 2
Fore
SplineSet
8 22 m 1,0,-1
 14 22 l 1,1,-1
 14 20 l 1,2,-1
 14 18 l 1,3,-1
 14 12 l 1,4,-1
 8 12 l 1,5,-1
 8 14 l 1,6,-1
 12 14 l 1,7,-1
 12 16 l 1,8,-1
 8 16 l 1,9,-1
 8 20 l 1,10,-1
 8 22 l 1,0,-1
0 26 m 1,11,-1
 6 26 l 1,12,-1
 6 24 l 1,13,-1
 6 22 l 1,14,-1
 6 16 l 1,15,-1
 0 16 l 1,16,-1
 0 18 l 1,17,-1
 4 18 l 1,18,-1
 4 20 l 1,19,-1
 0 20 l 1,20,-1
 0 24 l 1,21,-1
 0 26 l 1,11,-1
12 18 m 1,22,-1
 12 20 l 1,23,-1
 10 20 l 1,24,-1
 10 18 l 1,25,-1
 12 18 l 1,22,-1
4 22 m 1,26,-1
 4 24 l 1,27,-1
 2 24 l 1,28,-1
 2 22 l 1,29,-1
 4 22 l 1,26,-1
EndSplineSet
EndChar

StartChar: uni009A
Encoding: 154 154 125
Width: 16
Flags: W
LayerCount: 2
Fore
SplineSet
8 22 m 1,0,-1
 14 22 l 1,1,-1
 14 20 l 1,2,-1
 14 18 l 1,3,-1
 14 16 l 1,4,-1
 14 12 l 1,5,-1
 12 12 l 1,6,-1
 12 16 l 1,7,-1
 10 16 l 1,8,-1
 10 12 l 1,9,-1
 8 12 l 1,10,-1
 8 16 l 1,11,-1
 8 20 l 1,12,-1
 8 22 l 1,0,-1
0 26 m 1,13,-1
 6 26 l 1,14,-1
 6 24 l 1,15,-1
 6 22 l 1,16,-1
 6 16 l 1,17,-1
 0 16 l 1,18,-1
 0 18 l 1,19,-1
 4 18 l 1,20,-1
 4 20 l 1,21,-1
 0 20 l 1,22,-1
 0 24 l 1,23,-1
 0 26 l 1,13,-1
12 18 m 1,24,-1
 12 20 l 1,25,-1
 10 20 l 1,26,-1
 10 18 l 1,27,-1
 12 18 l 1,24,-1
4 22 m 1,28,-1
 4 24 l 1,29,-1
 2 24 l 1,30,-1
 2 22 l 1,31,-1
 4 22 l 1,28,-1
EndSplineSet
EndChar

StartChar: uni009B
Encoding: 155 155 126
Width: 16
Flags: W
LayerCount: 2
Fore
SplineSet
8 22 m 1,0,-1
 14 22 l 1,1,-1
 14 20 l 1,2,-1
 10 20 l 1,3,-1
 10 18 l 1,4,-1
 14 18 l 1,5,-1
 14 12 l 1,6,-1
 8 12 l 1,7,-1
 8 14 l 1,8,-1
 12 14 l 1,9,-1
 12 16 l 1,10,-1
 8 16 l 1,11,-1
 8 20 l 1,12,-1
 8 22 l 1,0,-1
0 26 m 1,13,-1
 6 26 l 1,14,-1
 6 24 l 1,15,-1
 2 24 l 1,16,-1
 2 18 l 1,17,-1
 6 18 l 1,18,-1
 6 16 l 1,19,-1
 0 16 l 1,20,-1
 0 24 l 1,21,-1
 0 26 l 1,13,-1
EndSplineSet
EndChar

StartChar: uni009C
Encoding: 156 156 127
Width: 16
Flags: W
LayerCount: 2
Fore
SplineSet
8 22 m 1,0,-1
 14 22 l 1,1,-1
 14 20 l 1,2,-1
 12 20 l 1,3,-1
 12 12 l 1,4,-1
 10 12 l 1,5,-1
 10 20 l 1,6,-1
 8 20 l 1,7,-1
 8 22 l 1,0,-1
0 26 m 1,8,-1
 6 26 l 1,9,-1
 6 24 l 1,10,-1
 2 24 l 1,11,-1
 2 22 l 1,12,-1
 6 22 l 1,13,-1
 6 16 l 1,14,-1
 0 16 l 1,15,-1
 0 18 l 1,16,-1
 4 18 l 1,17,-1
 4 20 l 1,18,-1
 0 20 l 1,19,-1
 0 24 l 1,20,-1
 0 26 l 1,8,-1
EndSplineSet
EndChar

StartChar: uni009D
Encoding: 157 157 128
Width: 16
Flags: W
LayerCount: 2
Fore
SplineSet
8 22 m 1,0,-1
 14 22 l 1,1,-1
 14 20 l 1,2,-1
 10 20 l 1,3,-1
 10 18 l 1,4,-1
 14 18 l 1,5,-1
 14 12 l 1,6,-1
 8 12 l 1,7,-1
 8 14 l 1,8,-1
 12 14 l 1,9,-1
 12 16 l 1,10,-1
 8 16 l 1,11,-1
 8 20 l 1,12,-1
 8 22 l 1,0,-1
0 26 m 1,13,-1
 6 26 l 1,14,-1
 6 24 l 1,15,-1
 6 18 l 1,16,-1
 6 16 l 1,17,-1
 0 16 l 1,18,-1
 0 24 l 1,19,-1
 0 26 l 1,13,-1
4 18 m 1,20,-1
 4 24 l 1,21,-1
 2 24 l 1,22,-1
 2 18 l 1,23,-1
 4 18 l 1,20,-1
EndSplineSet
EndChar

StartChar: uni009E
Encoding: 158 158 129
Width: 16
Flags: W
LayerCount: 2
Fore
SplineSet
12 22 m 1,0,-1
 14 22 l 1,1,-1
 14 20 l 1,2,-1
 14 16 l 1,3,-1
 14 12 l 1,4,-1
 12 12 l 1,5,-1
 12 16 l 1,6,-1
 10 16 l 1,7,-1
 10 12 l 1,8,-1
 8 12 l 1,9,-1
 8 16 l 1,10,-1
 8 20 l 1,11,-1
 8 22 l 1,12,-1
 10 22 l 1,13,-1
 10 20 l 1,14,-1
 12 20 l 1,15,-1
 12 22 l 1,0,-1
0 26 m 1,16,-1
 6 26 l 1,17,-1
 6 24 l 1,18,-1
 6 22 l 1,19,-1
 6 20 l 1,20,-1
 2 20 l 1,21,-1
 2 16 l 1,22,-1
 0 16 l 1,23,-1
 0 20 l 1,24,-1
 0 24 l 1,25,-1
 0 26 l 1,16,-1
4 22 m 1,26,-1
 4 24 l 1,27,-1
 2 24 l 1,28,-1
 2 22 l 1,29,-1
 4 22 l 1,26,-1
EndSplineSet
EndChar

StartChar: uni009F
Encoding: 159 159 130
Width: 16
Flags: W
LayerCount: 2
Fore
SplineSet
8 22 m 1,0,-1
 14 22 l 1,1,-1
 14 20 l 1,2,-1
 14 18 l 1,3,-1
 14 16 l 1,4,-1
 10 16 l 1,5,-1
 10 12 l 1,6,-1
 8 12 l 1,7,-1
 8 16 l 1,8,-1
 8 20 l 1,9,-1
 8 22 l 1,0,-1
0 26 m 1,10,-1
 6 26 l 1,11,-1
 6 24 l 1,12,-1
 6 22 l 1,13,-1
 6 20 l 1,14,-1
 6 16 l 1,15,-1
 4 16 l 1,16,-1
 4 20 l 1,17,-1
 2 20 l 1,18,-1
 2 16 l 1,19,-1
 0 16 l 1,20,-1
 0 20 l 1,21,-1
 0 24 l 1,22,-1
 0 26 l 1,10,-1
12 18 m 1,23,-1
 12 20 l 1,24,-1
 10 20 l 1,25,-1
 10 18 l 1,26,-1
 12 18 l 1,23,-1
4 22 m 1,27,-1
 4 24 l 1,28,-1
 2 24 l 1,29,-1
 2 22 l 1,30,-1
 4 22 l 1,27,-1
EndSplineSet
EndChar

StartChar: uni00A0
Encoding: 160 160 131
Width: 16
Flags: W
LayerCount: 2
Fore
SplineSet
0 26 m 1024,0,-1
EndSplineSet
EndChar

StartChar: exclamdown
Encoding: 161 161 132
Width: 16
Flags: W
LayerCount: 2
Fore
SplineSet
6 22 m 1,0,-1
 10 22 l 1,1,-1
 10 12 l 1,2,-1
 6 12 l 1,3,-1
 6 22 l 1,0,-1
6 26 m 1,4,-1
 10 26 l 1,5,-1
 10 24 l 1,6,-1
 6 24 l 1,7,-1
 6 26 l 1,4,-1
EndSplineSet
EndChar

StartChar: cent
Encoding: 162 162 133
Width: 16
Flags: W
LayerCount: 2
Fore
SplineSet
6 24 m 1,0,-1
 10 24 l 1,1,-1
 10 22 l 1,2,-1
 14 22 l 1,3,-1
 14 20 l 1,4,-1
 10 20 l 1,5,-1
 10 16 l 1,6,-1
 14 16 l 1,7,-1
 14 14 l 1,8,-1
 10 14 l 1,9,-1
 10 12 l 1,10,-1
 6 12 l 1,11,-1
 6 14 l 1,12,-1
 2 14 l 1,13,-1
 2 16 l 1,14,-1
 0 16 l 1,15,-1
 0 20 l 1,16,-1
 2 20 l 1,17,-1
 2 22 l 1,18,-1
 6 22 l 1,19,-1
 6 24 l 1,0,-1
6 16 m 1,20,-1
 6 20 l 1,21,-1
 4 20 l 1,22,-1
 4 16 l 1,23,-1
 6 16 l 1,20,-1
EndSplineSet
EndChar

StartChar: sterling
Encoding: 163 163 134
Width: 16
Flags: W
LayerCount: 2
Fore
SplineSet
10 16 m 1,0,-1
 14 16 l 1,1,-1
 14 14 l 1,2,-1
 12 14 l 1,3,-1
 12 12 l 1,4,-1
 0 12 l 1,5,-1
 0 14 l 1,6,-1
 2 14 l 1,7,-1
 2 18 l 1,8,-1
 0 18 l 1,9,-1
 0 20 l 1,10,-1
 2 20 l 1,11,-1
 2 24 l 1,12,-1
 4 24 l 1,13,-1
 4 26 l 1,14,-1
 10 26 l 1,15,-1
 10 24 l 1,16,-1
 12 24 l 1,17,-1
 12 22 l 1,18,-1
 8 22 l 1,19,-1
 8 24 l 1,20,-1
 6 24 l 1,21,-1
 6 20 l 1,22,-1
 8 20 l 1,23,-1
 8 18 l 1,24,-1
 6 18 l 1,25,-1
 6 14 l 1,26,-1
 10 14 l 1,27,-1
 10 16 l 1,0,-1
EndSplineSet
EndChar

StartChar: currency
Encoding: 164 164 135
Width: 16
Flags: W
LayerCount: 2
Fore
SplineSet
10 26 m 1,0,-1
 14 26 l 1,1,-1
 14 24 l 1,2,-1
 12 24 l 1,3,-1
 12 22 l 1,4,-1
 14 22 l 1,5,-1
 14 20 l 1,6,-1
 12 20 l 1,7,-1
 12 18 l 1,8,-1
 14 18 l 1,9,-1
 14 16 l 1,10,-1
 10 16 l 1,11,-1
 10 18 l 1,12,-1
 6 18 l 1,13,-1
 6 16 l 1,14,-1
 2 16 l 1,15,-1
 2 18 l 1,16,-1
 4 18 l 1,17,-1
 4 20 l 1,18,-1
 2 20 l 1,19,-1
 2 22 l 1,20,-1
 4 22 l 1,21,-1
 4 24 l 1,22,-1
 2 24 l 1,23,-1
 2 26 l 1,24,-1
 6 26 l 1,25,-1
 6 24 l 1,26,-1
 10 24 l 1,27,-1
 10 26 l 1,0,-1
10 20 m 1,28,-1
 10 22 l 1,29,-1
 6 22 l 1,30,-1
 6 20 l 1,31,-1
 10 20 l 1,28,-1
EndSplineSet
EndChar

StartChar: yen
Encoding: 165 165 136
Width: 16
Flags: W
LayerCount: 2
Fore
SplineSet
12 26 m 1,0,-1
 16 26 l 1,1,-1
 16 24 l 1,2,-1
 14 24 l 1,3,-1
 14 22 l 1,4,-1
 12 22 l 1,5,-1
 12 20 l 1,6,-1
 10 20 l 1,7,-1
 10 18 l 1,8,-1
 12 18 l 1,9,-1
 12 16 l 1,10,-1
 10 16 l 1,11,-1
 10 12 l 1,12,-1
 6 12 l 1,13,-1
 6 16 l 1,14,-1
 4 16 l 1,15,-1
 4 18 l 1,16,-1
 6 18 l 1,17,-1
 6 20 l 1,18,-1
 4 20 l 1,19,-1
 4 22 l 1,20,-1
 2 22 l 1,21,-1
 2 24 l 1,22,-1
 0 24 l 1,23,-1
 0 26 l 1,24,-1
 4 26 l 1,25,-1
 4 24 l 1,26,-1
 6 24 l 1,27,-1
 6 22 l 1,28,-1
 10 22 l 1,29,-1
 10 24 l 1,30,-1
 12 24 l 1,31,-1
 12 26 l 1,0,-1
EndSplineSet
EndChar

StartChar: brokenbar
Encoding: 166 166 137
Width: 16
Flags: W
LayerCount: 2
Fore
SplineSet
6 18 m 1,0,-1
 10 18 l 1,1,-1
 10 12 l 1,2,-1
 6 12 l 1,3,-1
 6 18 l 1,0,-1
6 26 m 1,4,-1
 10 26 l 1,5,-1
 10 20 l 1,6,-1
 6 20 l 1,7,-1
 6 26 l 1,4,-1
EndSplineSet
EndChar

StartChar: section
Encoding: 167 167 138
Width: 16
Flags: W
LayerCount: 2
Fore
SplineSet
4 26 m 1,0,-1
 12 26 l 1,1,-1
 12 24 l 1,2,-1
 6 24 l 1,3,-1
 6 22 l 1,4,-1
 12 22 l 1,5,-1
 12 20 l 1,6,-1
 14 20 l 1,7,-1
 14 16 l 1,8,-1
 12 16 l 1,9,-1
 12 14 l 1,10,-1
 14 14 l 1,11,-1
 14 12 l 1,12,-1
 12 12 l 1,13,-1
 12 10 l 1,14,-1
 4 10 l 1,15,-1
 4 12 l 1,16,-1
 10 12 l 1,17,-1
 10 14 l 1,18,-1
 4 14 l 1,19,-1
 4 16 l 1,20,-1
 2 16 l 1,21,-1
 2 20 l 1,22,-1
 4 20 l 1,23,-1
 4 22 l 1,24,-1
 2 22 l 1,25,-1
 2 24 l 1,26,-1
 4 24 l 1,27,-1
 4 26 l 1,0,-1
10 16 m 1,28,-1
 10 20 l 1,29,-1
 6 20 l 1,30,-1
 6 16 l 1,31,-1
 10 16 l 1,28,-1
EndSplineSet
EndChar

StartChar: dieresis
Encoding: 168 168 139
Width: 16
Flags: W
LayerCount: 2
Fore
SplineSet
10 26 m 1,0,-1
 14 26 l 1,1,-1
 14 24 l 1,2,-1
 10 24 l 1,3,-1
 10 26 l 1,0,-1
2 26 m 1,4,-1
 6 26 l 1,5,-1
 6 24 l 1,6,-1
 2 24 l 1,7,-1
 2 26 l 1,4,-1
EndSplineSet
EndChar

StartChar: copyright
Encoding: 169 169 140
Width: 16
Flags: W
LayerCount: 2
Fore
SplineSet
6 22 m 1,0,-1
 12 22 l 1,1,-1
 12 20 l 1,2,-1
 8 20 l 1,3,-1
 8 16 l 1,4,-1
 12 16 l 1,5,-1
 12 14 l 1,6,-1
 6 14 l 1,7,-1
 6 16 l 1,8,-1
 4 16 l 1,9,-1
 4 20 l 1,10,-1
 6 20 l 1,11,-1
 6 22 l 1,0,-1
2 26 m 1,12,-1
 14 26 l 1,13,-1
 14 24 l 1,14,-1
 16 24 l 1,15,-1
 16 22 l 1,16,-1
 16 20 l 1,17,-1
 16 12 l 1,18,-1
 14 12 l 1,19,-1
 14 20 l 1,20,-1
 14 22 l 1,21,-1
 14 24 l 1,22,-1
 2 24 l 1,23,-1
 2 12 l 1,24,-1
 0 12 l 1,25,-1
 0 24 l 1,26,-1
 2 24 l 1,27,-1
 2 26 l 1,12,-1
14 12 m 1,28,-1
 14 10 l 1,29,-1
 2 10 l 1,30,-1
 2 12 l 1,31,-1
 14 12 l 1,28,-1
EndSplineSet
EndChar

StartChar: ordfeminine
Encoding: 170 170 141
Width: 16
Flags: W
LayerCount: 2
Fore
SplineSet
2 16 m 1,0,-1
 14 16 l 1,1,-1
 14 14 l 1,2,-1
 2 14 l 1,3,-1
 2 16 l 1,0,-1
4 26 m 1,4,-1
 12 26 l 1,5,-1
 12 24 l 1,6,-1
 12 20 l 1,7,-1
 14 20 l 1,8,-1
 14 18 l 1,9,-1
 4 18 l 1,10,-1
 4 20 l 1,11,-1
 2 20 l 1,12,-1
 2 24 l 1,13,-1
 4 24 l 1,14,-1
 4 26 l 1,4,-1
8 20 m 1,15,-1
 8 24 l 1,16,-1
 6 24 l 1,17,-1
 6 20 l 1,18,-1
 8 20 l 1,15,-1
EndSplineSet
EndChar

StartChar: guillemotleft
Encoding: 171 171 142
Width: 16
Flags: W
LayerCount: 2
Fore
SplineSet
12 24 m 1,0,-1
 16 24 l 1,1,-1
 16 22 l 1,2,-1
 14 22 l 1,3,-1
 14 20 l 1,4,-1
 12 20 l 1,5,-1
 12 18 l 1,6,-1
 14 18 l 1,7,-1
 14 16 l 1,8,-1
 16 16 l 1,9,-1
 16 14 l 1,10,-1
 12 14 l 1,11,-1
 12 16 l 1,12,-1
 10 16 l 1,13,-1
 10 18 l 1,14,-1
 8 18 l 1,15,-1
 8 20 l 1,16,-1
 10 20 l 1,17,-1
 10 22 l 1,18,-1
 12 22 l 1,19,-1
 12 24 l 1,0,-1
4 24 m 1,20,-1
 8 24 l 1,21,-1
 8 22 l 1,22,-1
 6 22 l 1,23,-1
 6 20 l 1,24,-1
 4 20 l 1,25,-1
 4 18 l 1,26,-1
 6 18 l 1,27,-1
 6 16 l 1,28,-1
 8 16 l 1,29,-1
 8 14 l 1,30,-1
 4 14 l 1,31,-1
 4 16 l 1,32,-1
 2 16 l 1,33,-1
 2 18 l 1,34,-1
 0 18 l 1,35,-1
 0 20 l 1,36,-1
 2 20 l 1,37,-1
 2 22 l 1,38,-1
 4 22 l 1,39,-1
 4 24 l 1,20,-1
EndSplineSet
EndChar

StartChar: logicalnot
Encoding: 172 172 143
Width: 16
Flags: W
LayerCount: 2
Fore
SplineSet
2 24 m 1,0,-1
 14 24 l 1,1,-1
 14 18 l 1,2,-1
 10 18 l 1,3,-1
 10 22 l 1,4,-1
 2 22 l 1,5,-1
 2 24 l 1,0,-1
EndSplineSet
EndChar

StartChar: uni00AD
Encoding: 173 173 144
Width: 16
Flags: W
LayerCount: 2
Fore
SplineSet
4 20 m 1,0,-1
 12 20 l 1,1,-1
 12 18 l 1,2,-1
 4 18 l 1,3,-1
 4 20 l 1,0,-1
EndSplineSet
EndChar

StartChar: registered
Encoding: 174 174 145
Width: 16
Flags: W
LayerCount: 2
Fore
SplineSet
4 22 m 1,0,-1
 10 22 l 1,1,-1
 10 20 l 1,2,-1
 12 20 l 1,3,-1
 12 18 l 1,4,-1
 10 18 l 1,5,-1
 10 20 l 1,6,-1
 6 20 l 1,7,-1
 6 18 l 1,8,-1
 10 18 l 1,9,-1
 10 16 l 1,10,-1
 12 16 l 1,11,-1
 12 14 l 1,12,-1
 10 14 l 1,13,-1
 10 16 l 1,14,-1
 6 16 l 1,15,-1
 6 14 l 1,16,-1
 4 14 l 1,17,-1
 4 16 l 1,18,-1
 4 20 l 1,19,-1
 4 22 l 1,0,-1
2 26 m 1,20,-1
 14 26 l 1,21,-1
 14 24 l 1,22,-1
 16 24 l 1,23,-1
 16 22 l 1,24,-1
 16 20 l 1,25,-1
 16 16 l 1,26,-1
 16 12 l 1,27,-1
 14 12 l 1,28,-1
 14 16 l 1,29,-1
 14 20 l 1,30,-1
 14 22 l 1,31,-1
 14 24 l 1,32,-1
 2 24 l 1,33,-1
 2 12 l 1,34,-1
 0 12 l 1,35,-1
 0 24 l 1,36,-1
 2 24 l 1,37,-1
 2 26 l 1,20,-1
14 12 m 1,38,-1
 14 10 l 1,39,-1
 2 10 l 1,40,-1
 2 12 l 1,41,-1
 14 12 l 1,38,-1
EndSplineSet
EndChar

StartChar: macron
Encoding: 175 175 146
Width: 16
Flags: W
LayerCount: 2
Fore
SplineSet
2 26 m 1,0,-1
 14 26 l 1,1,-1
 14 24 l 1,2,-1
 2 24 l 1,3,-1
 2 26 l 1,0,-1
EndSplineSet
EndChar

StartChar: degree
Encoding: 176 176 147
Width: 16
Flags: W
LayerCount: 2
Fore
SplineSet
4 26 m 1,0,-1
 12 26 l 1,1,-1
 12 24 l 1,2,-1
 14 24 l 1,3,-1
 14 22 l 1,4,-1
 12 22 l 1,5,-1
 12 20 l 1,6,-1
 4 20 l 1,7,-1
 4 22 l 1,8,-1
 2 22 l 1,9,-1
 2 24 l 1,10,-1
 4 24 l 1,11,-1
 4 26 l 1,0,-1
10 22 m 1,12,-1
 10 24 l 1,13,-1
 6 24 l 1,14,-1
 6 22 l 1,15,-1
 10 22 l 1,12,-1
EndSplineSet
EndChar

StartChar: plusminus
Encoding: 177 177 148
Width: 16
Flags: W
LayerCount: 2
Fore
SplineSet
2 14 m 1,0,-1
 14 14 l 1,1,-1
 14 12 l 1,2,-1
 2 12 l 1,3,-1
 2 14 l 1,0,-1
6 26 m 1,4,-1
 10 26 l 1,5,-1
 10 22 l 1,6,-1
 14 22 l 1,7,-1
 14 20 l 1,8,-1
 10 20 l 1,9,-1
 10 16 l 1,10,-1
 6 16 l 1,11,-1
 6 20 l 1,12,-1
 2 20 l 1,13,-1
 2 22 l 1,14,-1
 6 22 l 1,15,-1
 6 26 l 1,4,-1
EndSplineSet
EndChar

StartChar: uni00B2
Encoding: 178 178 149
Width: 16
Flags: W
LayerCount: 2
Fore
SplineSet
2 26 m 1,0,-1
 8 26 l 1,1,-1
 8 24 l 1,2,-1
 10 24 l 1,3,-1
 10 22 l 1,4,-1
 8 22 l 1,5,-1
 8 20 l 1,6,-1
 6 20 l 1,7,-1
 6 18 l 1,8,-1
 10 18 l 1,9,-1
 10 16 l 1,10,-1
 2 16 l 1,11,-1
 2 20 l 1,12,-1
 4 20 l 1,13,-1
 4 22 l 1,14,-1
 6 22 l 1,15,-1
 6 24 l 1,16,-1
 2 24 l 1,17,-1
 2 26 l 1,0,-1
EndSplineSet
EndChar

StartChar: uni00B3
Encoding: 179 179 150
Width: 16
Flags: W
LayerCount: 2
Fore
SplineSet
2 26 m 1,0,-1
 10 26 l 1,1,-1
 10 24 l 1,2,-1
 12 24 l 1,3,-1
 12 22 l 1,4,-1
 10 22 l 1,5,-1
 10 20 l 1,6,-1
 12 20 l 1,7,-1
 12 18 l 1,8,-1
 10 18 l 1,9,-1
 10 16 l 1,10,-1
 2 16 l 1,11,-1
 2 18 l 1,12,-1
 8 18 l 1,13,-1
 8 20 l 1,14,-1
 6 20 l 1,15,-1
 6 22 l 1,16,-1
 8 22 l 1,17,-1
 8 24 l 1,18,-1
 2 24 l 1,19,-1
 2 26 l 1,0,-1
EndSplineSet
EndChar

StartChar: acute
Encoding: 180 180 151
Width: 16
Flags: W
LayerCount: 2
Fore
SplineSet
8 26 m 1,0,-1
 12 26 l 1,1,-1
 12 24 l 1,2,-1
 10 24 l 1,3,-1
 10 22 l 1,4,-1
 8 22 l 1,5,-1
 8 20 l 1,6,-1
 4 20 l 1,7,-1
 4 22 l 1,8,-1
 6 22 l 1,9,-1
 6 24 l 1,10,-1
 8 24 l 1,11,-1
 8 26 l 1,0,-1
EndSplineSet
EndChar

StartChar: mu
Encoding: 181 181 152
Width: 16
Flags: W
LayerCount: 2
Fore
SplineSet
10 22 m 1,0,-1
 14 22 l 1,1,-1
 14 16 l 1,2,-1
 12 16 l 1,3,-1
 12 14 l 1,4,-1
 6 14 l 1,5,-1
 6 12 l 1,6,-1
 4 12 l 1,7,-1
 4 10 l 1,8,-1
 0 10 l 1,9,-1
 0 12 l 1,10,-1
 2 12 l 1,11,-1
 2 14 l 1,12,-1
 2 22 l 1,13,-1
 6 22 l 1,14,-1
 6 16 l 1,15,-1
 10 16 l 1,16,-1
 10 22 l 1,0,-1
EndSplineSet
EndChar

StartChar: paragraph
Encoding: 182 182 153
Width: 16
Flags: W
LayerCount: 2
Fore
SplineSet
4 26 m 1,0,-1
 14 26 l 1,1,-1
 14 24 l 1,2,-1
 14 12 l 1,3,-1
 12 12 l 1,4,-1
 12 24 l 1,5,-1
 10 24 l 1,6,-1
 10 12 l 1,7,-1
 6 12 l 1,8,-1
 6 18 l 1,9,-1
 4 18 l 1,10,-1
 4 20 l 1,11,-1
 2 20 l 1,12,-1
 2 24 l 1,13,-1
 4 24 l 1,14,-1
 4 26 l 1,0,-1
EndSplineSet
EndChar

StartChar: periodcentered
Encoding: 183 183 154
Width: 16
Flags: W
LayerCount: 2
Fore
SplineSet
6 20 m 1,0,-1
 10 20 l 1,1,-1
 10 18 l 1,2,-1
 6 18 l 1,3,-1
 6 20 l 1,0,-1
EndSplineSet
EndChar

StartChar: cedilla
Encoding: 184 184 155
Width: 16
Flags: W
LayerCount: 2
Fore
SplineSet
8 14 m 1,0,-1
 10 14 l 1,1,-1
 10 10 l 1,2,-1
 6 10 l 1,3,-1
 6 12 l 1,4,-1
 8 12 l 1,5,-1
 8 14 l 1,0,-1
EndSplineSet
EndChar

StartChar: uni00B9
Encoding: 185 185 156
Width: 16
Flags: W
LayerCount: 2
Fore
SplineSet
4 26 m 1,0,-1
 8 26 l 1,1,-1
 8 16 l 1,2,-1
 4 16 l 1,3,-1
 4 22 l 1,4,-1
 2 22 l 1,5,-1
 2 24 l 1,6,-1
 4 24 l 1,7,-1
 4 26 l 1,0,-1
EndSplineSet
EndChar

StartChar: ordmasculine
Encoding: 186 186 157
Width: 16
Flags: W
LayerCount: 2
Fore
SplineSet
2 16 m 1,0,-1
 12 16 l 1,1,-1
 12 14 l 1,2,-1
 2 14 l 1,3,-1
 2 16 l 1,0,-1
4 26 m 1,4,-1
 10 26 l 1,5,-1
 10 24 l 1,6,-1
 12 24 l 1,7,-1
 12 20 l 1,8,-1
 10 20 l 1,9,-1
 10 18 l 1,10,-1
 4 18 l 1,11,-1
 4 20 l 1,12,-1
 2 20 l 1,13,-1
 2 24 l 1,14,-1
 4 24 l 1,15,-1
 4 26 l 1,4,-1
8 20 m 1,16,-1
 8 24 l 1,17,-1
 6 24 l 1,18,-1
 6 20 l 1,19,-1
 8 20 l 1,16,-1
EndSplineSet
EndChar

StartChar: guillemotright
Encoding: 187 187 158
Width: 16
Flags: W
LayerCount: 2
Fore
SplineSet
8 24 m 1,0,-1
 12 24 l 1,1,-1
 12 22 l 1,2,-1
 14 22 l 1,3,-1
 14 20 l 1,4,-1
 16 20 l 1,5,-1
 16 18 l 1,6,-1
 14 18 l 1,7,-1
 14 16 l 1,8,-1
 12 16 l 1,9,-1
 12 14 l 1,10,-1
 8 14 l 1,11,-1
 8 16 l 1,12,-1
 10 16 l 1,13,-1
 10 18 l 1,14,-1
 12 18 l 1,15,-1
 12 20 l 1,16,-1
 10 20 l 1,17,-1
 10 22 l 1,18,-1
 8 22 l 1,19,-1
 8 24 l 1,0,-1
0 24 m 1,20,-1
 4 24 l 1,21,-1
 4 22 l 1,22,-1
 6 22 l 1,23,-1
 6 20 l 1,24,-1
 8 20 l 1,25,-1
 8 18 l 1,26,-1
 6 18 l 1,27,-1
 6 16 l 1,28,-1
 4 16 l 1,29,-1
 4 14 l 1,30,-1
 0 14 l 1,31,-1
 0 16 l 1,32,-1
 2 16 l 1,33,-1
 2 18 l 1,34,-1
 4 18 l 1,35,-1
 4 20 l 1,36,-1
 2 20 l 1,37,-1
 2 22 l 1,38,-1
 0 22 l 1,39,-1
 0 24 l 1,20,-1
EndSplineSet
EndChar

StartChar: onequarter
Encoding: 188 188 159
Width: 16
Flags: W
LayerCount: 2
Fore
SplineSet
10 24 m 1,0,-1
 14 24 l 1,1,-1
 14 22 l 1,2,-1
 12 22 l 1,3,-1
 12 20 l 1,4,-1
 14 20 l 1,5,-1
 14 18 l 1,6,-1
 14 16 l 1,7,-1
 14 14 l 1,8,-1
 16 14 l 1,9,-1
 16 12 l 1,10,-1
 14 12 l 1,11,-1
 14 10 l 1,12,-1
 12 10 l 1,13,-1
 12 12 l 1,14,-1
 8 12 l 1,15,-1
 8 14 l 1,16,-1
 8 16 l 1,17,-1
 10 16 l 1,18,-1
 10 14 l 1,19,-1
 12 14 l 1,20,-1
 12 16 l 1,21,-1
 10 16 l 1,22,-1
 10 18 l 1,23,-1
 8 18 l 1,24,-1
 8 16 l 1,25,-1
 6 16 l 1,26,-1
 6 14 l 1,27,-1
 4 14 l 1,28,-1
 4 12 l 1,29,-1
 0 12 l 1,30,-1
 0 14 l 1,31,-1
 2 14 l 1,32,-1
 2 16 l 1,33,-1
 4 16 l 1,34,-1
 4 18 l 1,35,-1
 2 18 l 1,36,-1
 2 22 l 1,37,-1
 0 22 l 1,38,-1
 0 24 l 1,39,-1
 2 24 l 1,40,-1
 2 26 l 1,41,-1
 4 26 l 1,42,-1
 4 18 l 1,43,-1
 6 18 l 1,44,-1
 6 20 l 1,45,-1
 8 20 l 1,46,-1
 8 22 l 1,47,-1
 10 22 l 1,48,-1
 10 24 l 1,0,-1
12 18 m 1,49,-1
 12 20 l 1,50,-1
 10 20 l 1,51,-1
 10 18 l 1,52,-1
 12 18 l 1,49,-1
EndSplineSet
EndChar

StartChar: onehalf
Encoding: 189 189 160
Width: 16
Flags: W
LayerCount: 2
Fore
SplineSet
10 24 m 1,0,-1
 14 24 l 1,1,-1
 14 22 l 1,2,-1
 12 22 l 1,3,-1
 12 20 l 1,4,-1
 14 20 l 1,5,-1
 14 18 l 1,6,-1
 16 18 l 1,7,-1
 16 16 l 1,8,-1
 14 16 l 1,9,-1
 14 14 l 1,10,-1
 12 14 l 1,11,-1
 12 12 l 1,12,-1
 16 12 l 1,13,-1
 16 10 l 1,14,-1
 8 10 l 1,15,-1
 8 14 l 1,16,-1
 10 14 l 1,17,-1
 10 16 l 1,18,-1
 12 16 l 1,19,-1
 12 18 l 1,20,-1
 8 18 l 1,21,-1
 8 16 l 1,22,-1
 6 16 l 1,23,-1
 6 14 l 1,24,-1
 4 14 l 1,25,-1
 4 12 l 1,26,-1
 0 12 l 1,27,-1
 0 14 l 1,28,-1
 2 14 l 1,29,-1
 2 16 l 1,30,-1
 4 16 l 1,31,-1
 4 18 l 1,32,-1
 2 18 l 1,33,-1
 2 22 l 1,34,-1
 0 22 l 1,35,-1
 0 24 l 1,36,-1
 2 24 l 1,37,-1
 2 26 l 1,38,-1
 4 26 l 1,39,-1
 4 18 l 1,40,-1
 6 18 l 1,41,-1
 6 20 l 1,42,-1
 8 20 l 1,43,-1
 8 22 l 1,44,-1
 10 22 l 1,45,-1
 10 24 l 1,0,-1
EndSplineSet
EndChar

StartChar: threequarters
Encoding: 190 190 161
Width: 16
Flags: W
LayerCount: 2
Fore
SplineSet
10 24 m 1,0,-1
 14 24 l 1,1,-1
 14 22 l 1,2,-1
 12 22 l 1,3,-1
 12 20 l 1,4,-1
 10 20 l 1,5,-1
 10 18 l 1,6,-1
 12 18 l 1,7,-1
 12 20 l 1,8,-1
 14 20 l 1,9,-1
 14 18 l 1,10,-1
 14 16 l 1,11,-1
 14 14 l 1,12,-1
 16 14 l 1,13,-1
 16 12 l 1,14,-1
 14 12 l 1,15,-1
 14 10 l 1,16,-1
 12 10 l 1,17,-1
 12 12 l 1,18,-1
 8 12 l 1,19,-1
 8 14 l 1,20,-1
 8 16 l 1,21,-1
 10 16 l 1,22,-1
 10 14 l 1,23,-1
 12 14 l 1,24,-1
 12 16 l 1,25,-1
 10 16 l 1,26,-1
 10 18 l 1,27,-1
 8 18 l 1,28,-1
 8 16 l 1,29,-1
 6 16 l 1,30,-1
 6 14 l 1,31,-1
 4 14 l 1,32,-1
 4 12 l 1,33,-1
 0 12 l 1,34,-1
 0 14 l 1,35,-1
 2 14 l 1,36,-1
 2 16 l 1,37,-1
 0 16 l 1,38,-1
 0 18 l 1,39,-1
 4 18 l 1,40,-1
 4 20 l 1,41,-1
 2 20 l 1,42,-1
 2 22 l 1,43,-1
 4 22 l 1,44,-1
 4 24 l 1,45,-1
 0 24 l 1,46,-1
 0 26 l 1,47,-1
 4 26 l 1,48,-1
 4 24 l 1,49,-1
 6 24 l 1,50,-1
 6 20 l 1,51,-1
 8 20 l 1,52,-1
 8 22 l 1,53,-1
 10 22 l 1,54,-1
 10 24 l 1,0,-1
EndSplineSet
EndChar

StartChar: questiondown
Encoding: 191 191 162
Width: 16
Flags: W
LayerCount: 2
Fore
SplineSet
10 16 m 1,0,-1
 14 16 l 1,1,-1
 14 14 l 1,2,-1
 12 14 l 1,3,-1
 12 12 l 1,4,-1
 4 12 l 1,5,-1
 4 14 l 1,6,-1
 2 14 l 1,7,-1
 2 18 l 1,8,-1
 4 18 l 1,9,-1
 4 20 l 1,10,-1
 6 20 l 1,11,-1
 6 22 l 1,12,-1
 10 22 l 1,13,-1
 10 20 l 1,14,-1
 8 20 l 1,15,-1
 8 18 l 1,16,-1
 6 18 l 1,17,-1
 6 14 l 1,18,-1
 10 14 l 1,19,-1
 10 16 l 1,0,-1
6 26 m 1,20,-1
 10 26 l 1,21,-1
 10 24 l 1,22,-1
 6 24 l 1,23,-1
 6 26 l 1,20,-1
EndSplineSet
EndChar

StartChar: Agrave
Encoding: 192 192 163
Width: 16
Flags: W
LayerCount: 2
Fore
SplineSet
4 22 m 1,0,-1
 12 22 l 1,1,-1
 12 20 l 1,2,-1
 14 20 l 1,3,-1
 14 18 l 1,4,-1
 14 16 l 1,5,-1
 14 12 l 1,6,-1
 10 12 l 1,7,-1
 10 16 l 1,8,-1
 6 16 l 1,9,-1
 6 12 l 1,10,-1
 2 12 l 1,11,-1
 2 16 l 1,12,-1
 2 20 l 1,13,-1
 4 20 l 1,14,-1
 4 22 l 1,0,-1
2 26 m 1,15,-1
 8 26 l 1,16,-1
 8 24 l 1,17,-1
 2 24 l 1,18,-1
 2 26 l 1,15,-1
10 18 m 1,19,-1
 10 20 l 1,20,-1
 6 20 l 1,21,-1
 6 18 l 1,22,-1
 10 18 l 1,19,-1
EndSplineSet
EndChar

StartChar: Aacute
Encoding: 193 193 164
Width: 16
Flags: W
LayerCount: 2
Fore
SplineSet
4 22 m 1,0,-1
 12 22 l 1,1,-1
 12 20 l 1,2,-1
 14 20 l 1,3,-1
 14 18 l 1,4,-1
 14 16 l 1,5,-1
 14 12 l 1,6,-1
 10 12 l 1,7,-1
 10 16 l 1,8,-1
 6 16 l 1,9,-1
 6 12 l 1,10,-1
 2 12 l 1,11,-1
 2 16 l 1,12,-1
 2 20 l 1,13,-1
 4 20 l 1,14,-1
 4 22 l 1,0,-1
8 26 m 1,15,-1
 14 26 l 1,16,-1
 14 24 l 1,17,-1
 8 24 l 1,18,-1
 8 26 l 1,15,-1
10 18 m 1,19,-1
 10 20 l 1,20,-1
 6 20 l 1,21,-1
 6 18 l 1,22,-1
 10 18 l 1,19,-1
EndSplineSet
EndChar

StartChar: Acircumflex
Encoding: 194 194 165
Width: 16
Flags: W
LayerCount: 2
Fore
SplineSet
4 20 m 1,0,-1
 12 20 l 1,1,-1
 12 18 l 1,2,-1
 14 18 l 1,3,-1
 14 16 l 1,4,-1
 14 14 l 1,5,-1
 14 12 l 1,6,-1
 10 12 l 1,7,-1
 10 14 l 1,8,-1
 6 14 l 1,9,-1
 6 12 l 1,10,-1
 2 12 l 1,11,-1
 2 14 l 1,12,-1
 2 18 l 1,13,-1
 4 18 l 1,14,-1
 4 20 l 1,0,-1
6 26 m 1,15,-1
 10 26 l 1,16,-1
 10 24 l 1,17,-1
 14 24 l 1,18,-1
 14 22 l 1,19,-1
 10 22 l 1,20,-1
 10 24 l 1,21,-1
 6 24 l 1,22,-1
 6 22 l 1,23,-1
 2 22 l 1,24,-1
 2 24 l 1,25,-1
 6 24 l 1,26,-1
 6 26 l 1,15,-1
10 16 m 1,27,-1
 10 18 l 1,28,-1
 6 18 l 1,29,-1
 6 16 l 1,30,-1
 10 16 l 1,27,-1
EndSplineSet
EndChar

StartChar: Atilde
Encoding: 195 195 166
Width: 16
Flags: W
LayerCount: 2
Fore
SplineSet
4 20 m 1,0,-1
 12 20 l 1,1,-1
 12 18 l 1,2,-1
 14 18 l 1,3,-1
 14 16 l 1,4,-1
 14 14 l 1,5,-1
 14 12 l 1,6,-1
 10 12 l 1,7,-1
 10 14 l 1,8,-1
 6 14 l 1,9,-1
 6 12 l 1,10,-1
 2 12 l 1,11,-1
 2 14 l 1,12,-1
 2 18 l 1,13,-1
 4 18 l 1,14,-1
 4 20 l 1,0,-1
10 26 m 1,15,-1
 14 26 l 1,16,-1
 14 24 l 1,17,-1
 12 24 l 1,18,-1
 12 22 l 1,19,-1
 6 22 l 1,20,-1
 6 24 l 1,21,-1
 4 24 l 1,22,-1
 4 22 l 1,23,-1
 0 22 l 1,24,-1
 0 24 l 1,25,-1
 2 24 l 1,26,-1
 2 26 l 1,27,-1
 8 26 l 1,28,-1
 8 24 l 1,29,-1
 10 24 l 1,30,-1
 10 26 l 1,15,-1
10 16 m 1,31,-1
 10 18 l 1,32,-1
 6 18 l 1,33,-1
 6 16 l 1,34,-1
 10 16 l 1,31,-1
EndSplineSet
EndChar

StartChar: Adieresis
Encoding: 196 196 167
Width: 16
Flags: W
LayerCount: 2
Fore
SplineSet
4 22 m 1,0,-1
 12 22 l 1,1,-1
 12 20 l 1,2,-1
 14 20 l 1,3,-1
 14 18 l 1,4,-1
 14 16 l 1,5,-1
 14 12 l 1,6,-1
 10 12 l 1,7,-1
 10 16 l 1,8,-1
 6 16 l 1,9,-1
 6 12 l 1,10,-1
 2 12 l 1,11,-1
 2 16 l 1,12,-1
 2 20 l 1,13,-1
 4 20 l 1,14,-1
 4 22 l 1,0,-1
10 26 m 1,15,-1
 14 26 l 1,16,-1
 14 24 l 1,17,-1
 10 24 l 1,18,-1
 10 26 l 1,15,-1
2 26 m 1,19,-1
 6 26 l 1,20,-1
 6 24 l 1,21,-1
 2 24 l 1,22,-1
 2 26 l 1,19,-1
10 18 m 1,23,-1
 10 20 l 1,24,-1
 6 20 l 1,25,-1
 6 18 l 1,26,-1
 10 18 l 1,23,-1
EndSplineSet
EndChar

StartChar: Aring
Encoding: 197 197 168
Width: 16
Flags: W
LayerCount: 2
Fore
SplineSet
4 20 m 1,0,-1
 12 20 l 1,1,-1
 12 18 l 1,2,-1
 14 18 l 1,3,-1
 14 16 l 1,4,-1
 14 14 l 1,5,-1
 14 12 l 1,6,-1
 10 12 l 1,7,-1
 10 14 l 1,8,-1
 6 14 l 1,9,-1
 6 12 l 1,10,-1
 2 12 l 1,11,-1
 2 14 l 1,12,-1
 2 18 l 1,13,-1
 4 18 l 1,14,-1
 4 20 l 1,0,-1
6 26 m 1,15,-1
 10 26 l 1,16,-1
 10 22 l 1,17,-1
 6 22 l 1,18,-1
 6 26 l 1,15,-1
10 16 m 1,19,-1
 10 18 l 1,20,-1
 6 18 l 1,21,-1
 6 16 l 1,22,-1
 10 16 l 1,19,-1
EndSplineSet
EndChar

StartChar: AE
Encoding: 198 198 169
Width: 16
Flags: W
LayerCount: 2
Fore
SplineSet
4 26 m 1,0,-1
 16 26 l 1,1,-1
 16 24 l 1,2,-1
 12 24 l 1,3,-1
 12 22 l 1,4,-1
 12 20 l 1,5,-1
 14 20 l 1,6,-1
 14 18 l 1,7,-1
 12 18 l 1,8,-1
 12 14 l 1,9,-1
 16 14 l 1,10,-1
 16 12 l 1,11,-1
 8 12 l 1,12,-1
 8 18 l 1,13,-1
 4 18 l 1,14,-1
 4 12 l 1,15,-1
 0 12 l 1,16,-1
 0 18 l 1,17,-1
 0 22 l 1,18,-1
 2 22 l 1,19,-1
 2 24 l 1,20,-1
 4 24 l 1,21,-1
 4 26 l 1,0,-1
8 20 m 1,22,-1
 8 22 l 1,23,-1
 8 24 l 1,24,-1
 6 24 l 1,25,-1
 6 22 l 1,26,-1
 4 22 l 1,27,-1
 4 20 l 1,28,-1
 8 20 l 1,22,-1
EndSplineSet
EndChar

StartChar: Ccedilla
Encoding: 199 199 170
Width: 16
Flags: W
LayerCount: 2
Fore
SplineSet
10 16 m 1,0,-1
 14 16 l 1,1,-1
 14 14 l 1,2,-1
 12 14 l 1,3,-1
 12 12 l 1,4,-1
 10 12 l 1,5,-1
 10 10 l 1,6,-1
 6 10 l 1,7,-1
 6 12 l 1,8,-1
 4 12 l 1,9,-1
 4 14 l 1,10,-1
 2 14 l 1,11,-1
 2 24 l 1,12,-1
 4 24 l 1,13,-1
 4 26 l 1,14,-1
 12 26 l 1,15,-1
 12 24 l 1,16,-1
 14 24 l 1,17,-1
 14 22 l 1,18,-1
 10 22 l 1,19,-1
 10 24 l 1,20,-1
 6 24 l 1,21,-1
 6 14 l 1,22,-1
 10 14 l 1,23,-1
 10 16 l 1,0,-1
EndSplineSet
EndChar

StartChar: Egrave
Encoding: 200 200 171
Width: 16
Flags: W
LayerCount: 2
Fore
SplineSet
0 22 m 1,0,-1
 14 22 l 1,1,-1
 14 20 l 1,2,-1
 4 20 l 1,3,-1
 4 18 l 1,4,-1
 10 18 l 1,5,-1
 10 16 l 1,6,-1
 4 16 l 1,7,-1
 4 14 l 1,8,-1
 14 14 l 1,9,-1
 14 12 l 1,10,-1
 0 12 l 1,11,-1
 0 16 l 1,12,-1
 0 20 l 1,13,-1
 0 22 l 1,0,-1
2 26 m 1,14,-1
 8 26 l 1,15,-1
 8 24 l 1,16,-1
 2 24 l 1,17,-1
 2 26 l 1,14,-1
EndSplineSet
EndChar

StartChar: Eacute
Encoding: 201 201 172
Width: 16
Flags: W
LayerCount: 2
Fore
SplineSet
0 22 m 1,0,-1
 14 22 l 1,1,-1
 14 20 l 1,2,-1
 4 20 l 1,3,-1
 4 18 l 1,4,-1
 10 18 l 1,5,-1
 10 16 l 1,6,-1
 4 16 l 1,7,-1
 4 14 l 1,8,-1
 14 14 l 1,9,-1
 14 12 l 1,10,-1
 0 12 l 1,11,-1
 0 16 l 1,12,-1
 0 20 l 1,13,-1
 0 22 l 1,0,-1
8 26 m 1,14,-1
 14 26 l 1,15,-1
 14 24 l 1,16,-1
 8 24 l 1,17,-1
 8 26 l 1,14,-1
EndSplineSet
EndChar

StartChar: Ecircumflex
Encoding: 202 202 173
Width: 16
Flags: W
LayerCount: 2
Fore
SplineSet
0 20 m 1,0,-1
 14 20 l 1,1,-1
 14 18 l 1,2,-1
 8 18 l 1,3,-1
 8 16 l 1,4,-1
 4 16 l 1,5,-1
 4 14 l 1,6,-1
 14 14 l 1,7,-1
 14 12 l 1,8,-1
 0 12 l 1,9,-1
 0 16 l 1,10,-1
 0 18 l 1,11,-1
 0 20 l 1,0,-1
6 26 m 1,12,-1
 10 26 l 1,13,-1
 10 24 l 1,14,-1
 14 24 l 1,15,-1
 14 22 l 1,16,-1
 10 22 l 1,17,-1
 10 24 l 1,18,-1
 6 24 l 1,19,-1
 6 22 l 1,20,-1
 2 22 l 1,21,-1
 2 24 l 1,22,-1
 6 24 l 1,23,-1
 6 26 l 1,12,-1
EndSplineSet
EndChar

StartChar: Edieresis
Encoding: 203 203 174
Width: 16
Flags: W
LayerCount: 2
Fore
SplineSet
0 22 m 1,0,-1
 14 22 l 1,1,-1
 14 20 l 1,2,-1
 4 20 l 1,3,-1
 4 18 l 1,4,-1
 10 18 l 1,5,-1
 10 16 l 1,6,-1
 4 16 l 1,7,-1
 4 14 l 1,8,-1
 14 14 l 1,9,-1
 14 12 l 1,10,-1
 0 12 l 1,11,-1
 0 16 l 1,12,-1
 0 20 l 1,13,-1
 0 22 l 1,0,-1
10 26 m 1,14,-1
 14 26 l 1,15,-1
 14 24 l 1,16,-1
 10 24 l 1,17,-1
 10 26 l 1,14,-1
2 26 m 1,18,-1
 6 26 l 1,19,-1
 6 24 l 1,20,-1
 2 24 l 1,21,-1
 2 26 l 1,18,-1
EndSplineSet
EndChar

StartChar: Igrave
Encoding: 204 204 175
Width: 16
Flags: W
LayerCount: 2
Fore
SplineSet
2 22 m 1,0,-1
 14 22 l 1,1,-1
 14 20 l 1,2,-1
 10 20 l 1,3,-1
 10 14 l 1,4,-1
 14 14 l 1,5,-1
 14 12 l 1,6,-1
 2 12 l 1,7,-1
 2 14 l 1,8,-1
 6 14 l 1,9,-1
 6 20 l 1,10,-1
 2 20 l 1,11,-1
 2 22 l 1,0,-1
2 26 m 1,12,-1
 8 26 l 1,13,-1
 8 24 l 1,14,-1
 2 24 l 1,15,-1
 2 26 l 1,12,-1
EndSplineSet
EndChar

StartChar: Iacute
Encoding: 205 205 176
Width: 16
Flags: W
LayerCount: 2
Fore
SplineSet
2 22 m 1,0,-1
 14 22 l 1,1,-1
 14 20 l 1,2,-1
 10 20 l 1,3,-1
 10 14 l 1,4,-1
 14 14 l 1,5,-1
 14 12 l 1,6,-1
 2 12 l 1,7,-1
 2 14 l 1,8,-1
 6 14 l 1,9,-1
 6 20 l 1,10,-1
 2 20 l 1,11,-1
 2 22 l 1,0,-1
8 26 m 1,12,-1
 14 26 l 1,13,-1
 14 24 l 1,14,-1
 8 24 l 1,15,-1
 8 26 l 1,12,-1
EndSplineSet
EndChar

StartChar: Icircumflex
Encoding: 206 206 177
Width: 16
Flags: W
LayerCount: 2
Fore
SplineSet
2 20 m 1,0,-1
 14 20 l 1,1,-1
 14 18 l 1,2,-1
 10 18 l 1,3,-1
 10 14 l 1,4,-1
 14 14 l 1,5,-1
 14 12 l 1,6,-1
 2 12 l 1,7,-1
 2 14 l 1,8,-1
 6 14 l 1,9,-1
 6 18 l 1,10,-1
 2 18 l 1,11,-1
 2 20 l 1,0,-1
6 26 m 1,12,-1
 10 26 l 1,13,-1
 10 24 l 1,14,-1
 14 24 l 1,15,-1
 14 22 l 1,16,-1
 10 22 l 1,17,-1
 10 24 l 1,18,-1
 6 24 l 1,19,-1
 6 22 l 1,20,-1
 2 22 l 1,21,-1
 2 24 l 1,22,-1
 6 24 l 1,23,-1
 6 26 l 1,12,-1
EndSplineSet
EndChar

StartChar: Idieresis
Encoding: 207 207 178
Width: 16
Flags: W
LayerCount: 2
Fore
SplineSet
2 22 m 1,0,-1
 14 22 l 1,1,-1
 14 20 l 1,2,-1
 10 20 l 1,3,-1
 10 14 l 1,4,-1
 14 14 l 1,5,-1
 14 12 l 1,6,-1
 2 12 l 1,7,-1
 2 14 l 1,8,-1
 6 14 l 1,9,-1
 6 20 l 1,10,-1
 2 20 l 1,11,-1
 2 22 l 1,0,-1
10 26 m 1,12,-1
 14 26 l 1,13,-1
 14 24 l 1,14,-1
 10 24 l 1,15,-1
 10 26 l 1,12,-1
2 26 m 1,16,-1
 6 26 l 1,17,-1
 6 24 l 1,18,-1
 2 24 l 1,19,-1
 2 26 l 1,16,-1
EndSplineSet
EndChar

StartChar: Eth
Encoding: 208 208 179
Width: 16
Flags: W
LayerCount: 2
Fore
SplineSet
2 26 m 1,0,-1
 10 26 l 1,1,-1
 10 24 l 1,2,-1
 12 24 l 1,3,-1
 12 22 l 1,4,-1
 14 22 l 1,5,-1
 14 18 l 1,6,-1
 14 16 l 1,7,-1
 12 16 l 1,8,-1
 12 14 l 1,9,-1
 10 14 l 1,10,-1
 10 12 l 1,11,-1
 2 12 l 1,12,-1
 2 18 l 1,13,-1
 0 18 l 1,14,-1
 0 20 l 1,15,-1
 2 20 l 1,16,-1
 2 24 l 1,17,-1
 2 26 l 1,0,-1
10 16 m 1,18,-1
 10 18 l 1,19,-1
 10 22 l 1,20,-1
 8 22 l 1,21,-1
 8 24 l 1,22,-1
 6 24 l 1,23,-1
 6 20 l 1,24,-1
 8 20 l 1,25,-1
 8 18 l 1,26,-1
 6 18 l 1,27,-1
 6 14 l 1,28,-1
 8 14 l 1,29,-1
 8 16 l 1,30,-1
 10 16 l 1,18,-1
EndSplineSet
EndChar

StartChar: Ntilde
Encoding: 209 209 180
Width: 16
Flags: W
LayerCount: 2
Fore
SplineSet
10 20 m 1,0,-1
 14 20 l 1,1,-1
 14 16 l 1,2,-1
 14 12 l 1,3,-1
 10 12 l 1,4,-1
 10 14 l 1,5,-1
 6 14 l 1,6,-1
 6 16 l 1,7,-1
 4 16 l 1,8,-1
 4 12 l 1,9,-1
 0 12 l 1,10,-1
 0 16 l 1,11,-1
 0 20 l 1,12,-1
 4 20 l 1,13,-1
 4 18 l 1,14,-1
 8 18 l 1,15,-1
 8 16 l 1,16,-1
 10 16 l 1,17,-1
 10 20 l 1,0,-1
10 26 m 1,18,-1
 14 26 l 1,19,-1
 14 24 l 1,20,-1
 12 24 l 1,21,-1
 12 22 l 1,22,-1
 6 22 l 1,23,-1
 6 24 l 1,24,-1
 4 24 l 1,25,-1
 4 22 l 1,26,-1
 0 22 l 1,27,-1
 0 24 l 1,28,-1
 2 24 l 1,29,-1
 2 26 l 1,30,-1
 8 26 l 1,31,-1
 8 24 l 1,32,-1
 10 24 l 1,33,-1
 10 26 l 1,18,-1
EndSplineSet
EndChar

StartChar: Ograve
Encoding: 210 210 181
Width: 16
Flags: W
LayerCount: 2
Fore
SplineSet
2 22 m 1,0,-1
 12 22 l 1,1,-1
 12 20 l 1,2,-1
 14 20 l 1,3,-1
 14 14 l 1,4,-1
 12 14 l 1,5,-1
 12 12 l 1,6,-1
 2 12 l 1,7,-1
 2 14 l 1,8,-1
 0 14 l 1,9,-1
 0 20 l 1,10,-1
 2 20 l 1,11,-1
 2 22 l 1,0,-1
2 26 m 1,12,-1
 8 26 l 1,13,-1
 8 24 l 1,14,-1
 2 24 l 1,15,-1
 2 26 l 1,12,-1
10 14 m 1,16,-1
 10 20 l 1,17,-1
 4 20 l 1,18,-1
 4 14 l 1,19,-1
 10 14 l 1,16,-1
EndSplineSet
EndChar

StartChar: Oacute
Encoding: 211 211 182
Width: 16
Flags: W
LayerCount: 2
Fore
SplineSet
2 22 m 1,0,-1
 12 22 l 1,1,-1
 12 20 l 1,2,-1
 14 20 l 1,3,-1
 14 14 l 1,4,-1
 12 14 l 1,5,-1
 12 12 l 1,6,-1
 2 12 l 1,7,-1
 2 14 l 1,8,-1
 0 14 l 1,9,-1
 0 20 l 1,10,-1
 2 20 l 1,11,-1
 2 22 l 1,0,-1
8 26 m 1,12,-1
 14 26 l 1,13,-1
 14 24 l 1,14,-1
 8 24 l 1,15,-1
 8 26 l 1,12,-1
10 14 m 1,16,-1
 10 20 l 1,17,-1
 4 20 l 1,18,-1
 4 14 l 1,19,-1
 10 14 l 1,16,-1
EndSplineSet
EndChar

StartChar: Ocircumflex
Encoding: 212 212 183
Width: 16
Flags: W
LayerCount: 2
Fore
SplineSet
2 20 m 1,0,-1
 12 20 l 1,1,-1
 12 18 l 1,2,-1
 14 18 l 1,3,-1
 14 14 l 1,4,-1
 12 14 l 1,5,-1
 12 12 l 1,6,-1
 2 12 l 1,7,-1
 2 14 l 1,8,-1
 0 14 l 1,9,-1
 0 18 l 1,10,-1
 2 18 l 1,11,-1
 2 20 l 1,0,-1
6 26 m 1,12,-1
 10 26 l 1,13,-1
 10 24 l 1,14,-1
 14 24 l 1,15,-1
 14 22 l 1,16,-1
 10 22 l 1,17,-1
 10 24 l 1,18,-1
 6 24 l 1,19,-1
 6 22 l 1,20,-1
 2 22 l 1,21,-1
 2 24 l 1,22,-1
 6 24 l 1,23,-1
 6 26 l 1,12,-1
10 14 m 1,24,-1
 10 18 l 1,25,-1
 4 18 l 1,26,-1
 4 14 l 1,27,-1
 10 14 l 1,24,-1
EndSplineSet
EndChar

StartChar: Otilde
Encoding: 213 213 184
Width: 16
Flags: W
LayerCount: 2
Fore
SplineSet
2 20 m 1,0,-1
 12 20 l 1,1,-1
 12 18 l 1,2,-1
 14 18 l 1,3,-1
 14 14 l 1,4,-1
 12 14 l 1,5,-1
 12 12 l 1,6,-1
 2 12 l 1,7,-1
 2 14 l 1,8,-1
 0 14 l 1,9,-1
 0 18 l 1,10,-1
 2 18 l 1,11,-1
 2 20 l 1,0,-1
10 26 m 1,12,-1
 14 26 l 1,13,-1
 14 24 l 1,14,-1
 12 24 l 1,15,-1
 12 22 l 1,16,-1
 6 22 l 1,17,-1
 6 24 l 1,18,-1
 4 24 l 1,19,-1
 4 22 l 1,20,-1
 0 22 l 1,21,-1
 0 24 l 1,22,-1
 2 24 l 1,23,-1
 2 26 l 1,24,-1
 8 26 l 1,25,-1
 8 24 l 1,26,-1
 10 24 l 1,27,-1
 10 26 l 1,12,-1
10 14 m 1,28,-1
 10 18 l 1,29,-1
 4 18 l 1,30,-1
 4 14 l 1,31,-1
 10 14 l 1,28,-1
EndSplineSet
EndChar

StartChar: Odieresis
Encoding: 214 214 185
Width: 16
Flags: W
LayerCount: 2
Fore
SplineSet
2 22 m 1,0,-1
 12 22 l 1,1,-1
 12 20 l 1,2,-1
 14 20 l 1,3,-1
 14 14 l 1,4,-1
 12 14 l 1,5,-1
 12 12 l 1,6,-1
 2 12 l 1,7,-1
 2 14 l 1,8,-1
 0 14 l 1,9,-1
 0 20 l 1,10,-1
 2 20 l 1,11,-1
 2 22 l 1,0,-1
10 26 m 1,12,-1
 14 26 l 1,13,-1
 14 24 l 1,14,-1
 10 24 l 1,15,-1
 10 26 l 1,12,-1
2 26 m 1,16,-1
 6 26 l 1,17,-1
 6 24 l 1,18,-1
 2 24 l 1,19,-1
 2 26 l 1,16,-1
10 14 m 1,20,-1
 10 20 l 1,21,-1
 4 20 l 1,22,-1
 4 14 l 1,23,-1
 10 14 l 1,20,-1
EndSplineSet
EndChar

StartChar: multiply
Encoding: 215 215 186
Width: 16
Flags: W
LayerCount: 2
Fore
SplineSet
10 24 m 1,0,-1
 14 24 l 1,1,-1
 14 22 l 1,2,-1
 12 22 l 1,3,-1
 12 20 l 1,4,-1
 10 20 l 1,5,-1
 10 18 l 1,6,-1
 12 18 l 1,7,-1
 12 16 l 1,8,-1
 14 16 l 1,9,-1
 14 14 l 1,10,-1
 10 14 l 1,11,-1
 10 16 l 1,12,-1
 8 16 l 1,13,-1
 8 18 l 1,14,-1
 6 18 l 1,15,-1
 6 16 l 1,16,-1
 4 16 l 1,17,-1
 4 14 l 1,18,-1
 0 14 l 1,19,-1
 0 16 l 1,20,-1
 2 16 l 1,21,-1
 2 18 l 1,22,-1
 4 18 l 1,23,-1
 4 20 l 1,24,-1
 2 20 l 1,25,-1
 2 22 l 1,26,-1
 0 22 l 1,27,-1
 0 24 l 1,28,-1
 4 24 l 1,29,-1
 4 22 l 1,30,-1
 6 22 l 1,31,-1
 6 20 l 1,32,-1
 8 20 l 1,33,-1
 8 22 l 1,34,-1
 10 22 l 1,35,-1
 10 24 l 1,0,-1
EndSplineSet
EndChar

StartChar: Oslash
Encoding: 216 216 187
Width: 16
Flags: W
LayerCount: 2
Fore
SplineSet
4 26 m 1,0,-1
 14 26 l 1,1,-1
 14 24 l 1,2,-1
 14 20 l 1,3,-1
 14 18 l 1,4,-1
 14 16 l 1,5,-1
 14 14 l 1,6,-1
 12 14 l 1,7,-1
 12 12 l 1,8,-1
 2 12 l 1,9,-1
 2 16 l 1,10,-1
 2 18 l 1,11,-1
 2 24 l 1,12,-1
 4 24 l 1,13,-1
 4 26 l 1,0,-1
10 14 m 1,14,-1
 10 16 l 1,15,-1
 10 18 l 1,16,-1
 8 18 l 1,17,-1
 8 16 l 1,18,-1
 6 16 l 1,19,-1
 6 14 l 1,20,-1
 10 14 l 1,14,-1
8 20 m 1,21,-1
 8 22 l 1,22,-1
 10 22 l 1,23,-1
 10 24 l 1,24,-1
 6 24 l 1,25,-1
 6 20 l 1,26,-1
 8 20 l 1,21,-1
EndSplineSet
EndChar

StartChar: Ugrave
Encoding: 217 217 188
Width: 16
Flags: W
LayerCount: 2
Fore
SplineSet
10 22 m 1,0,-1
 14 22 l 1,1,-1
 14 14 l 1,2,-1
 12 14 l 1,3,-1
 12 12 l 1,4,-1
 2 12 l 1,5,-1
 2 14 l 1,6,-1
 0 14 l 1,7,-1
 0 22 l 1,8,-1
 4 22 l 1,9,-1
 4 14 l 1,10,-1
 10 14 l 1,11,-1
 10 22 l 1,0,-1
2 26 m 1,12,-1
 8 26 l 1,13,-1
 8 24 l 1,14,-1
 2 24 l 1,15,-1
 2 26 l 1,12,-1
EndSplineSet
EndChar

StartChar: Uacute
Encoding: 218 218 189
Width: 16
Flags: W
LayerCount: 2
Fore
SplineSet
10 22 m 1,0,-1
 14 22 l 1,1,-1
 14 14 l 1,2,-1
 12 14 l 1,3,-1
 12 12 l 1,4,-1
 2 12 l 1,5,-1
 2 14 l 1,6,-1
 0 14 l 1,7,-1
 0 22 l 1,8,-1
 4 22 l 1,9,-1
 4 14 l 1,10,-1
 10 14 l 1,11,-1
 10 22 l 1,0,-1
8 26 m 1,12,-1
 14 26 l 1,13,-1
 14 24 l 1,14,-1
 8 24 l 1,15,-1
 8 26 l 1,12,-1
EndSplineSet
EndChar

StartChar: Ucircumflex
Encoding: 219 219 190
Width: 16
Flags: W
LayerCount: 2
Fore
SplineSet
10 20 m 1,0,-1
 14 20 l 1,1,-1
 14 14 l 1,2,-1
 12 14 l 1,3,-1
 12 12 l 1,4,-1
 2 12 l 1,5,-1
 2 14 l 1,6,-1
 0 14 l 1,7,-1
 0 20 l 1,8,-1
 4 20 l 1,9,-1
 4 14 l 1,10,-1
 10 14 l 1,11,-1
 10 20 l 1,0,-1
6 26 m 1,12,-1
 10 26 l 1,13,-1
 10 24 l 1,14,-1
 14 24 l 1,15,-1
 14 22 l 1,16,-1
 10 22 l 1,17,-1
 10 24 l 1,18,-1
 6 24 l 1,19,-1
 6 22 l 1,20,-1
 2 22 l 1,21,-1
 2 24 l 1,22,-1
 6 24 l 1,23,-1
 6 26 l 1,12,-1
EndSplineSet
EndChar

StartChar: Udieresis
Encoding: 220 220 191
Width: 16
Flags: W
LayerCount: 2
Fore
SplineSet
10 22 m 1,0,-1
 14 22 l 1,1,-1
 14 14 l 1,2,-1
 12 14 l 1,3,-1
 12 12 l 1,4,-1
 2 12 l 1,5,-1
 2 14 l 1,6,-1
 0 14 l 1,7,-1
 0 22 l 1,8,-1
 4 22 l 1,9,-1
 4 14 l 1,10,-1
 10 14 l 1,11,-1
 10 22 l 1,0,-1
10 26 m 1,12,-1
 14 26 l 1,13,-1
 14 24 l 1,14,-1
 10 24 l 1,15,-1
 10 26 l 1,12,-1
2 26 m 1,16,-1
 6 26 l 1,17,-1
 6 24 l 1,18,-1
 2 24 l 1,19,-1
 2 26 l 1,16,-1
EndSplineSet
EndChar

StartChar: Yacute
Encoding: 221 221 192
Width: 16
Flags: W
LayerCount: 2
Fore
SplineSet
10 22 m 1,0,-1
 14 22 l 1,1,-1
 14 18 l 1,2,-1
 12 18 l 1,3,-1
 12 16 l 1,4,-1
 10 16 l 1,5,-1
 10 12 l 1,6,-1
 6 12 l 1,7,-1
 6 16 l 1,8,-1
 4 16 l 1,9,-1
 4 18 l 1,10,-1
 2 18 l 1,11,-1
 2 22 l 1,12,-1
 6 22 l 1,13,-1
 6 18 l 1,14,-1
 10 18 l 1,15,-1
 10 22 l 1,0,-1
8 26 m 1,16,-1
 14 26 l 1,17,-1
 14 24 l 1,18,-1
 8 24 l 1,19,-1
 8 26 l 1,16,-1
EndSplineSet
EndChar

StartChar: Thorn
Encoding: 222 222 193
Width: 16
Flags: W
LayerCount: 2
Fore
SplineSet
0 26 m 1,0,-1
 4 26 l 1,1,-1
 4 22 l 1,2,-1
 12 22 l 1,3,-1
 12 20 l 1,4,-1
 14 20 l 1,5,-1
 14 18 l 1,6,-1
 12 18 l 1,7,-1
 12 16 l 1,8,-1
 4 16 l 1,9,-1
 4 12 l 1,10,-1
 0 12 l 1,11,-1
 0 16 l 1,12,-1
 0 20 l 1,13,-1
 0 26 l 1,0,-1
10 18 m 1,14,-1
 10 20 l 1,15,-1
 4 20 l 1,16,-1
 4 18 l 1,17,-1
 10 18 l 1,14,-1
EndSplineSet
EndChar

StartChar: germandbls
Encoding: 223 223 194
Width: 16
Flags: W
LayerCount: 2
Fore
SplineSet
4 26 m 1,0,-1
 12 26 l 1,1,-1
 12 24 l 1,2,-1
 14 24 l 1,3,-1
 14 20 l 1,4,-1
 12 20 l 1,5,-1
 12 18 l 1,6,-1
 14 18 l 1,7,-1
 14 14 l 1,8,-1
 12 14 l 1,9,-1
 12 12 l 1,10,-1
 8 12 l 1,11,-1
 8 14 l 1,12,-1
 10 14 l 1,13,-1
 10 18 l 1,14,-1
 8 18 l 1,15,-1
 8 20 l 1,16,-1
 10 20 l 1,17,-1
 10 24 l 1,18,-1
 6 24 l 1,19,-1
 6 12 l 1,20,-1
 2 12 l 1,21,-1
 2 24 l 1,22,-1
 4 24 l 1,23,-1
 4 26 l 1,0,-1
EndSplineSet
EndChar

StartChar: agrave
Encoding: 224 224 195
Width: 16
Flags: W
LayerCount: 2
Fore
SplineSet
4 22 m 1,0,-1
 12 22 l 1,1,-1
 12 20 l 1,2,-1
 14 20 l 1,3,-1
 14 16 l 1,4,-1
 14 14 l 1,5,-1
 14 12 l 1,6,-1
 4 12 l 1,7,-1
 4 14 l 1,8,-1
 2 14 l 1,9,-1
 2 16 l 1,10,-1
 4 16 l 1,11,-1
 4 18 l 1,12,-1
 10 18 l 1,13,-1
 10 20 l 1,14,-1
 4 20 l 1,15,-1
 4 22 l 1,0,-1
2 26 m 1,16,-1
 8 26 l 1,17,-1
 8 24 l 1,18,-1
 2 24 l 1,19,-1
 2 26 l 1,16,-1
10 14 m 1,20,-1
 10 16 l 1,21,-1
 6 16 l 1,22,-1
 6 14 l 1,23,-1
 10 14 l 1,20,-1
EndSplineSet
EndChar

StartChar: aacute
Encoding: 225 225 196
Width: 16
Flags: W
LayerCount: 2
Fore
SplineSet
4 22 m 1,0,-1
 12 22 l 1,1,-1
 12 20 l 1,2,-1
 14 20 l 1,3,-1
 14 16 l 1,4,-1
 14 14 l 1,5,-1
 14 12 l 1,6,-1
 4 12 l 1,7,-1
 4 14 l 1,8,-1
 2 14 l 1,9,-1
 2 16 l 1,10,-1
 4 16 l 1,11,-1
 4 18 l 1,12,-1
 10 18 l 1,13,-1
 10 20 l 1,14,-1
 4 20 l 1,15,-1
 4 22 l 1,0,-1
8 26 m 1,16,-1
 14 26 l 1,17,-1
 14 24 l 1,18,-1
 8 24 l 1,19,-1
 8 26 l 1,16,-1
10 14 m 1,20,-1
 10 16 l 1,21,-1
 6 16 l 1,22,-1
 6 14 l 1,23,-1
 10 14 l 1,20,-1
EndSplineSet
EndChar

StartChar: acircumflex
Encoding: 226 226 197
Width: 16
Flags: W
LayerCount: 2
Fore
SplineSet
4 20 m 1,0,-1
 14 20 l 1,1,-1
 14 18 l 1,2,-1
 14 16 l 1,3,-1
 14 14 l 1,4,-1
 14 12 l 1,5,-1
 2 12 l 1,6,-1
 2 14 l 1,7,-1
 0 14 l 1,8,-1
 0 16 l 1,9,-1
 2 16 l 1,10,-1
 2 18 l 1,11,-1
 4 18 l 1,12,-1
 4 20 l 1,0,-1
6 26 m 1,13,-1
 10 26 l 1,14,-1
 10 24 l 1,15,-1
 14 24 l 1,16,-1
 14 22 l 1,17,-1
 10 22 l 1,18,-1
 10 24 l 1,19,-1
 6 24 l 1,20,-1
 6 22 l 1,21,-1
 2 22 l 1,22,-1
 2 24 l 1,23,-1
 6 24 l 1,24,-1
 6 26 l 1,13,-1
10 14 m 1,25,-1
 10 16 l 1,26,-1
 10 18 l 1,27,-1
 6 18 l 1,28,-1
 6 16 l 1,29,-1
 4 16 l 1,30,-1
 4 14 l 1,31,-1
 10 14 l 1,25,-1
EndSplineSet
EndChar

StartChar: atilde
Encoding: 227 227 198
Width: 16
Flags: W
LayerCount: 2
Fore
SplineSet
4 20 m 1,0,-1
 14 20 l 1,1,-1
 14 18 l 1,2,-1
 14 16 l 1,3,-1
 14 14 l 1,4,-1
 14 12 l 1,5,-1
 2 12 l 1,6,-1
 2 14 l 1,7,-1
 0 14 l 1,8,-1
 0 16 l 1,9,-1
 2 16 l 1,10,-1
 2 18 l 1,11,-1
 4 18 l 1,12,-1
 4 20 l 1,0,-1
10 26 m 1,13,-1
 14 26 l 1,14,-1
 14 24 l 1,15,-1
 12 24 l 1,16,-1
 12 22 l 1,17,-1
 6 22 l 1,18,-1
 6 24 l 1,19,-1
 4 24 l 1,20,-1
 4 22 l 1,21,-1
 0 22 l 1,22,-1
 0 24 l 1,23,-1
 2 24 l 1,24,-1
 2 26 l 1,25,-1
 8 26 l 1,26,-1
 8 24 l 1,27,-1
 10 24 l 1,28,-1
 10 26 l 1,13,-1
10 14 m 1,29,-1
 10 16 l 1,30,-1
 10 18 l 1,31,-1
 6 18 l 1,32,-1
 6 16 l 1,33,-1
 4 16 l 1,34,-1
 4 14 l 1,35,-1
 10 14 l 1,29,-1
EndSplineSet
EndChar

StartChar: adieresis
Encoding: 228 228 199
Width: 16
Flags: W
LayerCount: 2
Fore
SplineSet
4 22 m 1,0,-1
 12 22 l 1,1,-1
 12 20 l 1,2,-1
 14 20 l 1,3,-1
 14 16 l 1,4,-1
 14 14 l 1,5,-1
 14 12 l 1,6,-1
 4 12 l 1,7,-1
 4 14 l 1,8,-1
 2 14 l 1,9,-1
 2 16 l 1,10,-1
 4 16 l 1,11,-1
 4 18 l 1,12,-1
 10 18 l 1,13,-1
 10 20 l 1,14,-1
 4 20 l 1,15,-1
 4 22 l 1,0,-1
10 26 m 1,16,-1
 14 26 l 1,17,-1
 14 24 l 1,18,-1
 10 24 l 1,19,-1
 10 26 l 1,16,-1
2 26 m 1,20,-1
 6 26 l 1,21,-1
 6 24 l 1,22,-1
 2 24 l 1,23,-1
 2 26 l 1,20,-1
10 14 m 1,24,-1
 10 16 l 1,25,-1
 6 16 l 1,26,-1
 6 14 l 1,27,-1
 10 14 l 1,24,-1
EndSplineSet
EndChar

StartChar: aring
Encoding: 229 229 200
Width: 16
Flags: W
LayerCount: 2
Fore
SplineSet
4 20 m 1,0,-1
 14 20 l 1,1,-1
 14 18 l 1,2,-1
 14 16 l 1,3,-1
 14 14 l 1,4,-1
 14 12 l 1,5,-1
 2 12 l 1,6,-1
 2 14 l 1,7,-1
 0 14 l 1,8,-1
 0 16 l 1,9,-1
 2 16 l 1,10,-1
 2 18 l 1,11,-1
 4 18 l 1,12,-1
 4 20 l 1,0,-1
6 26 m 1,13,-1
 10 26 l 1,14,-1
 10 22 l 1,15,-1
 6 22 l 1,16,-1
 6 26 l 1,13,-1
10 14 m 1,17,-1
 10 16 l 1,18,-1
 10 18 l 1,19,-1
 6 18 l 1,20,-1
 6 16 l 1,21,-1
 4 16 l 1,22,-1
 4 14 l 1,23,-1
 10 14 l 1,17,-1
EndSplineSet
EndChar

StartChar: ae
Encoding: 230 230 201
Width: 16
Flags: W
LayerCount: 2
Fore
SplineSet
2 22 m 1,0,-1
 14 22 l 1,1,-1
 14 20 l 1,2,-1
 16 20 l 1,3,-1
 16 18 l 1,4,-1
 16 16 l 1,5,-1
 10 16 l 1,6,-1
 10 14 l 1,7,-1
 8 14 l 1,8,-1
 8 12 l 1,9,-1
 2 12 l 1,10,-1
 2 14 l 1,11,-1
 0 14 l 1,12,-1
 0 16 l 1,13,-1
 2 16 l 1,14,-1
 2 18 l 1,15,-1
 6 18 l 1,16,-1
 6 20 l 1,17,-1
 2 20 l 1,18,-1
 2 22 l 1,0,-1
10 14 m 1,19,-1
 16 14 l 1,20,-1
 16 12 l 1,21,-1
 10 12 l 1,22,-1
 10 14 l 1,19,-1
6 14 m 1,23,-1
 6 16 l 1,24,-1
 4 16 l 1,25,-1
 4 14 l 1,26,-1
 6 14 l 1,23,-1
12 18 m 1,27,-1
 12 20 l 1,28,-1
 10 20 l 1,29,-1
 10 18 l 1,30,-1
 12 18 l 1,27,-1
EndSplineSet
EndChar

StartChar: ccedilla
Encoding: 231 231 202
Width: 16
Flags: W
LayerCount: 2
Fore
SplineSet
4 22 m 1,0,-1
 12 22 l 1,1,-1
 12 20 l 1,2,-1
 6 20 l 1,3,-1
 6 14 l 1,4,-1
 12 14 l 1,5,-1
 12 12 l 1,6,-1
 10 12 l 1,7,-1
 10 10 l 1,8,-1
 6 10 l 1,9,-1
 6 12 l 1,10,-1
 4 12 l 1,11,-1
 4 14 l 1,12,-1
 2 14 l 1,13,-1
 2 20 l 1,14,-1
 4 20 l 1,15,-1
 4 22 l 1,0,-1
EndSplineSet
EndChar

StartChar: egrave
Encoding: 232 232 203
Width: 16
Flags: W
LayerCount: 2
Fore
SplineSet
4 22 m 1,0,-1
 12 22 l 1,1,-1
 12 20 l 1,2,-1
 14 20 l 1,3,-1
 14 18 l 1,4,-1
 14 16 l 1,5,-1
 6 16 l 1,6,-1
 6 14 l 1,7,-1
 12 14 l 1,8,-1
 12 12 l 1,9,-1
 4 12 l 1,10,-1
 4 14 l 1,11,-1
 2 14 l 1,12,-1
 2 16 l 1,13,-1
 2 20 l 1,14,-1
 4 20 l 1,15,-1
 4 22 l 1,0,-1
2 26 m 1,16,-1
 8 26 l 1,17,-1
 8 24 l 1,18,-1
 2 24 l 1,19,-1
 2 26 l 1,16,-1
10 18 m 1,20,-1
 10 20 l 1,21,-1
 6 20 l 1,22,-1
 6 18 l 1,23,-1
 10 18 l 1,20,-1
EndSplineSet
EndChar

StartChar: eacute
Encoding: 233 233 204
Width: 16
Flags: W
LayerCount: 2
Fore
SplineSet
4 22 m 1,0,-1
 12 22 l 1,1,-1
 12 20 l 1,2,-1
 14 20 l 1,3,-1
 14 18 l 1,4,-1
 14 16 l 1,5,-1
 6 16 l 1,6,-1
 6 14 l 1,7,-1
 12 14 l 1,8,-1
 12 12 l 1,9,-1
 4 12 l 1,10,-1
 4 14 l 1,11,-1
 2 14 l 1,12,-1
 2 16 l 1,13,-1
 2 20 l 1,14,-1
 4 20 l 1,15,-1
 4 22 l 1,0,-1
8 26 m 1,16,-1
 14 26 l 1,17,-1
 14 24 l 1,18,-1
 8 24 l 1,19,-1
 8 26 l 1,16,-1
10 18 m 1,20,-1
 10 20 l 1,21,-1
 6 20 l 1,22,-1
 6 18 l 1,23,-1
 10 18 l 1,20,-1
EndSplineSet
EndChar

StartChar: ecircumflex
Encoding: 234 234 205
Width: 16
Flags: W
LayerCount: 2
Fore
SplineSet
4 20 m 1,0,-1
 12 20 l 1,1,-1
 12 18 l 1,2,-1
 14 18 l 1,3,-1
 14 16 l 1,4,-1
 6 16 l 1,5,-1
 6 14 l 1,6,-1
 12 14 l 1,7,-1
 12 12 l 1,8,-1
 4 12 l 1,9,-1
 4 14 l 1,10,-1
 2 14 l 1,11,-1
 2 16 l 1,12,-1
 2 18 l 1,13,-1
 4 18 l 1,14,-1
 4 20 l 1,0,-1
6 26 m 1,15,-1
 10 26 l 1,16,-1
 10 24 l 1,17,-1
 14 24 l 1,18,-1
 14 22 l 1,19,-1
 10 22 l 1,20,-1
 10 24 l 1,21,-1
 6 24 l 1,22,-1
 6 22 l 1,23,-1
 2 22 l 1,24,-1
 2 24 l 1,25,-1
 6 24 l 1,26,-1
 6 26 l 1,15,-1
EndSplineSet
EndChar

StartChar: edieresis
Encoding: 235 235 206
Width: 16
Flags: W
LayerCount: 2
Fore
SplineSet
4 22 m 1,0,-1
 12 22 l 1,1,-1
 12 20 l 1,2,-1
 14 20 l 1,3,-1
 14 18 l 1,4,-1
 14 16 l 1,5,-1
 6 16 l 1,6,-1
 6 14 l 1,7,-1
 12 14 l 1,8,-1
 12 12 l 1,9,-1
 4 12 l 1,10,-1
 4 14 l 1,11,-1
 2 14 l 1,12,-1
 2 16 l 1,13,-1
 2 20 l 1,14,-1
 4 20 l 1,15,-1
 4 22 l 1,0,-1
10 26 m 1,16,-1
 14 26 l 1,17,-1
 14 24 l 1,18,-1
 10 24 l 1,19,-1
 10 26 l 1,16,-1
2 26 m 1,20,-1
 6 26 l 1,21,-1
 6 24 l 1,22,-1
 2 24 l 1,23,-1
 2 26 l 1,20,-1
10 18 m 1,24,-1
 10 20 l 1,25,-1
 6 20 l 1,26,-1
 6 18 l 1,27,-1
 10 18 l 1,24,-1
EndSplineSet
EndChar

StartChar: igrave
Encoding: 236 236 207
Width: 16
Flags: W
LayerCount: 2
Fore
SplineSet
4 22 m 1,0,-1
 10 22 l 1,1,-1
 10 14 l 1,2,-1
 12 14 l 1,3,-1
 12 12 l 1,4,-1
 4 12 l 1,5,-1
 4 14 l 1,6,-1
 6 14 l 1,7,-1
 6 20 l 1,8,-1
 4 20 l 1,9,-1
 4 22 l 1,0,-1
2 26 m 1,10,-1
 8 26 l 1,11,-1
 8 24 l 1,12,-1
 2 24 l 1,13,-1
 2 26 l 1,10,-1
EndSplineSet
EndChar

StartChar: iacute
Encoding: 237 237 208
Width: 16
Flags: W
LayerCount: 2
Fore
SplineSet
4 22 m 1,0,-1
 10 22 l 1,1,-1
 10 14 l 1,2,-1
 12 14 l 1,3,-1
 12 12 l 1,4,-1
 4 12 l 1,5,-1
 4 14 l 1,6,-1
 6 14 l 1,7,-1
 6 20 l 1,8,-1
 4 20 l 1,9,-1
 4 22 l 1,0,-1
8 26 m 1,10,-1
 14 26 l 1,11,-1
 14 24 l 1,12,-1
 8 24 l 1,13,-1
 8 26 l 1,10,-1
EndSplineSet
EndChar

StartChar: icircumflex
Encoding: 238 238 209
Width: 16
Flags: W
LayerCount: 2
Fore
SplineSet
4 20 m 1,0,-1
 10 20 l 1,1,-1
 10 14 l 1,2,-1
 12 14 l 1,3,-1
 12 12 l 1,4,-1
 4 12 l 1,5,-1
 4 14 l 1,6,-1
 6 14 l 1,7,-1
 6 18 l 1,8,-1
 4 18 l 1,9,-1
 4 20 l 1,0,-1
6 26 m 1,10,-1
 10 26 l 1,11,-1
 10 24 l 1,12,-1
 14 24 l 1,13,-1
 14 22 l 1,14,-1
 10 22 l 1,15,-1
 10 24 l 1,16,-1
 6 24 l 1,17,-1
 6 22 l 1,18,-1
 2 22 l 1,19,-1
 2 24 l 1,20,-1
 6 24 l 1,21,-1
 6 26 l 1,10,-1
EndSplineSet
EndChar

StartChar: idieresis
Encoding: 239 239 210
Width: 16
Flags: W
LayerCount: 2
Fore
SplineSet
4 22 m 1,0,-1
 10 22 l 1,1,-1
 10 14 l 1,2,-1
 12 14 l 1,3,-1
 12 12 l 1,4,-1
 4 12 l 1,5,-1
 4 14 l 1,6,-1
 6 14 l 1,7,-1
 6 20 l 1,8,-1
 4 20 l 1,9,-1
 4 22 l 1,0,-1
10 26 m 1,10,-1
 14 26 l 1,11,-1
 14 24 l 1,12,-1
 10 24 l 1,13,-1
 10 26 l 1,10,-1
2 26 m 1,14,-1
 6 26 l 1,15,-1
 6 24 l 1,16,-1
 2 24 l 1,17,-1
 2 26 l 1,14,-1
EndSplineSet
EndChar

StartChar: eth
Encoding: 240 240 211
Width: 16
Flags: W
LayerCount: 2
Fore
SplineSet
8 26 m 1,0,-1
 12 26 l 1,1,-1
 12 24 l 1,2,-1
 14 24 l 1,3,-1
 14 22 l 1,4,-1
 12 22 l 1,5,-1
 12 18 l 1,6,-1
 12 14 l 1,7,-1
 10 14 l 1,8,-1
 10 12 l 1,9,-1
 2 12 l 1,10,-1
 2 14 l 1,11,-1
 0 14 l 1,12,-1
 0 18 l 1,13,-1
 2 18 l 1,14,-1
 2 20 l 1,15,-1
 8 20 l 1,16,-1
 8 22 l 1,17,-1
 4 22 l 1,18,-1
 4 24 l 1,19,-1
 8 24 l 1,20,-1
 8 26 l 1,0,-1
8 14 m 1,21,-1
 8 18 l 1,22,-1
 4 18 l 1,23,-1
 4 14 l 1,24,-1
 8 14 l 1,21,-1
EndSplineSet
EndChar

StartChar: ntilde
Encoding: 241 241 212
Width: 16
Flags: W
LayerCount: 2
Fore
SplineSet
2 20 m 1,0,-1
 12 20 l 1,1,-1
 12 18 l 1,2,-1
 14 18 l 1,3,-1
 14 12 l 1,4,-1
 10 12 l 1,5,-1
 10 18 l 1,6,-1
 6 18 l 1,7,-1
 6 12 l 1,8,-1
 2 12 l 1,9,-1
 2 18 l 1,10,-1
 2 20 l 1,0,-1
10 26 m 1,11,-1
 14 26 l 1,12,-1
 14 24 l 1,13,-1
 12 24 l 1,14,-1
 12 22 l 1,15,-1
 6 22 l 1,16,-1
 6 24 l 1,17,-1
 4 24 l 1,18,-1
 4 22 l 1,19,-1
 0 22 l 1,20,-1
 0 24 l 1,21,-1
 2 24 l 1,22,-1
 2 26 l 1,23,-1
 8 26 l 1,24,-1
 8 24 l 1,25,-1
 10 24 l 1,26,-1
 10 26 l 1,11,-1
EndSplineSet
EndChar

StartChar: ograve
Encoding: 242 242 213
Width: 16
Flags: W
LayerCount: 2
Fore
SplineSet
4 22 m 1,0,-1
 12 22 l 1,1,-1
 12 20 l 1,2,-1
 14 20 l 1,3,-1
 14 14 l 1,4,-1
 12 14 l 1,5,-1
 12 12 l 1,6,-1
 4 12 l 1,7,-1
 4 14 l 1,8,-1
 2 14 l 1,9,-1
 2 20 l 1,10,-1
 4 20 l 1,11,-1
 4 22 l 1,0,-1
2 26 m 1,12,-1
 8 26 l 1,13,-1
 8 24 l 1,14,-1
 2 24 l 1,15,-1
 2 26 l 1,12,-1
10 14 m 1,16,-1
 10 20 l 1,17,-1
 6 20 l 1,18,-1
 6 14 l 1,19,-1
 10 14 l 1,16,-1
EndSplineSet
EndChar

StartChar: oacute
Encoding: 243 243 214
Width: 16
Flags: W
LayerCount: 2
Fore
SplineSet
4 22 m 1,0,-1
 12 22 l 1,1,-1
 12 20 l 1,2,-1
 14 20 l 1,3,-1
 14 14 l 1,4,-1
 12 14 l 1,5,-1
 12 12 l 1,6,-1
 4 12 l 1,7,-1
 4 14 l 1,8,-1
 2 14 l 1,9,-1
 2 20 l 1,10,-1
 4 20 l 1,11,-1
 4 22 l 1,0,-1
8 26 m 1,12,-1
 14 26 l 1,13,-1
 14 24 l 1,14,-1
 8 24 l 1,15,-1
 8 26 l 1,12,-1
10 14 m 1,16,-1
 10 20 l 1,17,-1
 6 20 l 1,18,-1
 6 14 l 1,19,-1
 10 14 l 1,16,-1
EndSplineSet
EndChar

StartChar: ocircumflex
Encoding: 244 244 215
Width: 16
Flags: W
LayerCount: 2
Fore
SplineSet
4 20 m 1,0,-1
 12 20 l 1,1,-1
 12 18 l 1,2,-1
 14 18 l 1,3,-1
 14 14 l 1,4,-1
 12 14 l 1,5,-1
 12 12 l 1,6,-1
 4 12 l 1,7,-1
 4 14 l 1,8,-1
 2 14 l 1,9,-1
 2 18 l 1,10,-1
 4 18 l 1,11,-1
 4 20 l 1,0,-1
6 26 m 1,12,-1
 10 26 l 1,13,-1
 10 24 l 1,14,-1
 14 24 l 1,15,-1
 14 22 l 1,16,-1
 10 22 l 1,17,-1
 10 24 l 1,18,-1
 6 24 l 1,19,-1
 6 22 l 1,20,-1
 2 22 l 1,21,-1
 2 24 l 1,22,-1
 6 24 l 1,23,-1
 6 26 l 1,12,-1
10 14 m 1,24,-1
 10 18 l 1,25,-1
 6 18 l 1,26,-1
 6 14 l 1,27,-1
 10 14 l 1,24,-1
EndSplineSet
EndChar

StartChar: otilde
Encoding: 245 245 216
Width: 16
Flags: W
LayerCount: 2
Fore
SplineSet
4 20 m 1,0,-1
 12 20 l 1,1,-1
 12 18 l 1,2,-1
 14 18 l 1,3,-1
 14 14 l 1,4,-1
 12 14 l 1,5,-1
 12 12 l 1,6,-1
 4 12 l 1,7,-1
 4 14 l 1,8,-1
 2 14 l 1,9,-1
 2 18 l 1,10,-1
 4 18 l 1,11,-1
 4 20 l 1,0,-1
10 26 m 1,12,-1
 14 26 l 1,13,-1
 14 24 l 1,14,-1
 12 24 l 1,15,-1
 12 22 l 1,16,-1
 6 22 l 1,17,-1
 6 24 l 1,18,-1
 4 24 l 1,19,-1
 4 22 l 1,20,-1
 0 22 l 1,21,-1
 0 24 l 1,22,-1
 2 24 l 1,23,-1
 2 26 l 1,24,-1
 8 26 l 1,25,-1
 8 24 l 1,26,-1
 10 24 l 1,27,-1
 10 26 l 1,12,-1
10 14 m 1,28,-1
 10 18 l 1,29,-1
 6 18 l 1,30,-1
 6 14 l 1,31,-1
 10 14 l 1,28,-1
EndSplineSet
EndChar

StartChar: odieresis
Encoding: 246 246 217
Width: 16
Flags: W
LayerCount: 2
Fore
SplineSet
4 22 m 1,0,-1
 12 22 l 1,1,-1
 12 20 l 1,2,-1
 14 20 l 1,3,-1
 14 14 l 1,4,-1
 12 14 l 1,5,-1
 12 12 l 1,6,-1
 4 12 l 1,7,-1
 4 14 l 1,8,-1
 2 14 l 1,9,-1
 2 20 l 1,10,-1
 4 20 l 1,11,-1
 4 22 l 1,0,-1
10 26 m 1,12,-1
 14 26 l 1,13,-1
 14 24 l 1,14,-1
 10 24 l 1,15,-1
 10 26 l 1,12,-1
2 26 m 1,16,-1
 6 26 l 1,17,-1
 6 24 l 1,18,-1
 2 24 l 1,19,-1
 2 26 l 1,16,-1
10 14 m 1,20,-1
 10 20 l 1,21,-1
 6 20 l 1,22,-1
 6 14 l 1,23,-1
 10 14 l 1,20,-1
EndSplineSet
EndChar

StartChar: divide
Encoding: 247 247 218
Width: 16
Flags: W
LayerCount: 2
Fore
SplineSet
6 16 m 1,0,-1
 10 16 l 1,1,-1
 10 12 l 1,2,-1
 6 12 l 1,3,-1
 6 16 l 1,0,-1
2 20 m 1,4,-1
 14 20 l 1,5,-1
 14 18 l 1,6,-1
 2 18 l 1,7,-1
 2 20 l 1,4,-1
6 26 m 1,8,-1
 10 26 l 1,9,-1
 10 22 l 1,10,-1
 6 22 l 1,11,-1
 6 26 l 1,8,-1
EndSplineSet
EndChar

StartChar: oslash
Encoding: 248 248 219
Width: 16
Flags: W
LayerCount: 2
Fore
SplineSet
12 24 m 1,0,-1
 14 24 l 1,1,-1
 14 22 l 1,2,-1
 12 22 l 1,3,-1
 12 20 l 1,4,-1
 14 20 l 1,5,-1
 14 18 l 1,6,-1
 14 14 l 1,7,-1
 12 14 l 1,8,-1
 12 12 l 1,9,-1
 2 12 l 1,10,-1
 2 10 l 1,11,-1
 0 10 l 1,12,-1
 0 12 l 1,13,-1
 2 12 l 1,14,-1
 2 14 l 1,15,-1
 0 14 l 1,16,-1
 0 20 l 1,17,-1
 2 20 l 1,18,-1
 2 22 l 1,19,-1
 12 22 l 1,20,-1
 12 24 l 1,0,-1
8 18 m 1,21,-1
 8 16 l 1,22,-1
 6 16 l 1,23,-1
 6 18 l 1,24,-1
 8 18 l 1,21,-1
8 18 m 1,25,-1
 8 20 l 1,26,-1
 4 20 l 1,27,-1
 4 16 l 1,28,-1
 6 16 l 1,29,-1
 6 14 l 1,30,-1
 10 14 l 1,31,-1
 10 18 l 1,32,-1
 8 18 l 1,25,-1
EndSplineSet
EndChar

StartChar: ugrave
Encoding: 249 249 220
Width: 16
Flags: W
LayerCount: 2
Fore
SplineSet
10 22 m 1,0,-1
 14 22 l 1,1,-1
 14 14 l 1,2,-1
 14 12 l 1,3,-1
 4 12 l 1,4,-1
 4 14 l 1,5,-1
 2 14 l 1,6,-1
 2 22 l 1,7,-1
 6 22 l 1,8,-1
 6 14 l 1,9,-1
 10 14 l 1,10,-1
 10 22 l 1,0,-1
2 26 m 1,11,-1
 8 26 l 1,12,-1
 8 24 l 1,13,-1
 2 24 l 1,14,-1
 2 26 l 1,11,-1
EndSplineSet
EndChar

StartChar: uacute
Encoding: 250 250 221
Width: 16
Flags: W
LayerCount: 2
Fore
SplineSet
10 22 m 1,0,-1
 14 22 l 1,1,-1
 14 14 l 1,2,-1
 14 12 l 1,3,-1
 4 12 l 1,4,-1
 4 14 l 1,5,-1
 2 14 l 1,6,-1
 2 22 l 1,7,-1
 6 22 l 1,8,-1
 6 14 l 1,9,-1
 10 14 l 1,10,-1
 10 22 l 1,0,-1
8 26 m 1,11,-1
 14 26 l 1,12,-1
 14 24 l 1,13,-1
 8 24 l 1,14,-1
 8 26 l 1,11,-1
EndSplineSet
EndChar

StartChar: ucircumflex
Encoding: 251 251 222
Width: 16
Flags: W
LayerCount: 2
Fore
SplineSet
10 20 m 1,0,-1
 14 20 l 1,1,-1
 14 14 l 1,2,-1
 14 12 l 1,3,-1
 4 12 l 1,4,-1
 4 14 l 1,5,-1
 2 14 l 1,6,-1
 2 20 l 1,7,-1
 6 20 l 1,8,-1
 6 14 l 1,9,-1
 10 14 l 1,10,-1
 10 20 l 1,0,-1
6 26 m 1,11,-1
 10 26 l 1,12,-1
 10 24 l 1,13,-1
 14 24 l 1,14,-1
 14 22 l 1,15,-1
 10 22 l 1,16,-1
 10 24 l 1,17,-1
 6 24 l 1,18,-1
 6 22 l 1,19,-1
 2 22 l 1,20,-1
 2 24 l 1,21,-1
 6 24 l 1,22,-1
 6 26 l 1,11,-1
EndSplineSet
EndChar

StartChar: udieresis
Encoding: 252 252 223
Width: 16
Flags: W
LayerCount: 2
Fore
SplineSet
10 22 m 1,0,-1
 14 22 l 1,1,-1
 14 14 l 1,2,-1
 14 12 l 1,3,-1
 4 12 l 1,4,-1
 4 14 l 1,5,-1
 2 14 l 1,6,-1
 2 22 l 1,7,-1
 6 22 l 1,8,-1
 6 14 l 1,9,-1
 10 14 l 1,10,-1
 10 22 l 1,0,-1
10 26 m 1,11,-1
 14 26 l 1,12,-1
 14 24 l 1,13,-1
 10 24 l 1,14,-1
 10 26 l 1,11,-1
2 26 m 1,15,-1
 6 26 l 1,16,-1
 6 24 l 1,17,-1
 2 24 l 1,18,-1
 2 26 l 1,15,-1
EndSplineSet
EndChar

StartChar: yacute
Encoding: 253 253 224
Width: 16
Flags: W
LayerCount: 2
Fore
SplineSet
10 22 m 1,0,-1
 14 22 l 1,1,-1
 14 16 l 1,2,-1
 14 12 l 1,3,-1
 12 12 l 1,4,-1
 12 10 l 1,5,-1
 4 10 l 1,6,-1
 4 12 l 1,7,-1
 10 12 l 1,8,-1
 10 14 l 1,9,-1
 4 14 l 1,10,-1
 4 16 l 1,11,-1
 2 16 l 1,12,-1
 2 22 l 1,13,-1
 6 22 l 1,14,-1
 6 16 l 1,15,-1
 10 16 l 1,16,-1
 10 22 l 1,0,-1
8 26 m 1,17,-1
 14 26 l 1,18,-1
 14 24 l 1,19,-1
 8 24 l 1,20,-1
 8 26 l 1,17,-1
EndSplineSet
EndChar

StartChar: thorn
Encoding: 254 254 225
Width: 16
Flags: W
LayerCount: 2
Fore
SplineSet
2 26 m 1,0,-1
 6 26 l 1,1,-1
 6 22 l 1,2,-1
 12 22 l 1,3,-1
 12 20 l 1,4,-1
 14 20 l 1,5,-1
 14 16 l 1,6,-1
 12 16 l 1,7,-1
 12 14 l 1,8,-1
 6 14 l 1,9,-1
 6 10 l 1,10,-1
 2 10 l 1,11,-1
 2 14 l 1,12,-1
 2 20 l 1,13,-1
 2 26 l 1,0,-1
10 16 m 1,14,-1
 10 20 l 1,15,-1
 6 20 l 1,16,-1
 6 16 l 1,17,-1
 10 16 l 1,14,-1
EndSplineSet
EndChar

StartChar: ydieresis
Encoding: 255 255 226
Width: 16
Flags: W
LayerCount: 2
Fore
SplineSet
10 22 m 1,0,-1
 14 22 l 1,1,-1
 14 16 l 1,2,-1
 14 12 l 1,3,-1
 12 12 l 1,4,-1
 12 10 l 1,5,-1
 4 10 l 1,6,-1
 4 12 l 1,7,-1
 10 12 l 1,8,-1
 10 14 l 1,9,-1
 4 14 l 1,10,-1
 4 16 l 1,11,-1
 2 16 l 1,12,-1
 2 22 l 1,13,-1
 6 22 l 1,14,-1
 6 16 l 1,15,-1
 10 16 l 1,16,-1
 10 22 l 1,0,-1
10 26 m 1,17,-1
 14 26 l 1,18,-1
 14 24 l 1,19,-1
 10 24 l 1,20,-1
 10 26 l 1,17,-1
2 26 m 1,21,-1
 6 26 l 1,22,-1
 6 24 l 1,23,-1
 2 24 l 1,24,-1
 2 26 l 1,21,-1
EndSplineSet
EndChar

StartChar: Amacron
Encoding: 256 256 227
Width: 16
Flags: W
LayerCount: 2
Fore
SplineSet
4 22 m 1,0,-1
 12 22 l 1,1,-1
 12 20 l 1,2,-1
 14 20 l 1,3,-1
 14 18 l 1,4,-1
 14 16 l 1,5,-1
 14 12 l 1,6,-1
 10 12 l 1,7,-1
 10 16 l 1,8,-1
 6 16 l 1,9,-1
 6 12 l 1,10,-1
 2 12 l 1,11,-1
 2 16 l 1,12,-1
 2 20 l 1,13,-1
 4 20 l 1,14,-1
 4 22 l 1,0,-1
2 26 m 1,15,-1
 14 26 l 1,16,-1
 14 24 l 1,17,-1
 2 24 l 1,18,-1
 2 26 l 1,15,-1
10 18 m 1,19,-1
 10 20 l 1,20,-1
 6 20 l 1,21,-1
 6 18 l 1,22,-1
 10 18 l 1,19,-1
EndSplineSet
EndChar

StartChar: amacron
Encoding: 257 257 228
Width: 16
Flags: W
LayerCount: 2
Fore
SplineSet
4 22 m 1,0,-1
 12 22 l 1,1,-1
 12 20 l 1,2,-1
 14 20 l 1,3,-1
 14 16 l 1,4,-1
 14 14 l 1,5,-1
 14 12 l 1,6,-1
 4 12 l 1,7,-1
 4 14 l 1,8,-1
 2 14 l 1,9,-1
 2 16 l 1,10,-1
 4 16 l 1,11,-1
 4 18 l 1,12,-1
 10 18 l 1,13,-1
 10 20 l 1,14,-1
 4 20 l 1,15,-1
 4 22 l 1,0,-1
2 26 m 1,16,-1
 14 26 l 1,17,-1
 14 24 l 1,18,-1
 2 24 l 1,19,-1
 2 26 l 1,16,-1
10 14 m 1,20,-1
 10 16 l 1,21,-1
 6 16 l 1,22,-1
 6 14 l 1,23,-1
 10 14 l 1,20,-1
EndSplineSet
EndChar

StartChar: Abreve
Encoding: 258 258 229
Width: 16
Flags: W
LayerCount: 2
Fore
SplineSet
4 20 m 1,0,-1
 12 20 l 1,1,-1
 12 18 l 1,2,-1
 14 18 l 1,3,-1
 14 16 l 1,4,-1
 14 14 l 1,5,-1
 14 12 l 1,6,-1
 10 12 l 1,7,-1
 10 14 l 1,8,-1
 6 14 l 1,9,-1
 6 12 l 1,10,-1
 2 12 l 1,11,-1
 2 14 l 1,12,-1
 2 18 l 1,13,-1
 4 18 l 1,14,-1
 4 20 l 1,0,-1
10 26 m 1,15,-1
 14 26 l 1,16,-1
 14 24 l 1,17,-1
 12 24 l 1,18,-1
 12 22 l 1,19,-1
 2 22 l 1,20,-1
 2 24 l 1,21,-1
 0 24 l 1,22,-1
 0 26 l 1,23,-1
 4 26 l 1,24,-1
 4 24 l 1,25,-1
 10 24 l 1,26,-1
 10 26 l 1,15,-1
10 16 m 1,27,-1
 10 18 l 1,28,-1
 6 18 l 1,29,-1
 6 16 l 1,30,-1
 10 16 l 1,27,-1
EndSplineSet
EndChar

StartChar: abreve
Encoding: 259 259 230
Width: 16
Flags: W
LayerCount: 2
Fore
SplineSet
4 20 m 1,0,-1
 14 20 l 1,1,-1
 14 18 l 1,2,-1
 14 16 l 1,3,-1
 14 14 l 1,4,-1
 14 12 l 1,5,-1
 2 12 l 1,6,-1
 2 14 l 1,7,-1
 0 14 l 1,8,-1
 0 16 l 1,9,-1
 2 16 l 1,10,-1
 2 18 l 1,11,-1
 4 18 l 1,12,-1
 4 20 l 1,0,-1
10 26 m 1,13,-1
 14 26 l 1,14,-1
 14 24 l 1,15,-1
 12 24 l 1,16,-1
 12 22 l 1,17,-1
 2 22 l 1,18,-1
 2 24 l 1,19,-1
 0 24 l 1,20,-1
 0 26 l 1,21,-1
 4 26 l 1,22,-1
 4 24 l 1,23,-1
 10 24 l 1,24,-1
 10 26 l 1,13,-1
10 14 m 1,25,-1
 10 16 l 1,26,-1
 10 18 l 1,27,-1
 6 18 l 1,28,-1
 6 16 l 1,29,-1
 4 16 l 1,30,-1
 4 14 l 1,31,-1
 10 14 l 1,25,-1
EndSplineSet
EndChar

StartChar: Aogonek
Encoding: 260 260 231
Width: 16
Flags: W
LayerCount: 2
Fore
SplineSet
6 26 m 1,0,-1
 10 26 l 1,1,-1
 10 24 l 1,2,-1
 12 24 l 1,3,-1
 12 22 l 1,4,-1
 14 22 l 1,5,-1
 14 18 l 1,6,-1
 14 16 l 1,7,-1
 14 10 l 1,8,-1
 8 10 l 1,9,-1
 8 12 l 1,10,-1
 10 12 l 1,11,-1
 10 16 l 1,12,-1
 6 16 l 1,13,-1
 6 12 l 1,14,-1
 2 12 l 1,15,-1
 2 16 l 1,16,-1
 2 22 l 1,17,-1
 4 22 l 1,18,-1
 4 24 l 1,19,-1
 6 24 l 1,20,-1
 6 26 l 1,0,-1
10 18 m 1,21,-1
 10 22 l 1,22,-1
 6 22 l 1,23,-1
 6 18 l 1,24,-1
 10 18 l 1,21,-1
EndSplineSet
EndChar

StartChar: aogonek
Encoding: 261 261 232
Width: 16
Flags: W
LayerCount: 2
Fore
SplineSet
4 22 m 1,0,-1
 12 22 l 1,1,-1
 12 20 l 1,2,-1
 14 20 l 1,3,-1
 14 16 l 1,4,-1
 14 14 l 1,5,-1
 14 10 l 1,6,-1
 8 10 l 1,7,-1
 8 12 l 1,8,-1
 4 12 l 1,9,-1
 4 14 l 1,10,-1
 2 14 l 1,11,-1
 2 16 l 1,12,-1
 4 16 l 1,13,-1
 4 18 l 1,14,-1
 10 18 l 1,15,-1
 10 20 l 1,16,-1
 4 20 l 1,17,-1
 4 22 l 1,0,-1
10 14 m 1,18,-1
 10 16 l 1,19,-1
 6 16 l 1,20,-1
 6 14 l 1,21,-1
 10 14 l 1,18,-1
EndSplineSet
EndChar

StartChar: Cacute
Encoding: 262 262 233
Width: 16
Flags: W
LayerCount: 2
Fore
SplineSet
2 22 m 1,0,-1
 14 22 l 1,1,-1
 14 20 l 1,2,-1
 4 20 l 1,3,-1
 4 14 l 1,4,-1
 14 14 l 1,5,-1
 14 12 l 1,6,-1
 2 12 l 1,7,-1
 2 14 l 1,8,-1
 0 14 l 1,9,-1
 0 20 l 1,10,-1
 2 20 l 1,11,-1
 2 22 l 1,0,-1
8 26 m 1,12,-1
 14 26 l 1,13,-1
 14 24 l 1,14,-1
 8 24 l 1,15,-1
 8 26 l 1,12,-1
EndSplineSet
EndChar

StartChar: cacute
Encoding: 263 263 234
Width: 16
Flags: W
LayerCount: 2
Fore
SplineSet
4 22 m 1,0,-1
 12 22 l 1,1,-1
 12 20 l 1,2,-1
 6 20 l 1,3,-1
 6 14 l 1,4,-1
 12 14 l 1,5,-1
 12 12 l 1,6,-1
 4 12 l 1,7,-1
 4 14 l 1,8,-1
 2 14 l 1,9,-1
 2 20 l 1,10,-1
 4 20 l 1,11,-1
 4 22 l 1,0,-1
8 26 m 1,12,-1
 14 26 l 1,13,-1
 14 24 l 1,14,-1
 8 24 l 1,15,-1
 8 26 l 1,12,-1
EndSplineSet
EndChar

StartChar: Ccircumflex
Encoding: 264 264 235
Width: 16
Flags: W
LayerCount: 2
Fore
SplineSet
2 20 m 1,0,-1
 14 20 l 1,1,-1
 14 18 l 1,2,-1
 4 18 l 1,3,-1
 4 14 l 1,4,-1
 14 14 l 1,5,-1
 14 12 l 1,6,-1
 2 12 l 1,7,-1
 2 14 l 1,8,-1
 0 14 l 1,9,-1
 0 18 l 1,10,-1
 2 18 l 1,11,-1
 2 20 l 1,0,-1
6 26 m 1,12,-1
 10 26 l 1,13,-1
 10 24 l 1,14,-1
 14 24 l 1,15,-1
 14 22 l 1,16,-1
 10 22 l 1,17,-1
 10 24 l 1,18,-1
 6 24 l 1,19,-1
 6 22 l 1,20,-1
 2 22 l 1,21,-1
 2 24 l 1,22,-1
 6 24 l 1,23,-1
 6 26 l 1,12,-1
EndSplineSet
EndChar

StartChar: ccircumflex
Encoding: 265 265 236
Width: 16
Flags: W
LayerCount: 2
Fore
SplineSet
4 20 m 1,0,-1
 12 20 l 1,1,-1
 12 18 l 1,2,-1
 6 18 l 1,3,-1
 6 14 l 1,4,-1
 12 14 l 1,5,-1
 12 12 l 1,6,-1
 4 12 l 1,7,-1
 4 14 l 1,8,-1
 2 14 l 1,9,-1
 2 18 l 1,10,-1
 4 18 l 1,11,-1
 4 20 l 1,0,-1
6 26 m 1,12,-1
 10 26 l 1,13,-1
 10 24 l 1,14,-1
 14 24 l 1,15,-1
 14 22 l 1,16,-1
 10 22 l 1,17,-1
 10 24 l 1,18,-1
 6 24 l 1,19,-1
 6 22 l 1,20,-1
 2 22 l 1,21,-1
 2 24 l 1,22,-1
 6 24 l 1,23,-1
 6 26 l 1,12,-1
EndSplineSet
EndChar

StartChar: Cdotaccent
Encoding: 266 266 237
Width: 16
Flags: W
LayerCount: 2
Fore
SplineSet
2 22 m 1,0,-1
 14 22 l 1,1,-1
 14 20 l 1,2,-1
 4 20 l 1,3,-1
 4 14 l 1,4,-1
 14 14 l 1,5,-1
 14 12 l 1,6,-1
 2 12 l 1,7,-1
 2 14 l 1,8,-1
 0 14 l 1,9,-1
 0 20 l 1,10,-1
 2 20 l 1,11,-1
 2 22 l 1,0,-1
6 26 m 1,12,-1
 10 26 l 1,13,-1
 10 24 l 1,14,-1
 6 24 l 1,15,-1
 6 26 l 1,12,-1
EndSplineSet
EndChar

StartChar: cdotaccent
Encoding: 267 267 238
Width: 16
Flags: W
LayerCount: 2
Fore
SplineSet
4 22 m 1,0,-1
 12 22 l 1,1,-1
 12 20 l 1,2,-1
 6 20 l 1,3,-1
 6 14 l 1,4,-1
 12 14 l 1,5,-1
 12 12 l 1,6,-1
 4 12 l 1,7,-1
 4 14 l 1,8,-1
 2 14 l 1,9,-1
 2 20 l 1,10,-1
 4 20 l 1,11,-1
 4 22 l 1,0,-1
6 26 m 1,12,-1
 10 26 l 1,13,-1
 10 24 l 1,14,-1
 6 24 l 1,15,-1
 6 26 l 1,12,-1
EndSplineSet
EndChar

StartChar: Ccaron
Encoding: 268 268 239
Width: 16
Flags: W
LayerCount: 2
Fore
SplineSet
2 20 m 1,0,-1
 14 20 l 1,1,-1
 14 18 l 1,2,-1
 4 18 l 1,3,-1
 4 14 l 1,4,-1
 14 14 l 1,5,-1
 14 12 l 1,6,-1
 2 12 l 1,7,-1
 2 14 l 1,8,-1
 0 14 l 1,9,-1
 0 18 l 1,10,-1
 2 18 l 1,11,-1
 2 20 l 1,0,-1
10 26 m 1,12,-1
 14 26 l 1,13,-1
 14 24 l 1,14,-1
 10 24 l 1,15,-1
 10 26 l 1,12,-1
2 26 m 1,16,-1
 6 26 l 1,17,-1
 6 24 l 1,18,-1
 2 24 l 1,19,-1
 2 26 l 1,16,-1
10 24 m 1,20,-1
 10 22 l 1,21,-1
 6 22 l 1,22,-1
 6 24 l 1,23,-1
 10 24 l 1,20,-1
EndSplineSet
EndChar

StartChar: ccaron
Encoding: 269 269 240
Width: 16
Flags: W
LayerCount: 2
Fore
SplineSet
4 20 m 1,0,-1
 12 20 l 1,1,-1
 12 18 l 1,2,-1
 6 18 l 1,3,-1
 6 14 l 1,4,-1
 12 14 l 1,5,-1
 12 12 l 1,6,-1
 4 12 l 1,7,-1
 4 14 l 1,8,-1
 2 14 l 1,9,-1
 2 18 l 1,10,-1
 4 18 l 1,11,-1
 4 20 l 1,0,-1
10 26 m 1,12,-1
 14 26 l 1,13,-1
 14 24 l 1,14,-1
 10 24 l 1,15,-1
 10 26 l 1,12,-1
2 26 m 1,16,-1
 6 26 l 1,17,-1
 6 24 l 1,18,-1
 2 24 l 1,19,-1
 2 26 l 1,16,-1
10 24 m 1,20,-1
 10 22 l 1,21,-1
 6 22 l 1,22,-1
 6 24 l 1,23,-1
 10 24 l 1,20,-1
EndSplineSet
EndChar

StartChar: Dcaron
Encoding: 270 270 241
Width: 16
Flags: W
LayerCount: 2
Fore
SplineSet
2 20 m 1,0,-1
 12 20 l 1,1,-1
 12 18 l 1,2,-1
 14 18 l 1,3,-1
 14 14 l 1,4,-1
 12 14 l 1,5,-1
 12 12 l 1,6,-1
 2 12 l 1,7,-1
 2 18 l 1,8,-1
 2 20 l 1,0,-1
10 26 m 1,9,-1
 14 26 l 1,10,-1
 14 24 l 1,11,-1
 10 24 l 1,12,-1
 10 26 l 1,9,-1
2 26 m 1,13,-1
 6 26 l 1,14,-1
 6 24 l 1,15,-1
 2 24 l 1,16,-1
 2 26 l 1,13,-1
10 14 m 1,17,-1
 10 18 l 1,18,-1
 6 18 l 1,19,-1
 6 14 l 1,20,-1
 10 14 l 1,17,-1
10 24 m 1,21,-1
 10 22 l 1,22,-1
 6 22 l 1,23,-1
 6 24 l 1,24,-1
 10 24 l 1,21,-1
EndSplineSet
EndChar

StartChar: dcaron
Encoding: 271 271 242
Width: 16
Flags: W
LayerCount: 2
Fore
SplineSet
12 26 m 1,0,-1
 14 26 l 1,1,-1
 14 22 l 1,2,-1
 12 22 l 1,3,-1
 12 26 l 1,0,-1
6 26 m 1,4,-1
 10 26 l 1,5,-1
 10 20 l 1,6,-1
 10 14 l 1,7,-1
 10 12 l 1,8,-1
 2 12 l 1,9,-1
 2 14 l 1,10,-1
 0 14 l 1,11,-1
 0 20 l 1,12,-1
 2 20 l 1,13,-1
 2 22 l 1,14,-1
 6 22 l 1,15,-1
 6 26 l 1,4,-1
6 14 m 1,16,-1
 6 20 l 1,17,-1
 4 20 l 1,18,-1
 4 14 l 1,19,-1
 6 14 l 1,16,-1
EndSplineSet
EndChar

StartChar: Dcroat
Encoding: 272 272 243
Width: 16
Flags: W
LayerCount: 2
Fore
SplineSet
2 26 m 1,0,-1
 10 26 l 1,1,-1
 10 24 l 1,2,-1
 12 24 l 1,3,-1
 12 22 l 1,4,-1
 14 22 l 1,5,-1
 14 18 l 1,6,-1
 14 16 l 1,7,-1
 12 16 l 1,8,-1
 12 14 l 1,9,-1
 10 14 l 1,10,-1
 10 12 l 1,11,-1
 2 12 l 1,12,-1
 2 18 l 1,13,-1
 0 18 l 1,14,-1
 0 20 l 1,15,-1
 2 20 l 1,16,-1
 2 24 l 1,17,-1
 2 26 l 1,0,-1
10 16 m 1,18,-1
 10 18 l 1,19,-1
 10 22 l 1,20,-1
 8 22 l 1,21,-1
 8 24 l 1,22,-1
 6 24 l 1,23,-1
 6 20 l 1,24,-1
 8 20 l 1,25,-1
 8 18 l 1,26,-1
 6 18 l 1,27,-1
 6 14 l 1,28,-1
 8 14 l 1,29,-1
 8 16 l 1,30,-1
 10 16 l 1,18,-1
EndSplineSet
EndChar

StartChar: dcroat
Encoding: 273 273 244
Width: 16
Flags: W
LayerCount: 2
Fore
SplineSet
10 26 m 1,0,-1
 14 26 l 1,1,-1
 14 24 l 1,2,-1
 16 24 l 1,3,-1
 16 22 l 1,4,-1
 14 22 l 1,5,-1
 14 18 l 1,6,-1
 14 14 l 1,7,-1
 14 12 l 1,8,-1
 4 12 l 1,9,-1
 4 14 l 1,10,-1
 2 14 l 1,11,-1
 2 18 l 1,12,-1
 4 18 l 1,13,-1
 4 20 l 1,14,-1
 10 20 l 1,15,-1
 10 22 l 1,16,-1
 6 22 l 1,17,-1
 6 24 l 1,18,-1
 10 24 l 1,19,-1
 10 26 l 1,0,-1
10 14 m 1,20,-1
 10 18 l 1,21,-1
 6 18 l 1,22,-1
 6 14 l 1,23,-1
 10 14 l 1,20,-1
EndSplineSet
EndChar

StartChar: Emacron
Encoding: 274 274 245
Width: 16
Flags: W
LayerCount: 2
Fore
SplineSet
0 22 m 1,0,-1
 14 22 l 1,1,-1
 14 20 l 1,2,-1
 4 20 l 1,3,-1
 4 18 l 1,4,-1
 10 18 l 1,5,-1
 10 16 l 1,6,-1
 4 16 l 1,7,-1
 4 14 l 1,8,-1
 14 14 l 1,9,-1
 14 12 l 1,10,-1
 0 12 l 1,11,-1
 0 16 l 1,12,-1
 0 20 l 1,13,-1
 0 22 l 1,0,-1
2 26 m 1,14,-1
 14 26 l 1,15,-1
 14 24 l 1,16,-1
 2 24 l 1,17,-1
 2 26 l 1,14,-1
EndSplineSet
EndChar

StartChar: emacron
Encoding: 275 275 246
Width: 16
Flags: W
LayerCount: 2
Fore
SplineSet
4 22 m 1,0,-1
 12 22 l 1,1,-1
 12 20 l 1,2,-1
 14 20 l 1,3,-1
 14 18 l 1,4,-1
 14 16 l 1,5,-1
 6 16 l 1,6,-1
 6 14 l 1,7,-1
 12 14 l 1,8,-1
 12 12 l 1,9,-1
 4 12 l 1,10,-1
 4 14 l 1,11,-1
 2 14 l 1,12,-1
 2 16 l 1,13,-1
 2 20 l 1,14,-1
 4 20 l 1,15,-1
 4 22 l 1,0,-1
2 26 m 1,16,-1
 14 26 l 1,17,-1
 14 24 l 1,18,-1
 2 24 l 1,19,-1
 2 26 l 1,16,-1
10 18 m 1,20,-1
 10 20 l 1,21,-1
 6 20 l 1,22,-1
 6 18 l 1,23,-1
 10 18 l 1,20,-1
EndSplineSet
EndChar

StartChar: Ebreve
Encoding: 276 276 247
Width: 16
Flags: W
LayerCount: 2
Fore
SplineSet
0 20 m 1,0,-1
 14 20 l 1,1,-1
 14 18 l 1,2,-1
 8 18 l 1,3,-1
 8 16 l 1,4,-1
 4 16 l 1,5,-1
 4 14 l 1,6,-1
 14 14 l 1,7,-1
 14 12 l 1,8,-1
 0 12 l 1,9,-1
 0 16 l 1,10,-1
 0 18 l 1,11,-1
 0 20 l 1,0,-1
10 26 m 1,12,-1
 14 26 l 1,13,-1
 14 24 l 1,14,-1
 12 24 l 1,15,-1
 12 22 l 1,16,-1
 2 22 l 1,17,-1
 2 24 l 1,18,-1
 0 24 l 1,19,-1
 0 26 l 1,20,-1
 4 26 l 1,21,-1
 4 24 l 1,22,-1
 10 24 l 1,23,-1
 10 26 l 1,12,-1
EndSplineSet
EndChar

StartChar: ebreve
Encoding: 277 277 248
Width: 16
Flags: W
LayerCount: 2
Fore
SplineSet
4 20 m 1,0,-1
 12 20 l 1,1,-1
 12 18 l 1,2,-1
 14 18 l 1,3,-1
 14 16 l 1,4,-1
 6 16 l 1,5,-1
 6 14 l 1,6,-1
 12 14 l 1,7,-1
 12 12 l 1,8,-1
 4 12 l 1,9,-1
 4 14 l 1,10,-1
 2 14 l 1,11,-1
 2 16 l 1,12,-1
 2 18 l 1,13,-1
 4 18 l 1,14,-1
 4 20 l 1,0,-1
10 26 m 1,15,-1
 14 26 l 1,16,-1
 14 24 l 1,17,-1
 12 24 l 1,18,-1
 12 22 l 1,19,-1
 2 22 l 1,20,-1
 2 24 l 1,21,-1
 0 24 l 1,22,-1
 0 26 l 1,23,-1
 4 26 l 1,24,-1
 4 24 l 1,25,-1
 10 24 l 1,26,-1
 10 26 l 1,15,-1
EndSplineSet
EndChar

StartChar: Edotaccent
Encoding: 278 278 249
Width: 16
Flags: W
LayerCount: 2
Fore
SplineSet
0 22 m 1,0,-1
 14 22 l 1,1,-1
 14 20 l 1,2,-1
 4 20 l 1,3,-1
 4 18 l 1,4,-1
 10 18 l 1,5,-1
 10 16 l 1,6,-1
 4 16 l 1,7,-1
 4 14 l 1,8,-1
 14 14 l 1,9,-1
 14 12 l 1,10,-1
 0 12 l 1,11,-1
 0 16 l 1,12,-1
 0 20 l 1,13,-1
 0 22 l 1,0,-1
6 26 m 1,14,-1
 10 26 l 1,15,-1
 10 24 l 1,16,-1
 6 24 l 1,17,-1
 6 26 l 1,14,-1
EndSplineSet
EndChar

StartChar: edotaccent
Encoding: 279 279 250
Width: 16
Flags: W
LayerCount: 2
Fore
SplineSet
4 22 m 1,0,-1
 12 22 l 1,1,-1
 12 20 l 1,2,-1
 14 20 l 1,3,-1
 14 18 l 1,4,-1
 14 16 l 1,5,-1
 6 16 l 1,6,-1
 6 14 l 1,7,-1
 12 14 l 1,8,-1
 12 12 l 1,9,-1
 4 12 l 1,10,-1
 4 14 l 1,11,-1
 2 14 l 1,12,-1
 2 16 l 1,13,-1
 2 20 l 1,14,-1
 4 20 l 1,15,-1
 4 22 l 1,0,-1
6 26 m 1,16,-1
 10 26 l 1,17,-1
 10 24 l 1,18,-1
 6 24 l 1,19,-1
 6 26 l 1,16,-1
10 18 m 1,20,-1
 10 20 l 1,21,-1
 6 20 l 1,22,-1
 6 18 l 1,23,-1
 10 18 l 1,20,-1
EndSplineSet
EndChar

StartChar: Eogonek
Encoding: 280 280 251
Width: 16
Flags: W
LayerCount: 2
Fore
SplineSet
2 26 m 1,0,-1
 14 26 l 1,1,-1
 14 24 l 1,2,-1
 6 24 l 1,3,-1
 6 20 l 1,4,-1
 12 20 l 1,5,-1
 12 18 l 1,6,-1
 6 18 l 1,7,-1
 6 14 l 1,8,-1
 14 14 l 1,9,-1
 14 10 l 1,10,-1
 8 10 l 1,11,-1
 8 12 l 1,12,-1
 2 12 l 1,13,-1
 2 18 l 1,14,-1
 2 24 l 1,15,-1
 2 26 l 1,0,-1
EndSplineSet
EndChar

StartChar: eogonek
Encoding: 281 281 252
Width: 16
Flags: W
LayerCount: 2
Fore
SplineSet
4 22 m 1,0,-1
 12 22 l 1,1,-1
 12 20 l 1,2,-1
 14 20 l 1,3,-1
 14 18 l 1,4,-1
 14 16 l 1,5,-1
 6 16 l 1,6,-1
 6 14 l 1,7,-1
 12 14 l 1,8,-1
 12 12 l 1,9,-1
 14 12 l 1,10,-1
 14 10 l 1,11,-1
 8 10 l 1,12,-1
 8 12 l 1,13,-1
 4 12 l 1,14,-1
 4 14 l 1,15,-1
 2 14 l 1,16,-1
 2 16 l 1,17,-1
 2 20 l 1,18,-1
 4 20 l 1,19,-1
 4 22 l 1,0,-1
10 18 m 1,20,-1
 10 20 l 1,21,-1
 6 20 l 1,22,-1
 6 18 l 1,23,-1
 10 18 l 1,20,-1
EndSplineSet
EndChar

StartChar: Ecaron
Encoding: 282 282 253
Width: 16
Flags: W
LayerCount: 2
Fore
SplineSet
0 20 m 1,0,-1
 14 20 l 1,1,-1
 14 18 l 1,2,-1
 8 18 l 1,3,-1
 8 16 l 1,4,-1
 4 16 l 1,5,-1
 4 14 l 1,6,-1
 14 14 l 1,7,-1
 14 12 l 1,8,-1
 0 12 l 1,9,-1
 0 16 l 1,10,-1
 0 18 l 1,11,-1
 0 20 l 1,0,-1
10 26 m 1,12,-1
 14 26 l 1,13,-1
 14 24 l 1,14,-1
 10 24 l 1,15,-1
 10 26 l 1,12,-1
2 26 m 1,16,-1
 6 26 l 1,17,-1
 6 24 l 1,18,-1
 2 24 l 1,19,-1
 2 26 l 1,16,-1
10 24 m 1,20,-1
 10 22 l 1,21,-1
 6 22 l 1,22,-1
 6 24 l 1,23,-1
 10 24 l 1,20,-1
EndSplineSet
EndChar

StartChar: ecaron
Encoding: 283 283 254
Width: 16
Flags: W
LayerCount: 2
Fore
SplineSet
4 20 m 1,0,-1
 12 20 l 1,1,-1
 12 18 l 1,2,-1
 14 18 l 1,3,-1
 14 16 l 1,4,-1
 6 16 l 1,5,-1
 6 14 l 1,6,-1
 12 14 l 1,7,-1
 12 12 l 1,8,-1
 4 12 l 1,9,-1
 4 14 l 1,10,-1
 2 14 l 1,11,-1
 2 16 l 1,12,-1
 2 18 l 1,13,-1
 4 18 l 1,14,-1
 4 20 l 1,0,-1
10 26 m 1,15,-1
 14 26 l 1,16,-1
 14 24 l 1,17,-1
 10 24 l 1,18,-1
 10 26 l 1,15,-1
2 26 m 1,19,-1
 6 26 l 1,20,-1
 6 24 l 1,21,-1
 2 24 l 1,22,-1
 2 26 l 1,19,-1
10 24 m 1,23,-1
 10 22 l 1,24,-1
 6 22 l 1,25,-1
 6 24 l 1,26,-1
 10 24 l 1,23,-1
EndSplineSet
EndChar

StartChar: Gcircumflex
Encoding: 284 284 255
Width: 16
Flags: W
LayerCount: 2
Fore
SplineSet
10 16 m 1,0,-1
 14 16 l 1,1,-1
 14 14 l 1,2,-1
 14 12 l 1,3,-1
 4 12 l 1,4,-1
 4 14 l 1,5,-1
 2 14 l 1,6,-1
 2 18 l 1,7,-1
 4 18 l 1,8,-1
 4 20 l 1,9,-1
 14 20 l 1,10,-1
 14 18 l 1,11,-1
 6 18 l 1,12,-1
 6 14 l 1,13,-1
 10 14 l 1,14,-1
 10 16 l 1,0,-1
6 26 m 1,15,-1
 10 26 l 1,16,-1
 10 24 l 1,17,-1
 14 24 l 1,18,-1
 14 22 l 1,19,-1
 10 22 l 1,20,-1
 10 24 l 1,21,-1
 6 24 l 1,22,-1
 6 22 l 1,23,-1
 2 22 l 1,24,-1
 2 24 l 1,25,-1
 6 24 l 1,26,-1
 6 26 l 1,15,-1
EndSplineSet
EndChar

StartChar: gcircumflex
Encoding: 285 285 256
Width: 16
Flags: W
LayerCount: 2
Fore
SplineSet
4 20 m 1,0,-1
 14 20 l 1,1,-1
 14 18 l 1,2,-1
 14 16 l 1,3,-1
 14 12 l 1,4,-1
 12 12 l 1,5,-1
 12 10 l 1,6,-1
 2 10 l 1,7,-1
 2 12 l 1,8,-1
 10 12 l 1,9,-1
 10 14 l 1,10,-1
 4 14 l 1,11,-1
 4 16 l 1,12,-1
 2 16 l 1,13,-1
 2 18 l 1,14,-1
 4 18 l 1,15,-1
 4 20 l 1,0,-1
6 26 m 1,16,-1
 10 26 l 1,17,-1
 10 24 l 1,18,-1
 14 24 l 1,19,-1
 14 22 l 1,20,-1
 10 22 l 1,21,-1
 10 24 l 1,22,-1
 6 24 l 1,23,-1
 6 22 l 1,24,-1
 2 22 l 1,25,-1
 2 24 l 1,26,-1
 6 24 l 1,27,-1
 6 26 l 1,16,-1
10 16 m 1,28,-1
 10 18 l 1,29,-1
 6 18 l 1,30,-1
 6 16 l 1,31,-1
 10 16 l 1,28,-1
EndSplineSet
EndChar

StartChar: Gbreve
Encoding: 286 286 257
Width: 16
Flags: W
LayerCount: 2
Fore
SplineSet
10 16 m 1,0,-1
 14 16 l 1,1,-1
 14 14 l 1,2,-1
 14 12 l 1,3,-1
 4 12 l 1,4,-1
 4 14 l 1,5,-1
 2 14 l 1,6,-1
 2 18 l 1,7,-1
 4 18 l 1,8,-1
 4 20 l 1,9,-1
 14 20 l 1,10,-1
 14 18 l 1,11,-1
 6 18 l 1,12,-1
 6 14 l 1,13,-1
 10 14 l 1,14,-1
 10 16 l 1,0,-1
10 26 m 1,15,-1
 14 26 l 1,16,-1
 14 24 l 1,17,-1
 12 24 l 1,18,-1
 12 22 l 1,19,-1
 2 22 l 1,20,-1
 2 24 l 1,21,-1
 0 24 l 1,22,-1
 0 26 l 1,23,-1
 4 26 l 1,24,-1
 4 24 l 1,25,-1
 10 24 l 1,26,-1
 10 26 l 1,15,-1
EndSplineSet
EndChar

StartChar: gbreve
Encoding: 287 287 258
Width: 16
Flags: W
LayerCount: 2
Fore
SplineSet
4 20 m 1,0,-1
 14 20 l 1,1,-1
 14 18 l 1,2,-1
 14 16 l 1,3,-1
 14 12 l 1,4,-1
 12 12 l 1,5,-1
 12 10 l 1,6,-1
 2 10 l 1,7,-1
 2 12 l 1,8,-1
 10 12 l 1,9,-1
 10 14 l 1,10,-1
 4 14 l 1,11,-1
 4 16 l 1,12,-1
 2 16 l 1,13,-1
 2 18 l 1,14,-1
 4 18 l 1,15,-1
 4 20 l 1,0,-1
10 26 m 1,16,-1
 14 26 l 1,17,-1
 14 24 l 1,18,-1
 12 24 l 1,19,-1
 12 22 l 1,20,-1
 2 22 l 1,21,-1
 2 24 l 1,22,-1
 0 24 l 1,23,-1
 0 26 l 1,24,-1
 4 26 l 1,25,-1
 4 24 l 1,26,-1
 10 24 l 1,27,-1
 10 26 l 1,16,-1
10 16 m 1,28,-1
 10 18 l 1,29,-1
 6 18 l 1,30,-1
 6 16 l 1,31,-1
 10 16 l 1,28,-1
EndSplineSet
EndChar

StartChar: Gdotaccent
Encoding: 288 288 259
Width: 16
Flags: W
LayerCount: 2
Fore
SplineSet
8 18 m 1,0,-1
 14 18 l 1,1,-1
 14 14 l 1,2,-1
 14 12 l 1,3,-1
 4 12 l 1,4,-1
 4 14 l 1,5,-1
 2 14 l 1,6,-1
 2 20 l 1,7,-1
 4 20 l 1,8,-1
 4 22 l 1,9,-1
 14 22 l 1,10,-1
 14 20 l 1,11,-1
 6 20 l 1,12,-1
 6 14 l 1,13,-1
 10 14 l 1,14,-1
 10 16 l 1,15,-1
 8 16 l 1,16,-1
 8 18 l 1,0,-1
6 26 m 1,17,-1
 10 26 l 1,18,-1
 10 24 l 1,19,-1
 6 24 l 1,20,-1
 6 26 l 1,17,-1
EndSplineSet
EndChar

StartChar: gdotaccent
Encoding: 289 289 260
Width: 16
Flags: W
LayerCount: 2
Fore
SplineSet
4 22 m 1,0,-1
 14 22 l 1,1,-1
 14 20 l 1,2,-1
 14 16 l 1,3,-1
 14 12 l 1,4,-1
 12 12 l 1,5,-1
 12 10 l 1,6,-1
 2 10 l 1,7,-1
 2 12 l 1,8,-1
 10 12 l 1,9,-1
 10 14 l 1,10,-1
 4 14 l 1,11,-1
 4 16 l 1,12,-1
 2 16 l 1,13,-1
 2 20 l 1,14,-1
 4 20 l 1,15,-1
 4 22 l 1,0,-1
6 26 m 1,16,-1
 10 26 l 1,17,-1
 10 24 l 1,18,-1
 6 24 l 1,19,-1
 6 26 l 1,16,-1
10 16 m 1,20,-1
 10 20 l 1,21,-1
 6 20 l 1,22,-1
 6 16 l 1,23,-1
 10 16 l 1,20,-1
EndSplineSet
EndChar

StartChar: uni0122
Encoding: 290 290 261
Width: 16
Flags: W
LayerCount: 2
Fore
SplineSet
8 20 m 1,0,-1
 14 20 l 1,1,-1
 14 14 l 1,2,-1
 14 12 l 1,3,-1
 8 12 l 1,4,-1
 8 10 l 1,5,-1
 2 10 l 1,6,-1
 2 12 l 1,7,-1
 4 12 l 1,8,-1
 4 14 l 1,9,-1
 2 14 l 1,10,-1
 2 24 l 1,11,-1
 4 24 l 1,12,-1
 4 26 l 1,13,-1
 12 26 l 1,14,-1
 12 24 l 1,15,-1
 14 24 l 1,16,-1
 14 22 l 1,17,-1
 10 22 l 1,18,-1
 10 24 l 1,19,-1
 6 24 l 1,20,-1
 6 14 l 1,21,-1
 10 14 l 1,22,-1
 10 18 l 1,23,-1
 8 18 l 1,24,-1
 8 20 l 1,0,-1
EndSplineSet
EndChar

StartChar: uni0123
Encoding: 291 291 262
Width: 16
Flags: W
LayerCount: 2
Fore
SplineSet
4 20 m 1,0,-1
 14 20 l 1,1,-1
 14 18 l 1,2,-1
 14 16 l 1,3,-1
 14 12 l 1,4,-1
 12 12 l 1,5,-1
 12 10 l 1,6,-1
 2 10 l 1,7,-1
 2 12 l 1,8,-1
 10 12 l 1,9,-1
 10 14 l 1,10,-1
 4 14 l 1,11,-1
 4 16 l 1,12,-1
 2 16 l 1,13,-1
 2 18 l 1,14,-1
 4 18 l 1,15,-1
 4 20 l 1,0,-1
6 26 m 1,16,-1
 8 26 l 1,17,-1
 8 24 l 1,18,-1
 10 24 l 1,19,-1
 10 22 l 1,20,-1
 6 22 l 1,21,-1
 6 26 l 1,16,-1
10 16 m 1,22,-1
 10 18 l 1,23,-1
 6 18 l 1,24,-1
 6 16 l 1,25,-1
 10 16 l 1,22,-1
EndSplineSet
EndChar

StartChar: Hcircumflex
Encoding: 292 292 263
Width: 16
Flags: W
LayerCount: 2
Fore
SplineSet
10 20 m 1,0,-1
 14 20 l 1,1,-1
 14 18 l 1,2,-1
 14 16 l 1,3,-1
 14 12 l 1,4,-1
 10 12 l 1,5,-1
 10 16 l 1,6,-1
 6 16 l 1,7,-1
 6 12 l 1,8,-1
 2 12 l 1,9,-1
 2 16 l 1,10,-1
 2 20 l 1,11,-1
 6 20 l 1,12,-1
 6 18 l 1,13,-1
 10 18 l 1,14,-1
 10 20 l 1,0,-1
6 26 m 1,15,-1
 10 26 l 1,16,-1
 10 24 l 1,17,-1
 14 24 l 1,18,-1
 14 22 l 1,19,-1
 10 22 l 1,20,-1
 10 24 l 1,21,-1
 6 24 l 1,22,-1
 6 22 l 1,23,-1
 2 22 l 1,24,-1
 2 24 l 1,25,-1
 6 24 l 1,26,-1
 6 26 l 1,15,-1
EndSplineSet
EndChar

StartChar: hcircumflex
Encoding: 293 293 264
Width: 16
Flags: W
LayerCount: 2
Fore
SplineSet
8 26 m 1,0,-1
 12 26 l 1,1,-1
 12 24 l 1,2,-1
 14 24 l 1,3,-1
 14 22 l 1,4,-1
 12 22 l 1,5,-1
 12 24 l 1,6,-1
 8 24 l 1,7,-1
 8 22 l 1,8,-1
 6 22 l 1,9,-1
 6 24 l 1,10,-1
 8 24 l 1,11,-1
 8 26 l 1,0,-1
0 26 m 1,12,-1
 4 26 l 1,13,-1
 4 20 l 1,14,-1
 12 20 l 1,15,-1
 12 18 l 1,16,-1
 14 18 l 1,17,-1
 14 12 l 1,18,-1
 10 12 l 1,19,-1
 10 18 l 1,20,-1
 4 18 l 1,21,-1
 4 12 l 1,22,-1
 0 12 l 1,23,-1
 0 18 l 1,24,-1
 0 26 l 1,12,-1
EndSplineSet
EndChar

StartChar: Hbar
Encoding: 294 294 265
Width: 16
Flags: W
LayerCount: 2
Fore
SplineSet
10 26 m 1,0,-1
 14 26 l 1,1,-1
 14 24 l 1,2,-1
 16 24 l 1,3,-1
 16 22 l 1,4,-1
 14 22 l 1,5,-1
 14 20 l 1,6,-1
 14 18 l 1,7,-1
 14 12 l 1,8,-1
 10 12 l 1,9,-1
 10 18 l 1,10,-1
 6 18 l 1,11,-1
 6 12 l 1,12,-1
 2 12 l 1,13,-1
 2 18 l 1,14,-1
 2 22 l 1,15,-1
 0 22 l 1,16,-1
 0 24 l 1,17,-1
 2 24 l 1,18,-1
 2 26 l 1,19,-1
 6 26 l 1,20,-1
 6 24 l 1,21,-1
 10 24 l 1,22,-1
 10 26 l 1,0,-1
10 20 m 1,23,-1
 10 22 l 1,24,-1
 6 22 l 1,25,-1
 6 20 l 1,26,-1
 10 20 l 1,23,-1
EndSplineSet
EndChar

StartChar: hbar
Encoding: 295 295 266
Width: 16
Flags: W
LayerCount: 2
Fore
SplineSet
2 26 m 1,0,-1
 6 26 l 1,1,-1
 6 24 l 1,2,-1
 10 24 l 1,3,-1
 10 22 l 1,4,-1
 6 22 l 1,5,-1
 6 20 l 1,6,-1
 12 20 l 1,7,-1
 12 18 l 1,8,-1
 14 18 l 1,9,-1
 14 12 l 1,10,-1
 10 12 l 1,11,-1
 10 18 l 1,12,-1
 6 18 l 1,13,-1
 6 12 l 1,14,-1
 2 12 l 1,15,-1
 2 18 l 1,16,-1
 2 22 l 1,17,-1
 2 26 l 1,0,-1
EndSplineSet
EndChar

StartChar: Itilde
Encoding: 296 296 267
Width: 16
Flags: W
LayerCount: 2
Fore
SplineSet
2 20 m 1,0,-1
 14 20 l 1,1,-1
 14 18 l 1,2,-1
 10 18 l 1,3,-1
 10 14 l 1,4,-1
 14 14 l 1,5,-1
 14 12 l 1,6,-1
 2 12 l 1,7,-1
 2 14 l 1,8,-1
 6 14 l 1,9,-1
 6 18 l 1,10,-1
 2 18 l 1,11,-1
 2 20 l 1,0,-1
10 26 m 1,12,-1
 14 26 l 1,13,-1
 14 24 l 1,14,-1
 12 24 l 1,15,-1
 12 22 l 1,16,-1
 6 22 l 1,17,-1
 6 24 l 1,18,-1
 4 24 l 1,19,-1
 4 22 l 1,20,-1
 0 22 l 1,21,-1
 0 24 l 1,22,-1
 2 24 l 1,23,-1
 2 26 l 1,24,-1
 8 26 l 1,25,-1
 8 24 l 1,26,-1
 10 24 l 1,27,-1
 10 26 l 1,12,-1
EndSplineSet
EndChar

StartChar: itilde
Encoding: 297 297 268
Width: 16
Flags: W
LayerCount: 2
Fore
SplineSet
4 20 m 1,0,-1
 10 20 l 1,1,-1
 10 14 l 1,2,-1
 12 14 l 1,3,-1
 12 12 l 1,4,-1
 4 12 l 1,5,-1
 4 14 l 1,6,-1
 6 14 l 1,7,-1
 6 18 l 1,8,-1
 4 18 l 1,9,-1
 4 20 l 1,0,-1
10 26 m 1,10,-1
 14 26 l 1,11,-1
 14 24 l 1,12,-1
 12 24 l 1,13,-1
 12 22 l 1,14,-1
 6 22 l 1,15,-1
 6 24 l 1,16,-1
 4 24 l 1,17,-1
 4 22 l 1,18,-1
 0 22 l 1,19,-1
 0 24 l 1,20,-1
 2 24 l 1,21,-1
 2 26 l 1,22,-1
 8 26 l 1,23,-1
 8 24 l 1,24,-1
 10 24 l 1,25,-1
 10 26 l 1,10,-1
EndSplineSet
EndChar

StartChar: Imacron
Encoding: 298 298 269
Width: 16
Flags: W
LayerCount: 2
Fore
SplineSet
2 22 m 1,0,-1
 14 22 l 1,1,-1
 14 20 l 1,2,-1
 10 20 l 1,3,-1
 10 14 l 1,4,-1
 14 14 l 1,5,-1
 14 12 l 1,6,-1
 2 12 l 1,7,-1
 2 14 l 1,8,-1
 6 14 l 1,9,-1
 6 20 l 1,10,-1
 2 20 l 1,11,-1
 2 22 l 1,0,-1
2 26 m 1,12,-1
 14 26 l 1,13,-1
 14 24 l 1,14,-1
 2 24 l 1,15,-1
 2 26 l 1,12,-1
EndSplineSet
EndChar

StartChar: imacron
Encoding: 299 299 270
Width: 16
Flags: W
LayerCount: 2
Fore
SplineSet
4 22 m 1,0,-1
 10 22 l 1,1,-1
 10 14 l 1,2,-1
 12 14 l 1,3,-1
 12 12 l 1,4,-1
 4 12 l 1,5,-1
 4 14 l 1,6,-1
 6 14 l 1,7,-1
 6 20 l 1,8,-1
 4 20 l 1,9,-1
 4 22 l 1,0,-1
2 26 m 1,10,-1
 14 26 l 1,11,-1
 14 24 l 1,12,-1
 2 24 l 1,13,-1
 2 26 l 1,10,-1
EndSplineSet
EndChar

StartChar: Ibreve
Encoding: 300 300 271
Width: 16
Flags: W
LayerCount: 2
Fore
SplineSet
2 20 m 1,0,-1
 14 20 l 1,1,-1
 14 18 l 1,2,-1
 10 18 l 1,3,-1
 10 14 l 1,4,-1
 14 14 l 1,5,-1
 14 12 l 1,6,-1
 2 12 l 1,7,-1
 2 14 l 1,8,-1
 6 14 l 1,9,-1
 6 18 l 1,10,-1
 2 18 l 1,11,-1
 2 20 l 1,0,-1
10 26 m 1,12,-1
 14 26 l 1,13,-1
 14 24 l 1,14,-1
 12 24 l 1,15,-1
 12 22 l 1,16,-1
 2 22 l 1,17,-1
 2 24 l 1,18,-1
 0 24 l 1,19,-1
 0 26 l 1,20,-1
 4 26 l 1,21,-1
 4 24 l 1,22,-1
 10 24 l 1,23,-1
 10 26 l 1,12,-1
EndSplineSet
EndChar

StartChar: ibreve
Encoding: 301 301 272
Width: 16
Flags: W
LayerCount: 2
Fore
SplineSet
4 20 m 1,0,-1
 10 20 l 1,1,-1
 10 14 l 1,2,-1
 12 14 l 1,3,-1
 12 12 l 1,4,-1
 4 12 l 1,5,-1
 4 14 l 1,6,-1
 6 14 l 1,7,-1
 6 18 l 1,8,-1
 4 18 l 1,9,-1
 4 20 l 1,0,-1
10 26 m 1,10,-1
 14 26 l 1,11,-1
 14 24 l 1,12,-1
 12 24 l 1,13,-1
 12 22 l 1,14,-1
 2 22 l 1,15,-1
 2 24 l 1,16,-1
 0 24 l 1,17,-1
 0 26 l 1,18,-1
 4 26 l 1,19,-1
 4 24 l 1,20,-1
 10 24 l 1,21,-1
 10 26 l 1,10,-1
EndSplineSet
EndChar

StartChar: Iogonek
Encoding: 302 302 273
Width: 16
Flags: W
LayerCount: 2
Fore
SplineSet
2 26 m 1,0,-1
 14 26 l 1,1,-1
 14 24 l 1,2,-1
 10 24 l 1,3,-1
 10 14 l 1,4,-1
 14 14 l 1,5,-1
 14 10 l 1,6,-1
 8 10 l 1,7,-1
 8 12 l 1,8,-1
 2 12 l 1,9,-1
 2 14 l 1,10,-1
 6 14 l 1,11,-1
 6 24 l 1,12,-1
 2 24 l 1,13,-1
 2 26 l 1,0,-1
EndSplineSet
EndChar

StartChar: iogonek
Encoding: 303 303 274
Width: 16
Flags: W
LayerCount: 2
Fore
SplineSet
4 22 m 1,0,-1
 10 22 l 1,1,-1
 10 14 l 1,2,-1
 14 14 l 1,3,-1
 14 10 l 1,4,-1
 8 10 l 1,5,-1
 8 12 l 1,6,-1
 6 12 l 1,7,-1
 6 20 l 1,8,-1
 4 20 l 1,9,-1
 4 22 l 1,0,-1
6 26 m 1,10,-1
 10 26 l 1,11,-1
 10 24 l 1,12,-1
 6 24 l 1,13,-1
 6 26 l 1,10,-1
EndSplineSet
EndChar

StartChar: Idotaccent
Encoding: 304 304 275
Width: 16
Flags: W
LayerCount: 2
Fore
SplineSet
2 22 m 1,0,-1
 14 22 l 1,1,-1
 14 20 l 1,2,-1
 10 20 l 1,3,-1
 10 14 l 1,4,-1
 14 14 l 1,5,-1
 14 12 l 1,6,-1
 2 12 l 1,7,-1
 2 14 l 1,8,-1
 6 14 l 1,9,-1
 6 20 l 1,10,-1
 2 20 l 1,11,-1
 2 22 l 1,0,-1
6 26 m 1,12,-1
 10 26 l 1,13,-1
 10 24 l 1,14,-1
 6 24 l 1,15,-1
 6 26 l 1,12,-1
EndSplineSet
EndChar

StartChar: dotlessi
Encoding: 305 305 276
Width: 16
Flags: W
LayerCount: 2
Fore
SplineSet
4 22 m 1,0,-1
 10 22 l 1,1,-1
 10 14 l 1,2,-1
 12 14 l 1,3,-1
 12 12 l 1,4,-1
 4 12 l 1,5,-1
 4 14 l 1,6,-1
 6 14 l 1,7,-1
 6 20 l 1,8,-1
 4 20 l 1,9,-1
 4 22 l 1,0,-1
EndSplineSet
EndChar

StartChar: IJ
Encoding: 306 306 277
Width: 16
Flags: W
LayerCount: 2
Fore
SplineSet
6 16 m 1,0,-1
 8 16 l 1,1,-1
 8 14 l 1,2,-1
 6 14 l 1,3,-1
 6 16 l 1,0,-1
10 26 m 1,4,-1
 14 26 l 1,5,-1
 14 16 l 1,6,-1
 14 14 l 1,7,-1
 12 14 l 1,8,-1
 12 12 l 1,9,-1
 8 12 l 1,10,-1
 8 14 l 1,11,-1
 10 14 l 1,12,-1
 10 16 l 1,13,-1
 10 26 l 1,4,-1
0 26 m 1,14,-1
 4 26 l 1,15,-1
 4 12 l 1,16,-1
 0 12 l 1,17,-1
 0 26 l 1,14,-1
EndSplineSet
EndChar

StartChar: ij
Encoding: 307 307 278
Width: 16
Flags: W
LayerCount: 2
Fore
SplineSet
10 22 m 1,0,-1
 14 22 l 1,1,-1
 14 12 l 1,2,-1
 12 12 l 1,3,-1
 12 10 l 1,4,-1
 8 10 l 1,5,-1
 8 12 l 1,6,-1
 10 12 l 1,7,-1
 10 22 l 1,0,-1
2 22 m 1,8,-1
 6 22 l 1,9,-1
 6 12 l 1,10,-1
 2 12 l 1,11,-1
 2 22 l 1,8,-1
10 26 m 1,12,-1
 14 26 l 1,13,-1
 14 24 l 1,14,-1
 10 24 l 1,15,-1
 10 26 l 1,12,-1
2 26 m 1,16,-1
 6 26 l 1,17,-1
 6 24 l 1,18,-1
 2 24 l 1,19,-1
 2 26 l 1,16,-1
EndSplineSet
EndChar

StartChar: Jcircumflex
Encoding: 308 308 279
Width: 16
Flags: W
LayerCount: 2
Fore
SplineSet
10 20 m 1,0,-1
 14 20 l 1,1,-1
 14 14 l 1,2,-1
 12 14 l 1,3,-1
 12 12 l 1,4,-1
 0 12 l 1,5,-1
 0 14 l 1,6,-1
 10 14 l 1,7,-1
 10 20 l 1,0,-1
6 26 m 1,8,-1
 10 26 l 1,9,-1
 10 24 l 1,10,-1
 14 24 l 1,11,-1
 14 22 l 1,12,-1
 10 22 l 1,13,-1
 10 24 l 1,14,-1
 6 24 l 1,15,-1
 6 22 l 1,16,-1
 2 22 l 1,17,-1
 2 24 l 1,18,-1
 6 24 l 1,19,-1
 6 26 l 1,8,-1
EndSplineSet
EndChar

StartChar: jcircumflex
Encoding: 309 309 280
Width: 16
Flags: W
LayerCount: 2
Fore
SplineSet
8 20 m 1,0,-1
 12 20 l 1,1,-1
 12 12 l 1,2,-1
 10 12 l 1,3,-1
 10 10 l 1,4,-1
 2 10 l 1,5,-1
 2 12 l 1,6,-1
 8 12 l 1,7,-1
 8 20 l 1,0,-1
6 26 m 1,8,-1
 10 26 l 1,9,-1
 10 24 l 1,10,-1
 14 24 l 1,11,-1
 14 22 l 1,12,-1
 10 22 l 1,13,-1
 10 24 l 1,14,-1
 6 24 l 1,15,-1
 6 22 l 1,16,-1
 2 22 l 1,17,-1
 2 24 l 1,18,-1
 6 24 l 1,19,-1
 6 26 l 1,8,-1
EndSplineSet
EndChar

StartChar: uni0136
Encoding: 310 310 281
Width: 16
Flags: W
LayerCount: 2
Fore
SplineSet
10 26 m 1,0,-1
 14 26 l 1,1,-1
 14 24 l 1,2,-1
 12 24 l 1,3,-1
 12 22 l 1,4,-1
 10 22 l 1,5,-1
 10 20 l 1,6,-1
 8 20 l 1,7,-1
 8 18 l 1,8,-1
 10 18 l 1,9,-1
 10 16 l 1,10,-1
 12 16 l 1,11,-1
 12 14 l 1,12,-1
 14 14 l 1,13,-1
 14 12 l 1,14,-1
 10 12 l 1,15,-1
 10 10 l 1,16,-1
 6 10 l 1,17,-1
 6 12 l 1,18,-1
 8 12 l 1,19,-1
 8 16 l 1,20,-1
 6 16 l 1,21,-1
 6 18 l 1,22,-1
 4 18 l 1,23,-1
 4 12 l 1,24,-1
 0 12 l 1,25,-1
 0 18 l 1,26,-1
 0 26 l 1,27,-1
 4 26 l 1,28,-1
 4 20 l 1,29,-1
 6 20 l 1,30,-1
 6 22 l 1,31,-1
 8 22 l 1,32,-1
 8 24 l 1,33,-1
 10 24 l 1,34,-1
 10 26 l 1,0,-1
EndSplineSet
EndChar

StartChar: uni0137
Encoding: 311 311 282
Width: 16
Flags: W
LayerCount: 2
Fore
SplineSet
10 22 m 1,0,-1
 14 22 l 1,1,-1
 14 20 l 1,2,-1
 12 20 l 1,3,-1
 12 18 l 1,4,-1
 10 18 l 1,5,-1
 10 16 l 1,6,-1
 12 16 l 1,7,-1
 12 14 l 1,8,-1
 14 14 l 1,9,-1
 14 12 l 1,10,-1
 10 12 l 1,11,-1
 10 10 l 1,12,-1
 6 10 l 1,13,-1
 6 12 l 1,14,-1
 2 12 l 1,15,-1
 2 16 l 1,16,-1
 2 26 l 1,17,-1
 6 26 l 1,18,-1
 6 18 l 1,19,-1
 8 18 l 1,20,-1
 8 20 l 1,21,-1
 10 20 l 1,22,-1
 10 22 l 1,0,-1
8 12 m 1,23,-1
 8 16 l 1,24,-1
 6 16 l 1,25,-1
 6 12 l 1,26,-1
 8 12 l 1,23,-1
EndSplineSet
EndChar

StartChar: kgreenlandic
Encoding: 312 312 283
Width: 16
Flags: W
LayerCount: 2
Fore
SplineSet
10 22 m 1,0,-1
 14 22 l 1,1,-1
 14 20 l 1,2,-1
 12 20 l 1,3,-1
 12 18 l 1,4,-1
 10 18 l 1,5,-1
 10 16 l 1,6,-1
 12 16 l 1,7,-1
 12 14 l 1,8,-1
 14 14 l 1,9,-1
 14 12 l 1,10,-1
 10 12 l 1,11,-1
 10 14 l 1,12,-1
 8 14 l 1,13,-1
 8 16 l 1,14,-1
 6 16 l 1,15,-1
 6 12 l 1,16,-1
 2 12 l 1,17,-1
 2 16 l 1,18,-1
 2 22 l 1,19,-1
 6 22 l 1,20,-1
 6 18 l 1,21,-1
 8 18 l 1,22,-1
 8 20 l 1,23,-1
 10 20 l 1,24,-1
 10 22 l 1,0,-1
EndSplineSet
EndChar

StartChar: Lacute
Encoding: 313 313 284
Width: 16
Flags: W
LayerCount: 2
Fore
SplineSet
2 22 m 1,0,-1
 6 22 l 1,1,-1
 6 14 l 1,2,-1
 14 14 l 1,3,-1
 14 12 l 1,4,-1
 2 12 l 1,5,-1
 2 22 l 1,0,-1
8 26 m 1,6,-1
 14 26 l 1,7,-1
 14 24 l 1,8,-1
 8 24 l 1,9,-1
 8 26 l 1,6,-1
EndSplineSet
EndChar

StartChar: lacute
Encoding: 314 314 285
Width: 16
Flags: W
LayerCount: 2
Fore
SplineSet
4 22 m 1,0,-1
 10 22 l 1,1,-1
 10 14 l 1,2,-1
 14 14 l 1,3,-1
 14 12 l 1,4,-1
 4 12 l 1,5,-1
 4 14 l 1,6,-1
 6 14 l 1,7,-1
 6 20 l 1,8,-1
 4 20 l 1,9,-1
 4 22 l 1,0,-1
8 26 m 1,10,-1
 14 26 l 1,11,-1
 14 24 l 1,12,-1
 8 24 l 1,13,-1
 8 26 l 1,10,-1
EndSplineSet
EndChar

StartChar: uni013B
Encoding: 315 315 286
Width: 16
Flags: W
LayerCount: 2
Fore
SplineSet
2 26 m 1,0,-1
 6 26 l 1,1,-1
 6 14 l 1,2,-1
 14 14 l 1,3,-1
 14 12 l 1,4,-1
 10 12 l 1,5,-1
 10 10 l 1,6,-1
 6 10 l 1,7,-1
 6 12 l 1,8,-1
 2 12 l 1,9,-1
 2 26 l 1,0,-1
EndSplineSet
EndChar

StartChar: uni013C
Encoding: 316 316 287
Width: 16
Flags: W
LayerCount: 2
Fore
SplineSet
4 26 m 1,0,-1
 10 26 l 1,1,-1
 10 14 l 1,2,-1
 12 14 l 1,3,-1
 12 12 l 1,4,-1
 8 12 l 1,5,-1
 8 10 l 1,6,-1
 2 10 l 1,7,-1
 2 12 l 1,8,-1
 4 12 l 1,9,-1
 4 14 l 1,10,-1
 6 14 l 1,11,-1
 6 24 l 1,12,-1
 4 24 l 1,13,-1
 4 26 l 1,0,-1
EndSplineSet
EndChar

StartChar: Lcaron
Encoding: 317 317 288
Width: 16
Flags: W
LayerCount: 2
Fore
SplineSet
10 26 m 1,0,-1
 14 26 l 1,1,-1
 14 24 l 1,2,-1
 12 24 l 1,3,-1
 12 22 l 1,4,-1
 8 22 l 1,5,-1
 8 24 l 1,6,-1
 10 24 l 1,7,-1
 10 26 l 1,0,-1
2 26 m 1,8,-1
 6 26 l 1,9,-1
 6 14 l 1,10,-1
 14 14 l 1,11,-1
 14 12 l 1,12,-1
 2 12 l 1,13,-1
 2 26 l 1,8,-1
EndSplineSet
EndChar

StartChar: lcaron
Encoding: 318 318 289
Width: 16
Flags: W
LayerCount: 2
Fore
SplineSet
10 26 m 1,0,-1
 14 26 l 1,1,-1
 14 24 l 1,2,-1
 12 24 l 1,3,-1
 12 22 l 1,4,-1
 8 22 l 1,5,-1
 8 24 l 1,6,-1
 10 24 l 1,7,-1
 10 26 l 1,0,-1
0 26 m 1,8,-1
 6 26 l 1,9,-1
 6 14 l 1,10,-1
 8 14 l 1,11,-1
 8 12 l 1,12,-1
 0 12 l 1,13,-1
 0 14 l 1,14,-1
 2 14 l 1,15,-1
 2 24 l 1,16,-1
 0 24 l 1,17,-1
 0 26 l 1,8,-1
EndSplineSet
EndChar

StartChar: Ldot
Encoding: 319 319 290
Width: 16
Flags: W
LayerCount: 2
Fore
SplineSet
8 20 m 1,0,-1
 12 20 l 1,1,-1
 12 18 l 1,2,-1
 8 18 l 1,3,-1
 8 20 l 1,0,-1
2 26 m 1,4,-1
 6 26 l 1,5,-1
 6 14 l 1,6,-1
 14 14 l 1,7,-1
 14 12 l 1,8,-1
 2 12 l 1,9,-1
 2 26 l 1,4,-1
EndSplineSet
EndChar

StartChar: ldot
Encoding: 320 320 291
Width: 16
Flags: W
LayerCount: 2
Fore
SplineSet
4 22 m 1,0,-1
 10 22 l 1,1,-1
 10 14 l 1,2,-1
 14 14 l 1,3,-1
 14 12 l 1,4,-1
 4 12 l 1,5,-1
 4 14 l 1,6,-1
 6 14 l 1,7,-1
 6 20 l 1,8,-1
 4 20 l 1,9,-1
 4 22 l 1,0,-1
8 26 m 1,10,-1
 14 26 l 1,11,-1
 14 24 l 1,12,-1
 8 24 l 1,13,-1
 8 26 l 1,10,-1
EndSplineSet
EndChar

StartChar: Lslash
Encoding: 321 321 292
Width: 16
Flags: W
LayerCount: 2
Fore
SplineSet
4 26 m 1,0,-1
 8 26 l 1,1,-1
 8 22 l 1,2,-1
 12 22 l 1,3,-1
 12 20 l 1,4,-1
 10 20 l 1,5,-1
 10 18 l 1,6,-1
 8 18 l 1,7,-1
 8 14 l 1,8,-1
 14 14 l 1,9,-1
 14 12 l 1,10,-1
 4 12 l 1,11,-1
 4 16 l 1,12,-1
 0 16 l 1,13,-1
 0 18 l 1,14,-1
 2 18 l 1,15,-1
 2 20 l 1,16,-1
 4 20 l 1,17,-1
 4 26 l 1,0,-1
EndSplineSet
EndChar

StartChar: lslash
Encoding: 322 322 293
Width: 16
Flags: W
LayerCount: 2
Fore
SplineSet
2 26 m 1,0,-1
 10 26 l 1,1,-1
 10 22 l 1,2,-1
 14 22 l 1,3,-1
 14 20 l 1,4,-1
 12 20 l 1,5,-1
 12 18 l 1,6,-1
 10 18 l 1,7,-1
 10 14 l 1,8,-1
 14 14 l 1,9,-1
 14 12 l 1,10,-1
 6 12 l 1,11,-1
 6 16 l 1,12,-1
 2 16 l 1,13,-1
 2 18 l 1,14,-1
 4 18 l 1,15,-1
 4 20 l 1,16,-1
 6 20 l 1,17,-1
 6 24 l 1,18,-1
 2 24 l 1,19,-1
 2 26 l 1,0,-1
EndSplineSet
EndChar

StartChar: Nacute
Encoding: 323 323 294
Width: 16
Flags: W
LayerCount: 2
Fore
SplineSet
10 22 m 1,0,-1
 14 22 l 1,1,-1
 14 16 l 1,2,-1
 14 12 l 1,3,-1
 8 12 l 1,4,-1
 8 14 l 1,5,-1
 6 14 l 1,6,-1
 6 16 l 1,7,-1
 4 16 l 1,8,-1
 4 12 l 1,9,-1
 0 12 l 1,10,-1
 0 16 l 1,11,-1
 0 22 l 1,12,-1
 4 22 l 1,13,-1
 4 20 l 1,14,-1
 6 20 l 1,15,-1
 6 18 l 1,16,-1
 8 18 l 1,17,-1
 8 16 l 1,18,-1
 10 16 l 1,19,-1
 10 22 l 1,0,-1
8 26 m 1,20,-1
 14 26 l 1,21,-1
 14 24 l 1,22,-1
 8 24 l 1,23,-1
 8 26 l 1,20,-1
EndSplineSet
EndChar

StartChar: nacute
Encoding: 324 324 295
Width: 16
Flags: W
LayerCount: 2
Fore
SplineSet
2 22 m 1,0,-1
 12 22 l 1,1,-1
 12 20 l 1,2,-1
 14 20 l 1,3,-1
 14 12 l 1,4,-1
 10 12 l 1,5,-1
 10 20 l 1,6,-1
 6 20 l 1,7,-1
 6 12 l 1,8,-1
 2 12 l 1,9,-1
 2 20 l 1,10,-1
 2 22 l 1,0,-1
8 26 m 1,11,-1
 14 26 l 1,12,-1
 14 24 l 1,13,-1
 8 24 l 1,14,-1
 8 26 l 1,11,-1
EndSplineSet
EndChar

StartChar: uni0145
Encoding: 325 325 296
Width: 16
Flags: W
LayerCount: 2
Fore
SplineSet
10 26 m 1,0,-1
 14 26 l 1,1,-1
 14 20 l 1,2,-1
 14 12 l 1,3,-1
 10 12 l 1,4,-1
 10 10 l 1,5,-1
 6 10 l 1,6,-1
 6 12 l 1,7,-1
 8 12 l 1,8,-1
 8 14 l 1,9,-1
 10 14 l 1,10,-1
 10 16 l 1,11,-1
 8 16 l 1,12,-1
 8 18 l 1,13,-1
 6 18 l 1,14,-1
 6 20 l 1,15,-1
 4 20 l 1,16,-1
 4 12 l 1,17,-1
 0 12 l 1,18,-1
 0 20 l 1,19,-1
 0 26 l 1,20,-1
 4 26 l 1,21,-1
 4 24 l 1,22,-1
 6 24 l 1,23,-1
 6 22 l 1,24,-1
 8 22 l 1,25,-1
 8 20 l 1,26,-1
 10 20 l 1,27,-1
 10 26 l 1,0,-1
EndSplineSet
EndChar

StartChar: uni0146
Encoding: 326 326 297
Width: 16
Flags: W
LayerCount: 2
Fore
SplineSet
2 22 m 1,0,-1
 12 22 l 1,1,-1
 12 20 l 1,2,-1
 14 20 l 1,3,-1
 14 12 l 1,4,-1
 10 12 l 1,5,-1
 10 10 l 1,6,-1
 6 10 l 1,7,-1
 6 12 l 1,8,-1
 2 12 l 1,9,-1
 2 20 l 1,10,-1
 2 22 l 1,0,-1
8 12 m 1,11,-1
 8 14 l 1,12,-1
 10 14 l 1,13,-1
 10 20 l 1,14,-1
 6 20 l 1,15,-1
 6 12 l 1,16,-1
 8 12 l 1,11,-1
EndSplineSet
EndChar

StartChar: Ncaron
Encoding: 327 327 298
Width: 16
Flags: W
LayerCount: 2
Fore
SplineSet
10 20 m 1,0,-1
 14 20 l 1,1,-1
 14 16 l 1,2,-1
 14 12 l 1,3,-1
 10 12 l 1,4,-1
 10 14 l 1,5,-1
 6 14 l 1,6,-1
 6 16 l 1,7,-1
 4 16 l 1,8,-1
 4 12 l 1,9,-1
 0 12 l 1,10,-1
 0 16 l 1,11,-1
 0 20 l 1,12,-1
 4 20 l 1,13,-1
 4 18 l 1,14,-1
 8 18 l 1,15,-1
 8 16 l 1,16,-1
 10 16 l 1,17,-1
 10 20 l 1,0,-1
10 26 m 1,18,-1
 14 26 l 1,19,-1
 14 24 l 1,20,-1
 10 24 l 1,21,-1
 10 26 l 1,18,-1
2 26 m 1,22,-1
 6 26 l 1,23,-1
 6 24 l 1,24,-1
 2 24 l 1,25,-1
 2 26 l 1,22,-1
10 24 m 1,26,-1
 10 22 l 1,27,-1
 6 22 l 1,28,-1
 6 24 l 1,29,-1
 10 24 l 1,26,-1
EndSplineSet
EndChar

StartChar: ncaron
Encoding: 328 328 299
Width: 16
Flags: W
LayerCount: 2
Fore
SplineSet
2 20 m 1,0,-1
 12 20 l 1,1,-1
 12 18 l 1,2,-1
 14 18 l 1,3,-1
 14 12 l 1,4,-1
 10 12 l 1,5,-1
 10 18 l 1,6,-1
 6 18 l 1,7,-1
 6 12 l 1,8,-1
 2 12 l 1,9,-1
 2 18 l 1,10,-1
 2 20 l 1,0,-1
10 26 m 1,11,-1
 14 26 l 1,12,-1
 14 24 l 1,13,-1
 10 24 l 1,14,-1
 10 26 l 1,11,-1
2 26 m 1,15,-1
 6 26 l 1,16,-1
 6 24 l 1,17,-1
 2 24 l 1,18,-1
 2 26 l 1,15,-1
10 24 m 1,19,-1
 10 22 l 1,20,-1
 6 22 l 1,21,-1
 6 24 l 1,22,-1
 10 24 l 1,19,-1
EndSplineSet
EndChar

StartChar: napostrophe
Encoding: 329 329 300
Width: 16
Flags: W
LayerCount: 2
Fore
SplineSet
4 22 m 1,0,-1
 12 22 l 1,1,-1
 12 20 l 1,2,-1
 14 20 l 1,3,-1
 14 12 l 1,4,-1
 10 12 l 1,5,-1
 10 20 l 1,6,-1
 8 20 l 1,7,-1
 8 12 l 1,8,-1
 4 12 l 1,9,-1
 4 20 l 1,10,-1
 4 22 l 1,0,-1
0 22 m 1,11,-1
 2 22 l 1,12,-1
 2 18 l 1,13,-1
 0 18 l 1,14,-1
 0 22 l 1,11,-1
EndSplineSet
EndChar

StartChar: Eng
Encoding: 330 330 301
Width: 16
Flags: W
LayerCount: 2
Fore
SplineSet
0 26 m 1,0,-1
 12 26 l 1,1,-1
 12 24 l 1,2,-1
 14 24 l 1,3,-1
 14 14 l 1,4,-1
 12 14 l 1,5,-1
 12 12 l 1,6,-1
 10 12 l 1,7,-1
 10 10 l 1,8,-1
 6 10 l 1,9,-1
 6 12 l 1,10,-1
 8 12 l 1,11,-1
 8 14 l 1,12,-1
 10 14 l 1,13,-1
 10 24 l 1,14,-1
 4 24 l 1,15,-1
 4 12 l 1,16,-1
 0 12 l 1,17,-1
 0 24 l 1,18,-1
 0 26 l 1,0,-1
EndSplineSet
EndChar

StartChar: eng
Encoding: 331 331 302
Width: 16
Flags: W
LayerCount: 2
Fore
SplineSet
2 22 m 1,0,-1
 12 22 l 1,1,-1
 12 20 l 1,2,-1
 14 20 l 1,3,-1
 14 12 l 1,4,-1
 12 12 l 1,5,-1
 12 10 l 1,6,-1
 8 10 l 1,7,-1
 8 12 l 1,8,-1
 10 12 l 1,9,-1
 10 20 l 1,10,-1
 6 20 l 1,11,-1
 6 12 l 1,12,-1
 2 12 l 1,13,-1
 2 20 l 1,14,-1
 2 22 l 1,0,-1
EndSplineSet
EndChar

StartChar: Omacron
Encoding: 332 332 303
Width: 16
Flags: W
LayerCount: 2
Fore
SplineSet
2 22 m 1,0,-1
 12 22 l 1,1,-1
 12 20 l 1,2,-1
 14 20 l 1,3,-1
 14 14 l 1,4,-1
 12 14 l 1,5,-1
 12 12 l 1,6,-1
 2 12 l 1,7,-1
 2 14 l 1,8,-1
 0 14 l 1,9,-1
 0 20 l 1,10,-1
 2 20 l 1,11,-1
 2 22 l 1,0,-1
2 26 m 1,12,-1
 14 26 l 1,13,-1
 14 24 l 1,14,-1
 2 24 l 1,15,-1
 2 26 l 1,12,-1
10 14 m 1,16,-1
 10 20 l 1,17,-1
 4 20 l 1,18,-1
 4 14 l 1,19,-1
 10 14 l 1,16,-1
EndSplineSet
EndChar

StartChar: omacron
Encoding: 333 333 304
Width: 16
Flags: W
LayerCount: 2
Fore
SplineSet
4 22 m 1,0,-1
 12 22 l 1,1,-1
 12 20 l 1,2,-1
 14 20 l 1,3,-1
 14 14 l 1,4,-1
 12 14 l 1,5,-1
 12 12 l 1,6,-1
 4 12 l 1,7,-1
 4 14 l 1,8,-1
 2 14 l 1,9,-1
 2 20 l 1,10,-1
 4 20 l 1,11,-1
 4 22 l 1,0,-1
2 26 m 1,12,-1
 14 26 l 1,13,-1
 14 24 l 1,14,-1
 2 24 l 1,15,-1
 2 26 l 1,12,-1
10 14 m 1,16,-1
 10 20 l 1,17,-1
 6 20 l 1,18,-1
 6 14 l 1,19,-1
 10 14 l 1,16,-1
EndSplineSet
EndChar

StartChar: Obreve
Encoding: 334 334 305
Width: 16
Flags: W
LayerCount: 2
Fore
SplineSet
2 20 m 1,0,-1
 12 20 l 1,1,-1
 12 18 l 1,2,-1
 14 18 l 1,3,-1
 14 14 l 1,4,-1
 12 14 l 1,5,-1
 12 12 l 1,6,-1
 2 12 l 1,7,-1
 2 14 l 1,8,-1
 0 14 l 1,9,-1
 0 18 l 1,10,-1
 2 18 l 1,11,-1
 2 20 l 1,0,-1
10 26 m 1,12,-1
 14 26 l 1,13,-1
 14 24 l 1,14,-1
 12 24 l 1,15,-1
 12 22 l 1,16,-1
 2 22 l 1,17,-1
 2 24 l 1,18,-1
 0 24 l 1,19,-1
 0 26 l 1,20,-1
 4 26 l 1,21,-1
 4 24 l 1,22,-1
 10 24 l 1,23,-1
 10 26 l 1,12,-1
10 14 m 1,24,-1
 10 18 l 1,25,-1
 4 18 l 1,26,-1
 4 14 l 1,27,-1
 10 14 l 1,24,-1
EndSplineSet
EndChar

StartChar: obreve
Encoding: 335 335 306
Width: 16
Flags: W
LayerCount: 2
Fore
SplineSet
4 20 m 1,0,-1
 12 20 l 1,1,-1
 12 18 l 1,2,-1
 14 18 l 1,3,-1
 14 14 l 1,4,-1
 12 14 l 1,5,-1
 12 12 l 1,6,-1
 4 12 l 1,7,-1
 4 14 l 1,8,-1
 2 14 l 1,9,-1
 2 18 l 1,10,-1
 4 18 l 1,11,-1
 4 20 l 1,0,-1
10 26 m 1,12,-1
 14 26 l 1,13,-1
 14 24 l 1,14,-1
 12 24 l 1,15,-1
 12 22 l 1,16,-1
 2 22 l 1,17,-1
 2 24 l 1,18,-1
 0 24 l 1,19,-1
 0 26 l 1,20,-1
 4 26 l 1,21,-1
 4 24 l 1,22,-1
 10 24 l 1,23,-1
 10 26 l 1,12,-1
10 14 m 1,24,-1
 10 18 l 1,25,-1
 6 18 l 1,26,-1
 6 14 l 1,27,-1
 10 14 l 1,24,-1
EndSplineSet
EndChar

StartChar: Ohungarumlaut
Encoding: 336 336 307
Width: 16
Flags: W
LayerCount: 2
Fore
SplineSet
2 20 m 1,0,-1
 12 20 l 1,1,-1
 12 18 l 1,2,-1
 14 18 l 1,3,-1
 14 14 l 1,4,-1
 12 14 l 1,5,-1
 12 12 l 1,6,-1
 2 12 l 1,7,-1
 2 14 l 1,8,-1
 0 14 l 1,9,-1
 0 18 l 1,10,-1
 2 18 l 1,11,-1
 2 20 l 1,0,-1
10 26 m 1,12,-1
 14 26 l 1,13,-1
 14 24 l 1,14,-1
 12 24 l 1,15,-1
 12 22 l 1,16,-1
 8 22 l 1,17,-1
 8 24 l 1,18,-1
 10 24 l 1,19,-1
 10 26 l 1,12,-1
2 26 m 1,20,-1
 6 26 l 1,21,-1
 6 24 l 1,22,-1
 4 24 l 1,23,-1
 4 22 l 1,24,-1
 0 22 l 1,25,-1
 0 24 l 1,26,-1
 2 24 l 1,27,-1
 2 26 l 1,20,-1
10 14 m 1,28,-1
 10 18 l 1,29,-1
 4 18 l 1,30,-1
 4 14 l 1,31,-1
 10 14 l 1,28,-1
EndSplineSet
EndChar

StartChar: ohungarumlaut
Encoding: 337 337 308
Width: 16
Flags: W
LayerCount: 2
Fore
SplineSet
4 20 m 1,0,-1
 12 20 l 1,1,-1
 12 18 l 1,2,-1
 14 18 l 1,3,-1
 14 14 l 1,4,-1
 12 14 l 1,5,-1
 12 12 l 1,6,-1
 4 12 l 1,7,-1
 4 14 l 1,8,-1
 2 14 l 1,9,-1
 2 18 l 1,10,-1
 4 18 l 1,11,-1
 4 20 l 1,0,-1
10 26 m 1,12,-1
 14 26 l 1,13,-1
 14 24 l 1,14,-1
 12 24 l 1,15,-1
 12 22 l 1,16,-1
 8 22 l 1,17,-1
 8 24 l 1,18,-1
 10 24 l 1,19,-1
 10 26 l 1,12,-1
2 26 m 1,20,-1
 6 26 l 1,21,-1
 6 24 l 1,22,-1
 4 24 l 1,23,-1
 4 22 l 1,24,-1
 0 22 l 1,25,-1
 0 24 l 1,26,-1
 2 24 l 1,27,-1
 2 26 l 1,20,-1
10 14 m 1,28,-1
 10 18 l 1,29,-1
 6 18 l 1,30,-1
 6 14 l 1,31,-1
 10 14 l 1,28,-1
EndSplineSet
EndChar

StartChar: OE
Encoding: 338 338 309
Width: 16
Flags: W
LayerCount: 2
Fore
SplineSet
2 26 m 1,0,-1
 14 26 l 1,1,-1
 14 24 l 1,2,-1
 12 24 l 1,3,-1
 12 20 l 1,4,-1
 14 20 l 1,5,-1
 14 18 l 1,6,-1
 12 18 l 1,7,-1
 12 14 l 1,8,-1
 14 14 l 1,9,-1
 14 12 l 1,10,-1
 2 12 l 1,11,-1
 2 14 l 1,12,-1
 0 14 l 1,13,-1
 0 24 l 1,14,-1
 2 24 l 1,15,-1
 2 26 l 1,0,-1
8 18 m 1,16,-1
 8 24 l 1,17,-1
 4 24 l 1,18,-1
 4 14 l 1,19,-1
 8 14 l 1,20,-1
 8 18 l 1,16,-1
EndSplineSet
EndChar

StartChar: oe
Encoding: 339 339 310
Width: 16
Flags: W
LayerCount: 2
Fore
SplineSet
8 22 m 1,0,-1
 12 22 l 1,1,-1
 12 20 l 1,2,-1
 14 20 l 1,3,-1
 14 18 l 1,4,-1
 14 16 l 1,5,-1
 10 16 l 1,6,-1
 10 14 l 1,7,-1
 8 14 l 1,8,-1
 8 12 l 1,9,-1
 2 12 l 1,10,-1
 2 14 l 1,11,-1
 0 14 l 1,12,-1
 0 20 l 1,13,-1
 2 20 l 1,14,-1
 2 22 l 1,15,-1
 6 22 l 1,16,-1
 6 20 l 1,17,-1
 8 20 l 1,18,-1
 8 22 l 1,0,-1
10 14 m 1,19,-1
 14 14 l 1,20,-1
 14 12 l 1,21,-1
 10 12 l 1,22,-1
 10 14 l 1,19,-1
6 16 m 1,23,-1
 6 20 l 1,24,-1
 4 20 l 1,25,-1
 4 14 l 1,26,-1
 6 14 l 1,27,-1
 6 16 l 1,23,-1
12 18 m 1,28,-1
 12 20 l 1,29,-1
 10 20 l 1,30,-1
 10 18 l 1,31,-1
 12 18 l 1,28,-1
EndSplineSet
EndChar

StartChar: Racute
Encoding: 340 340 311
Width: 16
Flags: W
LayerCount: 2
Fore
SplineSet
2 22 m 1,0,-1
 12 22 l 1,1,-1
 12 20 l 1,2,-1
 14 20 l 1,3,-1
 14 18 l 1,4,-1
 12 18 l 1,5,-1
 12 16 l 1,6,-1
 14 16 l 1,7,-1
 14 12 l 1,8,-1
 10 12 l 1,9,-1
 10 16 l 1,10,-1
 6 16 l 1,11,-1
 6 12 l 1,12,-1
 2 12 l 1,13,-1
 2 16 l 1,14,-1
 2 20 l 1,15,-1
 2 22 l 1,0,-1
8 26 m 1,16,-1
 14 26 l 1,17,-1
 14 24 l 1,18,-1
 8 24 l 1,19,-1
 8 26 l 1,16,-1
10 18 m 1,20,-1
 10 20 l 1,21,-1
 6 20 l 1,22,-1
 6 18 l 1,23,-1
 10 18 l 1,20,-1
EndSplineSet
EndChar

StartChar: racute
Encoding: 341 341 312
Width: 16
Flags: W
LayerCount: 2
Fore
SplineSet
2 22 m 1,0,-1
 12 22 l 1,1,-1
 12 20 l 1,2,-1
 14 20 l 1,3,-1
 14 18 l 1,4,-1
 10 18 l 1,5,-1
 10 20 l 1,6,-1
 6 20 l 1,7,-1
 6 12 l 1,8,-1
 2 12 l 1,9,-1
 2 20 l 1,10,-1
 2 22 l 1,0,-1
8 26 m 1,11,-1
 14 26 l 1,12,-1
 14 24 l 1,13,-1
 8 24 l 1,14,-1
 8 26 l 1,11,-1
EndSplineSet
EndChar

StartChar: uni0156
Encoding: 342 342 313
Width: 16
Flags: W
LayerCount: 2
Fore
SplineSet
6 14 m 1,0,-1
 8 14 l 1,1,-1
 8 12 l 1,2,-1
 8 10 l 1,3,-1
 4 10 l 1,4,-1
 4 12 l 1,5,-1
 0 12 l 1,6,-1
 0 18 l 1,7,-1
 0 24 l 1,8,-1
 0 26 l 1,9,-1
 12 26 l 1,10,-1
 12 24 l 1,11,-1
 14 24 l 1,12,-1
 14 20 l 1,13,-1
 12 20 l 1,14,-1
 12 18 l 1,15,-1
 12 16 l 1,16,-1
 14 16 l 1,17,-1
 14 14 l 1,18,-1
 14 12 l 1,19,-1
 10 12 l 1,20,-1
 10 14 l 1,21,-1
 10 16 l 1,22,-1
 8 16 l 1,23,-1
 8 18 l 1,24,-1
 4 18 l 1,25,-1
 4 12 l 1,26,-1
 6 12 l 1,27,-1
 6 14 l 1,0,-1
10 20 m 1,28,-1
 10 24 l 1,29,-1
 4 24 l 1,30,-1
 4 20 l 1,31,-1
 10 20 l 1,28,-1
EndSplineSet
EndChar

StartChar: uni0157
Encoding: 343 343 314
Width: 16
Flags: W
LayerCount: 2
Fore
SplineSet
2 22 m 1,0,-1
 12 22 l 1,1,-1
 12 20 l 1,2,-1
 14 20 l 1,3,-1
 14 18 l 1,4,-1
 10 18 l 1,5,-1
 10 20 l 1,6,-1
 6 20 l 1,7,-1
 6 12 l 1,8,-1
 8 12 l 1,9,-1
 8 10 l 1,10,-1
 2 10 l 1,11,-1
 2 20 l 1,12,-1
 2 22 l 1,0,-1
EndSplineSet
EndChar

StartChar: Rcaron
Encoding: 344 344 315
Width: 16
Flags: W
LayerCount: 2
Fore
SplineSet
2 20 m 1,0,-1
 12 20 l 1,1,-1
 12 18 l 1,2,-1
 14 18 l 1,3,-1
 14 16 l 1,4,-1
 12 16 l 1,5,-1
 12 14 l 1,6,-1
 14 14 l 1,7,-1
 14 12 l 1,8,-1
 10 12 l 1,9,-1
 10 14 l 1,10,-1
 6 14 l 1,11,-1
 6 12 l 1,12,-1
 2 12 l 1,13,-1
 2 14 l 1,14,-1
 2 18 l 1,15,-1
 2 20 l 1,0,-1
10 26 m 1,16,-1
 14 26 l 1,17,-1
 14 24 l 1,18,-1
 10 24 l 1,19,-1
 10 26 l 1,16,-1
2 26 m 1,20,-1
 6 26 l 1,21,-1
 6 24 l 1,22,-1
 2 24 l 1,23,-1
 2 26 l 1,20,-1
10 16 m 1,24,-1
 10 18 l 1,25,-1
 6 18 l 1,26,-1
 6 16 l 1,27,-1
 10 16 l 1,24,-1
10 24 m 1,28,-1
 10 22 l 1,29,-1
 6 22 l 1,30,-1
 6 24 l 1,31,-1
 10 24 l 1,28,-1
EndSplineSet
EndChar

StartChar: rcaron
Encoding: 345 345 316
Width: 16
Flags: W
LayerCount: 2
Fore
SplineSet
2 20 m 1,0,-1
 12 20 l 1,1,-1
 12 18 l 1,2,-1
 14 18 l 1,3,-1
 14 16 l 1,4,-1
 10 16 l 1,5,-1
 10 18 l 1,6,-1
 6 18 l 1,7,-1
 6 12 l 1,8,-1
 2 12 l 1,9,-1
 2 18 l 1,10,-1
 2 20 l 1,0,-1
10 26 m 1,11,-1
 14 26 l 1,12,-1
 14 24 l 1,13,-1
 10 24 l 1,14,-1
 10 26 l 1,11,-1
2 26 m 1,15,-1
 6 26 l 1,16,-1
 6 24 l 1,17,-1
 2 24 l 1,18,-1
 2 26 l 1,15,-1
10 24 m 1,19,-1
 10 22 l 1,20,-1
 6 22 l 1,21,-1
 6 24 l 1,22,-1
 10 24 l 1,19,-1
EndSplineSet
EndChar

StartChar: Sacute
Encoding: 346 346 317
Width: 16
Flags: W
LayerCount: 2
Fore
SplineSet
2 22 m 1,0,-1
 14 22 l 1,1,-1
 14 20 l 1,2,-1
 4 20 l 1,3,-1
 4 18 l 1,4,-1
 0 18 l 1,5,-1
 0 20 l 1,6,-1
 2 20 l 1,7,-1
 2 22 l 1,0,-1
8 26 m 1,8,-1
 14 26 l 1,9,-1
 14 24 l 1,10,-1
 8 24 l 1,11,-1
 8 26 l 1,8,-1
10 14 m 1,12,-1
 10 16 l 1,13,-1
 4 16 l 1,14,-1
 4 18 l 1,15,-1
 12 18 l 1,16,-1
 12 16 l 1,17,-1
 14 16 l 1,18,-1
 14 14 l 1,19,-1
 12 14 l 1,20,-1
 12 12 l 1,21,-1
 0 12 l 1,22,-1
 0 14 l 1,23,-1
 10 14 l 1,12,-1
EndSplineSet
EndChar

StartChar: sacute
Encoding: 347 347 318
Width: 16
Flags: W
LayerCount: 2
Fore
SplineSet
4 22 m 1,0,-1
 14 22 l 1,1,-1
 14 20 l 1,2,-1
 6 20 l 1,3,-1
 6 18 l 1,4,-1
 12 18 l 1,5,-1
 12 16 l 1,6,-1
 14 16 l 1,7,-1
 14 14 l 1,8,-1
 12 14 l 1,9,-1
 12 12 l 1,10,-1
 2 12 l 1,11,-1
 2 14 l 1,12,-1
 10 14 l 1,13,-1
 10 16 l 1,14,-1
 4 16 l 1,15,-1
 4 18 l 1,16,-1
 2 18 l 1,17,-1
 2 20 l 1,18,-1
 4 20 l 1,19,-1
 4 22 l 1,0,-1
8 26 m 1,20,-1
 14 26 l 1,21,-1
 14 24 l 1,22,-1
 8 24 l 1,23,-1
 8 26 l 1,20,-1
EndSplineSet
EndChar

StartChar: Scircumflex
Encoding: 348 348 319
Width: 16
Flags: W
LayerCount: 2
Fore
SplineSet
6 26 m 1,0,-1
 10 26 l 1,1,-1
 10 24 l 1,2,-1
 14 24 l 1,3,-1
 14 22 l 1,4,-1
 14 20 l 1,5,-1
 4 20 l 1,6,-1
 4 18 l 1,7,-1
 0 18 l 1,8,-1
 0 20 l 1,9,-1
 2 20 l 1,10,-1
 2 24 l 1,11,-1
 6 24 l 1,12,-1
 6 22 l 1,13,-1
 10 22 l 1,14,-1
 10 24 l 1,15,-1
 6 24 l 1,16,-1
 6 26 l 1,0,-1
10 14 m 1,17,-1
 10 16 l 1,18,-1
 4 16 l 1,19,-1
 4 18 l 1,20,-1
 12 18 l 1,21,-1
 12 16 l 1,22,-1
 14 16 l 1,23,-1
 14 14 l 1,24,-1
 12 14 l 1,25,-1
 12 12 l 1,26,-1
 0 12 l 1,27,-1
 0 14 l 1,28,-1
 10 14 l 1,17,-1
EndSplineSet
EndChar

StartChar: scircumflex
Encoding: 349 349 320
Width: 16
Flags: W
LayerCount: 2
Fore
SplineSet
6 26 m 1,0,-1
 10 26 l 1,1,-1
 10 24 l 1,2,-1
 14 24 l 1,3,-1
 14 22 l 1,4,-1
 14 20 l 1,5,-1
 6 20 l 1,6,-1
 6 18 l 1,7,-1
 12 18 l 1,8,-1
 12 16 l 1,9,-1
 14 16 l 1,10,-1
 14 14 l 1,11,-1
 12 14 l 1,12,-1
 12 12 l 1,13,-1
 2 12 l 1,14,-1
 2 14 l 1,15,-1
 10 14 l 1,16,-1
 10 16 l 1,17,-1
 4 16 l 1,18,-1
 4 18 l 1,19,-1
 2 18 l 1,20,-1
 2 20 l 1,21,-1
 4 20 l 1,22,-1
 4 22 l 1,23,-1
 2 22 l 1,24,-1
 2 24 l 1,25,-1
 6 24 l 1,26,-1
 6 22 l 1,27,-1
 10 22 l 1,28,-1
 10 24 l 1,29,-1
 6 24 l 1,30,-1
 6 26 l 1,0,-1
EndSplineSet
EndChar

StartChar: Scedilla
Encoding: 350 350 321
Width: 16
Flags: W
LayerCount: 2
Fore
SplineSet
2 16 m 1,0,-1
 6 16 l 1,1,-1
 6 14 l 1,2,-1
 10 14 l 1,3,-1
 10 16 l 1,4,-1
 10 18 l 1,5,-1
 4 18 l 1,6,-1
 4 20 l 1,7,-1
 2 20 l 1,8,-1
 2 24 l 1,9,-1
 4 24 l 1,10,-1
 4 26 l 1,11,-1
 12 26 l 1,12,-1
 12 24 l 1,13,-1
 14 24 l 1,14,-1
 14 22 l 1,15,-1
 10 22 l 1,16,-1
 10 24 l 1,17,-1
 6 24 l 1,18,-1
 6 20 l 1,19,-1
 12 20 l 1,20,-1
 12 18 l 1,21,-1
 14 18 l 1,22,-1
 14 16 l 1,23,-1
 14 14 l 1,24,-1
 12 14 l 1,25,-1
 12 12 l 1,26,-1
 10 12 l 1,27,-1
 10 10 l 1,28,-1
 6 10 l 1,29,-1
 6 12 l 1,30,-1
 4 12 l 1,31,-1
 4 14 l 1,32,-1
 2 14 l 1,33,-1
 2 16 l 1,0,-1
EndSplineSet
EndChar

StartChar: scedilla
Encoding: 351 351 322
Width: 16
Flags: W
LayerCount: 2
Fore
SplineSet
4 22 m 1,0,-1
 14 22 l 1,1,-1
 14 20 l 1,2,-1
 6 20 l 1,3,-1
 6 18 l 1,4,-1
 12 18 l 1,5,-1
 12 16 l 1,6,-1
 14 16 l 1,7,-1
 14 14 l 1,8,-1
 12 14 l 1,9,-1
 12 12 l 1,10,-1
 10 12 l 1,11,-1
 10 10 l 1,12,-1
 6 10 l 1,13,-1
 6 12 l 1,14,-1
 2 12 l 1,15,-1
 2 14 l 1,16,-1
 10 14 l 1,17,-1
 10 16 l 1,18,-1
 4 16 l 1,19,-1
 4 18 l 1,20,-1
 2 18 l 1,21,-1
 2 20 l 1,22,-1
 4 20 l 1,23,-1
 4 22 l 1,0,-1
EndSplineSet
EndChar

StartChar: Scaron
Encoding: 352 352 323
Width: 16
Flags: W
LayerCount: 2
Fore
SplineSet
2 20 m 1,0,-1
 14 20 l 1,1,-1
 14 18 l 1,2,-1
 8 18 l 1,3,-1
 8 16 l 1,4,-1
 14 16 l 1,5,-1
 14 14 l 1,6,-1
 12 14 l 1,7,-1
 12 12 l 1,8,-1
 0 12 l 1,9,-1
 0 14 l 1,10,-1
 6 14 l 1,11,-1
 6 16 l 1,12,-1
 0 16 l 1,13,-1
 0 18 l 1,14,-1
 2 18 l 1,15,-1
 2 20 l 1,0,-1
10 26 m 1,16,-1
 14 26 l 1,17,-1
 14 24 l 1,18,-1
 10 24 l 1,19,-1
 10 26 l 1,16,-1
2 26 m 1,20,-1
 6 26 l 1,21,-1
 6 24 l 1,22,-1
 2 24 l 1,23,-1
 2 26 l 1,20,-1
10 24 m 1,24,-1
 10 22 l 1,25,-1
 6 22 l 1,26,-1
 6 24 l 1,27,-1
 10 24 l 1,24,-1
EndSplineSet
EndChar

StartChar: scaron
Encoding: 353 353 324
Width: 16
Flags: W
LayerCount: 2
Fore
SplineSet
4 20 m 1,0,-1
 14 20 l 1,1,-1
 14 18 l 1,2,-1
 10 18 l 1,3,-1
 10 16 l 1,4,-1
 14 16 l 1,5,-1
 14 14 l 1,6,-1
 12 14 l 1,7,-1
 12 12 l 1,8,-1
 2 12 l 1,9,-1
 2 14 l 1,10,-1
 6 14 l 1,11,-1
 6 16 l 1,12,-1
 2 16 l 1,13,-1
 2 18 l 1,14,-1
 4 18 l 1,15,-1
 4 20 l 1,0,-1
10 26 m 1,16,-1
 14 26 l 1,17,-1
 14 24 l 1,18,-1
 10 24 l 1,19,-1
 10 26 l 1,16,-1
2 26 m 1,20,-1
 6 26 l 1,21,-1
 6 24 l 1,22,-1
 2 24 l 1,23,-1
 2 26 l 1,20,-1
10 24 m 1,24,-1
 10 22 l 1,25,-1
 6 22 l 1,26,-1
 6 24 l 1,27,-1
 10 24 l 1,24,-1
EndSplineSet
EndChar

StartChar: uni0162
Encoding: 354 354 325
Width: 16
Flags: W
LayerCount: 2
Fore
SplineSet
2 26 m 1,0,-1
 14 26 l 1,1,-1
 14 24 l 1,2,-1
 10 24 l 1,3,-1
 10 10 l 1,4,-1
 4 10 l 1,5,-1
 4 12 l 1,6,-1
 6 12 l 1,7,-1
 6 24 l 1,8,-1
 2 24 l 1,9,-1
 2 26 l 1,0,-1
EndSplineSet
EndChar

StartChar: uni0163
Encoding: 355 355 326
Width: 16
Flags: W
LayerCount: 2
Fore
SplineSet
4 26 m 1,0,-1
 8 26 l 1,1,-1
 8 22 l 1,2,-1
 12 22 l 1,3,-1
 12 20 l 1,4,-1
 8 20 l 1,5,-1
 8 14 l 1,6,-1
 12 14 l 1,7,-1
 12 12 l 1,8,-1
 8 12 l 1,9,-1
 8 10 l 1,10,-1
 2 10 l 1,11,-1
 2 12 l 1,12,-1
 6 12 l 1,13,-1
 6 14 l 1,14,-1
 4 14 l 1,15,-1
 4 20 l 1,16,-1
 2 20 l 1,17,-1
 2 22 l 1,18,-1
 4 22 l 1,19,-1
 4 26 l 1,0,-1
EndSplineSet
EndChar

StartChar: Tcaron
Encoding: 356 356 327
Width: 16
Flags: W
LayerCount: 2
Fore
SplineSet
10 26 m 1,0,-1
 14 26 l 1,1,-1
 14 24 l 1,2,-1
 10 24 l 1,3,-1
 10 26 l 1,0,-1
2 26 m 1,4,-1
 6 26 l 1,5,-1
 6 24 l 1,6,-1
 2 24 l 1,7,-1
 2 26 l 1,4,-1
10 20 m 1,8,-1
 10 12 l 1,9,-1
 6 12 l 1,10,-1
 6 20 l 1,11,-1
 2 20 l 1,12,-1
 2 22 l 1,13,-1
 6 22 l 1,14,-1
 6 24 l 1,15,-1
 10 24 l 1,16,-1
 10 22 l 1,17,-1
 14 22 l 1,18,-1
 14 20 l 1,19,-1
 10 20 l 1,8,-1
EndSplineSet
EndChar

StartChar: tcaron
Encoding: 357 357 328
Width: 16
Flags: W
LayerCount: 2
Fore
SplineSet
2 24 m 1,0,-1
 6 24 l 1,1,-1
 6 20 l 1,2,-1
 10 20 l 1,3,-1
 10 18 l 1,4,-1
 6 18 l 1,5,-1
 6 14 l 1,6,-1
 10 14 l 1,7,-1
 10 12 l 1,8,-1
 4 12 l 1,9,-1
 4 14 l 1,10,-1
 2 14 l 1,11,-1
 2 18 l 1,12,-1
 0 18 l 1,13,-1
 0 20 l 1,14,-1
 2 20 l 1,15,-1
 2 24 l 1,0,-1
10 26 m 1,16,-1
 14 26 l 1,17,-1
 14 24 l 1,18,-1
 12 24 l 1,19,-1
 12 22 l 1,20,-1
 8 22 l 1,21,-1
 8 24 l 1,22,-1
 10 24 l 1,23,-1
 10 26 l 1,16,-1
EndSplineSet
EndChar

StartChar: Tbar
Encoding: 358 358 329
Width: 16
Flags: W
LayerCount: 2
Fore
SplineSet
2 26 m 1,0,-1
 14 26 l 1,1,-1
 14 24 l 1,2,-1
 10 24 l 1,3,-1
 10 20 l 1,4,-1
 12 20 l 1,5,-1
 12 18 l 1,6,-1
 10 18 l 1,7,-1
 10 12 l 1,8,-1
 6 12 l 1,9,-1
 6 18 l 1,10,-1
 4 18 l 1,11,-1
 4 20 l 1,12,-1
 6 20 l 1,13,-1
 6 24 l 1,14,-1
 2 24 l 1,15,-1
 2 26 l 1,0,-1
EndSplineSet
EndChar

StartChar: tbar
Encoding: 359 359 330
Width: 16
Flags: W
LayerCount: 2
Fore
SplineSet
4 26 m 1,0,-1
 8 26 l 1,1,-1
 8 22 l 1,2,-1
 12 22 l 1,3,-1
 12 20 l 1,4,-1
 8 20 l 1,5,-1
 8 18 l 1,6,-1
 10 18 l 1,7,-1
 10 16 l 1,8,-1
 8 16 l 1,9,-1
 8 14 l 1,10,-1
 12 14 l 1,11,-1
 12 12 l 1,12,-1
 6 12 l 1,13,-1
 6 14 l 1,14,-1
 4 14 l 1,15,-1
 4 16 l 1,16,-1
 2 16 l 1,17,-1
 2 18 l 1,18,-1
 4 18 l 1,19,-1
 4 20 l 1,20,-1
 2 20 l 1,21,-1
 2 22 l 1,22,-1
 4 22 l 1,23,-1
 4 26 l 1,0,-1
EndSplineSet
EndChar

StartChar: Utilde
Encoding: 360 360 331
Width: 16
Flags: W
LayerCount: 2
Fore
SplineSet
10 20 m 1,0,-1
 14 20 l 1,1,-1
 14 14 l 1,2,-1
 12 14 l 1,3,-1
 12 12 l 1,4,-1
 2 12 l 1,5,-1
 2 14 l 1,6,-1
 0 14 l 1,7,-1
 0 20 l 1,8,-1
 4 20 l 1,9,-1
 4 14 l 1,10,-1
 10 14 l 1,11,-1
 10 20 l 1,0,-1
10 26 m 1,12,-1
 14 26 l 1,13,-1
 14 24 l 1,14,-1
 12 24 l 1,15,-1
 12 22 l 1,16,-1
 6 22 l 1,17,-1
 6 24 l 1,18,-1
 4 24 l 1,19,-1
 4 22 l 1,20,-1
 0 22 l 1,21,-1
 0 24 l 1,22,-1
 2 24 l 1,23,-1
 2 26 l 1,24,-1
 8 26 l 1,25,-1
 8 24 l 1,26,-1
 10 24 l 1,27,-1
 10 26 l 1,12,-1
EndSplineSet
EndChar

StartChar: utilde
Encoding: 361 361 332
Width: 16
Flags: W
LayerCount: 2
Fore
SplineSet
10 20 m 1,0,-1
 14 20 l 1,1,-1
 14 14 l 1,2,-1
 14 12 l 1,3,-1
 4 12 l 1,4,-1
 4 14 l 1,5,-1
 2 14 l 1,6,-1
 2 20 l 1,7,-1
 6 20 l 1,8,-1
 6 14 l 1,9,-1
 10 14 l 1,10,-1
 10 20 l 1,0,-1
10 26 m 1,11,-1
 14 26 l 1,12,-1
 14 24 l 1,13,-1
 12 24 l 1,14,-1
 12 22 l 1,15,-1
 6 22 l 1,16,-1
 6 24 l 1,17,-1
 4 24 l 1,18,-1
 4 22 l 1,19,-1
 0 22 l 1,20,-1
 0 24 l 1,21,-1
 2 24 l 1,22,-1
 2 26 l 1,23,-1
 8 26 l 1,24,-1
 8 24 l 1,25,-1
 10 24 l 1,26,-1
 10 26 l 1,11,-1
EndSplineSet
EndChar

StartChar: Umacron
Encoding: 362 362 333
Width: 16
Flags: W
LayerCount: 2
Fore
SplineSet
10 22 m 1,0,-1
 14 22 l 1,1,-1
 14 14 l 1,2,-1
 12 14 l 1,3,-1
 12 12 l 1,4,-1
 2 12 l 1,5,-1
 2 14 l 1,6,-1
 0 14 l 1,7,-1
 0 22 l 1,8,-1
 4 22 l 1,9,-1
 4 14 l 1,10,-1
 10 14 l 1,11,-1
 10 22 l 1,0,-1
2 26 m 1,12,-1
 14 26 l 1,13,-1
 14 24 l 1,14,-1
 2 24 l 1,15,-1
 2 26 l 1,12,-1
EndSplineSet
EndChar

StartChar: umacron
Encoding: 363 363 334
Width: 16
Flags: W
LayerCount: 2
Fore
SplineSet
10 22 m 1,0,-1
 14 22 l 1,1,-1
 14 14 l 1,2,-1
 14 12 l 1,3,-1
 4 12 l 1,4,-1
 4 14 l 1,5,-1
 2 14 l 1,6,-1
 2 22 l 1,7,-1
 6 22 l 1,8,-1
 6 14 l 1,9,-1
 10 14 l 1,10,-1
 10 22 l 1,0,-1
2 26 m 1,11,-1
 14 26 l 1,12,-1
 14 24 l 1,13,-1
 2 24 l 1,14,-1
 2 26 l 1,11,-1
EndSplineSet
EndChar

StartChar: Ubreve
Encoding: 364 364 335
Width: 16
Flags: W
LayerCount: 2
Fore
SplineSet
10 20 m 1,0,-1
 14 20 l 1,1,-1
 14 14 l 1,2,-1
 12 14 l 1,3,-1
 12 12 l 1,4,-1
 2 12 l 1,5,-1
 2 14 l 1,6,-1
 0 14 l 1,7,-1
 0 20 l 1,8,-1
 4 20 l 1,9,-1
 4 14 l 1,10,-1
 10 14 l 1,11,-1
 10 20 l 1,0,-1
10 26 m 1,12,-1
 14 26 l 1,13,-1
 14 24 l 1,14,-1
 12 24 l 1,15,-1
 12 22 l 1,16,-1
 2 22 l 1,17,-1
 2 24 l 1,18,-1
 0 24 l 1,19,-1
 0 26 l 1,20,-1
 4 26 l 1,21,-1
 4 24 l 1,22,-1
 10 24 l 1,23,-1
 10 26 l 1,12,-1
EndSplineSet
EndChar

StartChar: ubreve
Encoding: 365 365 336
Width: 16
Flags: W
LayerCount: 2
Fore
SplineSet
10 20 m 1,0,-1
 14 20 l 1,1,-1
 14 14 l 1,2,-1
 14 12 l 1,3,-1
 4 12 l 1,4,-1
 4 14 l 1,5,-1
 2 14 l 1,6,-1
 2 20 l 1,7,-1
 6 20 l 1,8,-1
 6 14 l 1,9,-1
 10 14 l 1,10,-1
 10 20 l 1,0,-1
10 26 m 1,11,-1
 14 26 l 1,12,-1
 14 24 l 1,13,-1
 12 24 l 1,14,-1
 12 22 l 1,15,-1
 2 22 l 1,16,-1
 2 24 l 1,17,-1
 0 24 l 1,18,-1
 0 26 l 1,19,-1
 4 26 l 1,20,-1
 4 24 l 1,21,-1
 10 24 l 1,22,-1
 10 26 l 1,11,-1
EndSplineSet
EndChar

StartChar: Uring
Encoding: 366 366 337
Width: 16
Flags: W
LayerCount: 2
Fore
SplineSet
10 20 m 1,0,-1
 14 20 l 1,1,-1
 14 14 l 1,2,-1
 12 14 l 1,3,-1
 12 12 l 1,4,-1
 2 12 l 1,5,-1
 2 14 l 1,6,-1
 0 14 l 1,7,-1
 0 20 l 1,8,-1
 4 20 l 1,9,-1
 4 14 l 1,10,-1
 10 14 l 1,11,-1
 10 20 l 1,0,-1
6 26 m 1,12,-1
 10 26 l 1,13,-1
 10 22 l 1,14,-1
 6 22 l 1,15,-1
 6 26 l 1,12,-1
EndSplineSet
EndChar

StartChar: uring
Encoding: 367 367 338
Width: 16
Flags: W
LayerCount: 2
Fore
SplineSet
10 20 m 1,0,-1
 14 20 l 1,1,-1
 14 14 l 1,2,-1
 14 12 l 1,3,-1
 4 12 l 1,4,-1
 4 14 l 1,5,-1
 2 14 l 1,6,-1
 2 20 l 1,7,-1
 6 20 l 1,8,-1
 6 14 l 1,9,-1
 10 14 l 1,10,-1
 10 20 l 1,0,-1
6 26 m 1,11,-1
 10 26 l 1,12,-1
 10 22 l 1,13,-1
 6 22 l 1,14,-1
 6 26 l 1,11,-1
EndSplineSet
EndChar

StartChar: Uhungarumlaut
Encoding: 368 368 339
Width: 16
Flags: W
LayerCount: 2
Fore
SplineSet
10 20 m 1,0,-1
 14 20 l 1,1,-1
 14 14 l 1,2,-1
 12 14 l 1,3,-1
 12 12 l 1,4,-1
 2 12 l 1,5,-1
 2 14 l 1,6,-1
 0 14 l 1,7,-1
 0 20 l 1,8,-1
 4 20 l 1,9,-1
 4 14 l 1,10,-1
 10 14 l 1,11,-1
 10 20 l 1,0,-1
10 26 m 1,12,-1
 14 26 l 1,13,-1
 14 24 l 1,14,-1
 12 24 l 1,15,-1
 12 22 l 1,16,-1
 8 22 l 1,17,-1
 8 24 l 1,18,-1
 10 24 l 1,19,-1
 10 26 l 1,12,-1
2 26 m 1,20,-1
 6 26 l 1,21,-1
 6 24 l 1,22,-1
 4 24 l 1,23,-1
 4 22 l 1,24,-1
 0 22 l 1,25,-1
 0 24 l 1,26,-1
 2 24 l 1,27,-1
 2 26 l 1,20,-1
EndSplineSet
EndChar

StartChar: uhungarumlaut
Encoding: 369 369 340
Width: 16
Flags: W
LayerCount: 2
Fore
SplineSet
10 20 m 1,0,-1
 14 20 l 1,1,-1
 14 14 l 1,2,-1
 14 12 l 1,3,-1
 4 12 l 1,4,-1
 4 14 l 1,5,-1
 2 14 l 1,6,-1
 2 20 l 1,7,-1
 6 20 l 1,8,-1
 6 14 l 1,9,-1
 10 14 l 1,10,-1
 10 20 l 1,0,-1
10 26 m 1,11,-1
 14 26 l 1,12,-1
 14 24 l 1,13,-1
 12 24 l 1,14,-1
 12 22 l 1,15,-1
 8 22 l 1,16,-1
 8 24 l 1,17,-1
 10 24 l 1,18,-1
 10 26 l 1,11,-1
2 26 m 1,19,-1
 6 26 l 1,20,-1
 6 24 l 1,21,-1
 4 24 l 1,22,-1
 4 22 l 1,23,-1
 0 22 l 1,24,-1
 0 24 l 1,25,-1
 2 24 l 1,26,-1
 2 26 l 1,19,-1
EndSplineSet
EndChar

StartChar: Uogonek
Encoding: 370 370 341
Width: 16
Flags: W
LayerCount: 2
Fore
SplineSet
10 26 m 1,0,-1
 14 26 l 1,1,-1
 14 14 l 1,2,-1
 12 14 l 1,3,-1
 12 12 l 1,4,-1
 14 12 l 1,5,-1
 14 10 l 1,6,-1
 8 10 l 1,7,-1
 8 12 l 1,8,-1
 4 12 l 1,9,-1
 4 14 l 1,10,-1
 2 14 l 1,11,-1
 2 26 l 1,12,-1
 6 26 l 1,13,-1
 6 14 l 1,14,-1
 10 14 l 1,15,-1
 10 26 l 1,0,-1
EndSplineSet
EndChar

StartChar: uogonek
Encoding: 371 371 342
Width: 16
Flags: W
LayerCount: 2
Fore
SplineSet
10 22 m 1,0,-1
 14 22 l 1,1,-1
 14 14 l 1,2,-1
 14 10 l 1,3,-1
 8 10 l 1,4,-1
 8 12 l 1,5,-1
 4 12 l 1,6,-1
 4 14 l 1,7,-1
 2 14 l 1,8,-1
 2 22 l 1,9,-1
 6 22 l 1,10,-1
 6 14 l 1,11,-1
 10 14 l 1,12,-1
 10 22 l 1,0,-1
EndSplineSet
EndChar

StartChar: Wcircumflex
Encoding: 372 372 343
Width: 16
Flags: W
LayerCount: 2
Fore
SplineSet
6 18 m 1,0,-1
 8 18 l 1,1,-1
 8 16 l 1,2,-1
 10 16 l 1,3,-1
 10 18 l 1,4,-1
 10 20 l 1,5,-1
 14 20 l 1,6,-1
 14 18 l 1,7,-1
 14 16 l 1,8,-1
 14 14 l 1,9,-1
 14 12 l 1,10,-1
 10 12 l 1,11,-1
 10 14 l 1,12,-1
 4 14 l 1,13,-1
 4 12 l 1,14,-1
 0 12 l 1,15,-1
 0 14 l 1,16,-1
 0 20 l 1,17,-1
 4 20 l 1,18,-1
 4 16 l 1,19,-1
 6 16 l 1,20,-1
 6 18 l 1,0,-1
6 26 m 1,21,-1
 10 26 l 1,22,-1
 10 24 l 1,23,-1
 14 24 l 1,24,-1
 14 22 l 1,25,-1
 10 22 l 1,26,-1
 10 24 l 1,27,-1
 6 24 l 1,28,-1
 6 22 l 1,29,-1
 2 22 l 1,30,-1
 2 24 l 1,31,-1
 6 24 l 1,32,-1
 6 26 l 1,21,-1
EndSplineSet
EndChar

StartChar: wcircumflex
Encoding: 373 373 344
Width: 16
Flags: W
LayerCount: 2
Fore
SplineSet
6 18 m 1,0,-1
 8 18 l 1,1,-1
 8 16 l 1,2,-1
 10 16 l 1,3,-1
 10 18 l 1,4,-1
 10 20 l 1,5,-1
 14 20 l 1,6,-1
 14 18 l 1,7,-1
 14 16 l 1,8,-1
 12 16 l 1,9,-1
 12 14 l 1,10,-1
 12 12 l 1,11,-1
 8 12 l 1,12,-1
 8 14 l 1,13,-1
 6 14 l 1,14,-1
 6 12 l 1,15,-1
 2 12 l 1,16,-1
 2 14 l 1,17,-1
 2 16 l 1,18,-1
 0 16 l 1,19,-1
 0 20 l 1,20,-1
 4 20 l 1,21,-1
 4 16 l 1,22,-1
 6 16 l 1,23,-1
 6 18 l 1,0,-1
6 26 m 1,24,-1
 10 26 l 1,25,-1
 10 24 l 1,26,-1
 14 24 l 1,27,-1
 14 22 l 1,28,-1
 10 22 l 1,29,-1
 10 24 l 1,30,-1
 6 24 l 1,31,-1
 6 22 l 1,32,-1
 2 22 l 1,33,-1
 2 24 l 1,34,-1
 6 24 l 1,35,-1
 6 26 l 1,24,-1
EndSplineSet
EndChar

StartChar: Ycircumflex
Encoding: 374 374 345
Width: 16
Flags: W
LayerCount: 2
Fore
SplineSet
10 20 m 1,0,-1
 14 20 l 1,1,-1
 14 18 l 1,2,-1
 12 18 l 1,3,-1
 12 16 l 1,4,-1
 10 16 l 1,5,-1
 10 12 l 1,6,-1
 6 12 l 1,7,-1
 6 16 l 1,8,-1
 4 16 l 1,9,-1
 4 18 l 1,10,-1
 2 18 l 1,11,-1
 2 20 l 1,12,-1
 6 20 l 1,13,-1
 6 18 l 1,14,-1
 10 18 l 1,15,-1
 10 20 l 1,0,-1
6 26 m 1,16,-1
 10 26 l 1,17,-1
 10 24 l 1,18,-1
 14 24 l 1,19,-1
 14 22 l 1,20,-1
 10 22 l 1,21,-1
 10 24 l 1,22,-1
 6 24 l 1,23,-1
 6 22 l 1,24,-1
 2 22 l 1,25,-1
 2 24 l 1,26,-1
 6 24 l 1,27,-1
 6 26 l 1,16,-1
EndSplineSet
EndChar

StartChar: ycircumflex
Encoding: 375 375 346
Width: 16
Flags: W
LayerCount: 2
Fore
SplineSet
10 20 m 1,0,-1
 14 20 l 1,1,-1
 14 16 l 1,2,-1
 14 12 l 1,3,-1
 12 12 l 1,4,-1
 12 10 l 1,5,-1
 4 10 l 1,6,-1
 4 12 l 1,7,-1
 10 12 l 1,8,-1
 10 14 l 1,9,-1
 4 14 l 1,10,-1
 4 16 l 1,11,-1
 2 16 l 1,12,-1
 2 20 l 1,13,-1
 6 20 l 1,14,-1
 6 16 l 1,15,-1
 10 16 l 1,16,-1
 10 20 l 1,0,-1
6 26 m 1,17,-1
 10 26 l 1,18,-1
 10 24 l 1,19,-1
 14 24 l 1,20,-1
 14 22 l 1,21,-1
 10 22 l 1,22,-1
 10 24 l 1,23,-1
 6 24 l 1,24,-1
 6 22 l 1,25,-1
 2 22 l 1,26,-1
 2 24 l 1,27,-1
 6 24 l 1,28,-1
 6 26 l 1,17,-1
EndSplineSet
EndChar

StartChar: Ydieresis
Encoding: 376 376 347
Width: 16
Flags: W
LayerCount: 2
Fore
SplineSet
10 22 m 1,0,-1
 14 22 l 1,1,-1
 14 18 l 1,2,-1
 12 18 l 1,3,-1
 12 16 l 1,4,-1
 10 16 l 1,5,-1
 10 12 l 1,6,-1
 6 12 l 1,7,-1
 6 16 l 1,8,-1
 4 16 l 1,9,-1
 4 18 l 1,10,-1
 2 18 l 1,11,-1
 2 22 l 1,12,-1
 6 22 l 1,13,-1
 6 18 l 1,14,-1
 10 18 l 1,15,-1
 10 22 l 1,0,-1
10 26 m 1,16,-1
 14 26 l 1,17,-1
 14 24 l 1,18,-1
 10 24 l 1,19,-1
 10 26 l 1,16,-1
2 26 m 1,20,-1
 6 26 l 1,21,-1
 6 24 l 1,22,-1
 2 24 l 1,23,-1
 2 26 l 1,20,-1
EndSplineSet
EndChar

StartChar: Zacute
Encoding: 377 377 348
Width: 16
Flags: W
LayerCount: 2
Fore
SplineSet
0 22 m 1,0,-1
 14 22 l 1,1,-1
 14 20 l 1,2,-1
 12 20 l 1,3,-1
 12 18 l 1,4,-1
 10 18 l 1,5,-1
 10 16 l 1,6,-1
 6 16 l 1,7,-1
 6 14 l 1,8,-1
 14 14 l 1,9,-1
 14 12 l 1,10,-1
 0 12 l 1,11,-1
 0 14 l 1,12,-1
 2 14 l 1,13,-1
 2 16 l 1,14,-1
 4 16 l 1,15,-1
 4 18 l 1,16,-1
 8 18 l 1,17,-1
 8 20 l 1,18,-1
 0 20 l 1,19,-1
 0 22 l 1,0,-1
8 26 m 1,20,-1
 14 26 l 1,21,-1
 14 24 l 1,22,-1
 8 24 l 1,23,-1
 8 26 l 1,20,-1
EndSplineSet
EndChar

StartChar: zacute
Encoding: 378 378 349
Width: 16
Flags: W
LayerCount: 2
Fore
SplineSet
2 22 m 1,0,-1
 14 22 l 1,1,-1
 14 20 l 1,2,-1
 12 20 l 1,3,-1
 12 18 l 1,4,-1
 10 18 l 1,5,-1
 10 16 l 1,6,-1
 8 16 l 1,7,-1
 8 14 l 1,8,-1
 14 14 l 1,9,-1
 14 12 l 1,10,-1
 2 12 l 1,11,-1
 2 14 l 1,12,-1
 4 14 l 1,13,-1
 4 16 l 1,14,-1
 6 16 l 1,15,-1
 6 18 l 1,16,-1
 8 18 l 1,17,-1
 8 20 l 1,18,-1
 2 20 l 1,19,-1
 2 22 l 1,0,-1
8 26 m 1,20,-1
 14 26 l 1,21,-1
 14 24 l 1,22,-1
 8 24 l 1,23,-1
 8 26 l 1,20,-1
EndSplineSet
EndChar

StartChar: Zdotaccent
Encoding: 379 379 350
Width: 16
Flags: W
LayerCount: 2
Fore
SplineSet
0 22 m 1,0,-1
 14 22 l 1,1,-1
 14 20 l 1,2,-1
 12 20 l 1,3,-1
 12 18 l 1,4,-1
 10 18 l 1,5,-1
 10 16 l 1,6,-1
 6 16 l 1,7,-1
 6 14 l 1,8,-1
 14 14 l 1,9,-1
 14 12 l 1,10,-1
 0 12 l 1,11,-1
 0 14 l 1,12,-1
 2 14 l 1,13,-1
 2 16 l 1,14,-1
 4 16 l 1,15,-1
 4 18 l 1,16,-1
 8 18 l 1,17,-1
 8 20 l 1,18,-1
 0 20 l 1,19,-1
 0 22 l 1,0,-1
6 26 m 1,20,-1
 10 26 l 1,21,-1
 10 24 l 1,22,-1
 6 24 l 1,23,-1
 6 26 l 1,20,-1
EndSplineSet
EndChar

StartChar: zdotaccent
Encoding: 380 380 351
Width: 16
Flags: W
LayerCount: 2
Fore
SplineSet
2 22 m 1,0,-1
 14 22 l 1,1,-1
 14 20 l 1,2,-1
 12 20 l 1,3,-1
 12 18 l 1,4,-1
 10 18 l 1,5,-1
 10 16 l 1,6,-1
 8 16 l 1,7,-1
 8 14 l 1,8,-1
 14 14 l 1,9,-1
 14 12 l 1,10,-1
 2 12 l 1,11,-1
 2 14 l 1,12,-1
 4 14 l 1,13,-1
 4 16 l 1,14,-1
 6 16 l 1,15,-1
 6 18 l 1,16,-1
 8 18 l 1,17,-1
 8 20 l 1,18,-1
 2 20 l 1,19,-1
 2 22 l 1,0,-1
6 26 m 1,20,-1
 10 26 l 1,21,-1
 10 24 l 1,22,-1
 6 24 l 1,23,-1
 6 26 l 1,20,-1
EndSplineSet
EndChar

StartChar: Zcaron
Encoding: 381 381 352
Width: 16
Flags: W
LayerCount: 2
Fore
SplineSet
2 20 m 1,0,-1
 14 20 l 1,1,-1
 14 18 l 1,2,-1
 12 18 l 1,3,-1
 12 16 l 1,4,-1
 8 16 l 1,5,-1
 8 14 l 1,6,-1
 14 14 l 1,7,-1
 14 12 l 1,8,-1
 2 12 l 1,9,-1
 2 14 l 1,10,-1
 4 14 l 1,11,-1
 4 16 l 1,12,-1
 8 16 l 1,13,-1
 8 18 l 1,14,-1
 2 18 l 1,15,-1
 2 20 l 1,0,-1
10 26 m 1,16,-1
 14 26 l 1,17,-1
 14 24 l 1,18,-1
 10 24 l 1,19,-1
 10 26 l 1,16,-1
2 26 m 1,20,-1
 6 26 l 1,21,-1
 6 24 l 1,22,-1
 2 24 l 1,23,-1
 2 26 l 1,20,-1
10 24 m 1,24,-1
 10 22 l 1,25,-1
 6 22 l 1,26,-1
 6 24 l 1,27,-1
 10 24 l 1,24,-1
EndSplineSet
EndChar

StartChar: zcaron
Encoding: 382 382 353
Width: 16
Flags: W
LayerCount: 2
Fore
SplineSet
2 20 m 1,0,-1
 14 20 l 1,1,-1
 14 18 l 1,2,-1
 12 18 l 1,3,-1
 12 16 l 1,4,-1
 8 16 l 1,5,-1
 8 14 l 1,6,-1
 14 14 l 1,7,-1
 14 12 l 1,8,-1
 2 12 l 1,9,-1
 2 14 l 1,10,-1
 4 14 l 1,11,-1
 4 16 l 1,12,-1
 8 16 l 1,13,-1
 8 18 l 1,14,-1
 2 18 l 1,15,-1
 2 20 l 1,0,-1
10 26 m 1,16,-1
 14 26 l 1,17,-1
 14 24 l 1,18,-1
 10 24 l 1,19,-1
 10 26 l 1,16,-1
2 26 m 1,20,-1
 6 26 l 1,21,-1
 6 24 l 1,22,-1
 2 24 l 1,23,-1
 2 26 l 1,20,-1
10 24 m 1,24,-1
 10 22 l 1,25,-1
 6 22 l 1,26,-1
 6 24 l 1,27,-1
 10 24 l 1,24,-1
EndSplineSet
EndChar

StartChar: longs
Encoding: 383 383 354
Width: 16
Flags: W
LayerCount: 2
Fore
SplineSet
4 26 m 1,0,-1
 12 26 l 1,1,-1
 12 24 l 1,2,-1
 14 24 l 1,3,-1
 14 22 l 1,4,-1
 10 22 l 1,5,-1
 10 24 l 1,6,-1
 6 24 l 1,7,-1
 6 12 l 1,8,-1
 2 12 l 1,9,-1
 2 24 l 1,10,-1
 4 24 l 1,11,-1
 4 26 l 1,0,-1
EndSplineSet
EndChar

StartChar: uni0180
Encoding: 384 384 355
Width: 16
Flags: W
LayerCount: 2
Fore
SplineSet
2 26 m 1,0,-1
 6 26 l 1,1,-1
 6 24 l 1,2,-1
 10 24 l 1,3,-1
 10 22 l 1,4,-1
 6 22 l 1,5,-1
 6 20 l 1,6,-1
 12 20 l 1,7,-1
 12 18 l 1,8,-1
 14 18 l 1,9,-1
 14 14 l 1,10,-1
 12 14 l 1,11,-1
 12 12 l 1,12,-1
 2 12 l 1,13,-1
 2 18 l 1,14,-1
 2 22 l 1,15,-1
 0 22 l 1,16,-1
 0 24 l 1,17,-1
 2 24 l 1,18,-1
 2 26 l 1,0,-1
10 14 m 1,19,-1
 10 18 l 1,20,-1
 6 18 l 1,21,-1
 6 14 l 1,22,-1
 10 14 l 1,19,-1
EndSplineSet
EndChar

StartChar: uni0181
Encoding: 385 385 356
Width: 16
Flags: W
LayerCount: 2
Fore
SplineSet
2 26 m 1,0,-1
 12 26 l 1,1,-1
 12 24 l 1,2,-1
 14 24 l 1,3,-1
 14 20 l 1,4,-1
 12 20 l 1,5,-1
 12 18 l 1,6,-1
 14 18 l 1,7,-1
 14 14 l 1,8,-1
 12 14 l 1,9,-1
 12 12 l 1,10,-1
 4 12 l 1,11,-1
 4 18 l 1,12,-1
 4 24 l 1,13,-1
 2 24 l 1,14,-1
 2 20 l 1,15,-1
 0 20 l 1,16,-1
 0 24 l 1,17,-1
 2 24 l 1,18,-1
 2 26 l 1,0,-1
10 14 m 1,19,-1
 10 18 l 1,20,-1
 8 18 l 1,21,-1
 8 14 l 1,22,-1
 10 14 l 1,19,-1
10 20 m 1,23,-1
 10 24 l 1,24,-1
 8 24 l 1,25,-1
 8 20 l 1,26,-1
 10 20 l 1,23,-1
EndSplineSet
EndChar

StartChar: uni0182
Encoding: 386 386 357
Width: 16
Flags: W
LayerCount: 2
Fore
SplineSet
2 26 m 1,0,-1
 14 26 l 1,1,-1
 14 24 l 1,2,-1
 6 24 l 1,3,-1
 6 20 l 1,4,-1
 12 20 l 1,5,-1
 12 18 l 1,6,-1
 14 18 l 1,7,-1
 14 14 l 1,8,-1
 12 14 l 1,9,-1
 12 12 l 1,10,-1
 2 12 l 1,11,-1
 2 18 l 1,12,-1
 2 24 l 1,13,-1
 2 26 l 1,0,-1
10 14 m 1,14,-1
 10 18 l 1,15,-1
 6 18 l 1,16,-1
 6 14 l 1,17,-1
 10 14 l 1,14,-1
EndSplineSet
EndChar

StartChar: uni0183
Encoding: 387 387 358
Width: 16
Flags: W
LayerCount: 2
Fore
SplineSet
2 26 m 1,0,-1
 12 26 l 1,1,-1
 12 24 l 1,2,-1
 6 24 l 1,3,-1
 6 22 l 1,4,-1
 12 22 l 1,5,-1
 12 20 l 1,6,-1
 14 20 l 1,7,-1
 14 14 l 1,8,-1
 12 14 l 1,9,-1
 12 12 l 1,10,-1
 2 12 l 1,11,-1
 2 20 l 1,12,-1
 2 24 l 1,13,-1
 2 26 l 1,0,-1
10 14 m 1,14,-1
 10 20 l 1,15,-1
 6 20 l 1,16,-1
 6 14 l 1,17,-1
 10 14 l 1,14,-1
EndSplineSet
EndChar

StartChar: uni0184
Encoding: 388 388 359
Width: 16
Flags: W
LayerCount: 2
Fore
SplineSet
2 26 m 1,0,-1
 6 26 l 1,1,-1
 6 20 l 1,2,-1
 12 20 l 1,3,-1
 12 18 l 1,4,-1
 14 18 l 1,5,-1
 14 14 l 1,6,-1
 12 14 l 1,7,-1
 12 12 l 1,8,-1
 2 12 l 1,9,-1
 2 18 l 1,10,-1
 2 22 l 1,11,-1
 0 22 l 1,12,-1
 0 24 l 1,13,-1
 2 24 l 1,14,-1
 2 26 l 1,0,-1
10 14 m 1,15,-1
 10 18 l 1,16,-1
 6 18 l 1,17,-1
 6 14 l 1,18,-1
 10 14 l 1,15,-1
EndSplineSet
EndChar

StartChar: uni0185
Encoding: 389 389 360
Width: 16
Flags: W
LayerCount: 2
Fore
SplineSet
2 26 m 1,0,-1
 6 26 l 1,1,-1
 6 20 l 1,2,-1
 12 20 l 1,3,-1
 12 18 l 1,4,-1
 14 18 l 1,5,-1
 14 14 l 1,6,-1
 12 14 l 1,7,-1
 12 12 l 1,8,-1
 4 12 l 1,9,-1
 4 14 l 1,10,-1
 2 14 l 1,11,-1
 2 18 l 1,12,-1
 2 22 l 1,13,-1
 0 22 l 1,14,-1
 0 24 l 1,15,-1
 2 24 l 1,16,-1
 2 26 l 1,0,-1
10 14 m 1,17,-1
 10 18 l 1,18,-1
 6 18 l 1,19,-1
 6 14 l 1,20,-1
 10 14 l 1,17,-1
EndSplineSet
EndChar

StartChar: uni0186
Encoding: 390 390 361
Width: 16
Flags: W
LayerCount: 2
Fore
SplineSet
2 16 m 1,0,-1
 6 16 l 1,1,-1
 6 14 l 1,2,-1
 10 14 l 1,3,-1
 10 16 l 1,4,-1
 10 24 l 1,5,-1
 6 24 l 1,6,-1
 6 22 l 1,7,-1
 2 22 l 1,8,-1
 2 24 l 1,9,-1
 4 24 l 1,10,-1
 4 26 l 1,11,-1
 12 26 l 1,12,-1
 12 24 l 1,13,-1
 14 24 l 1,14,-1
 14 16 l 1,15,-1
 14 14 l 1,16,-1
 12 14 l 1,17,-1
 12 12 l 1,18,-1
 4 12 l 1,19,-1
 4 14 l 1,20,-1
 2 14 l 1,21,-1
 2 16 l 1,0,-1
EndSplineSet
EndChar

StartChar: uni0187
Encoding: 391 391 362
Width: 16
Flags: W
LayerCount: 2
Fore
SplineSet
10 26 m 1,0,-1
 14 26 l 1,1,-1
 14 22 l 1,2,-1
 4 22 l 1,3,-1
 4 14 l 1,4,-1
 14 14 l 1,5,-1
 14 12 l 1,6,-1
 2 12 l 1,7,-1
 2 14 l 1,8,-1
 0 14 l 1,9,-1
 0 22 l 1,10,-1
 2 22 l 1,11,-1
 2 24 l 1,12,-1
 10 24 l 1,13,-1
 10 26 l 1,0,-1
EndSplineSet
EndChar

StartChar: uni0188
Encoding: 392 392 363
Width: 16
Flags: W
LayerCount: 2
Fore
SplineSet
10 26 m 1,0,-1
 14 26 l 1,1,-1
 14 24 l 1,2,-1
 12 24 l 1,3,-1
 12 20 l 1,4,-1
 4 20 l 1,5,-1
 4 14 l 1,6,-1
 12 14 l 1,7,-1
 12 12 l 1,8,-1
 2 12 l 1,9,-1
 2 14 l 1,10,-1
 0 14 l 1,11,-1
 0 20 l 1,12,-1
 2 20 l 1,13,-1
 2 22 l 1,14,-1
 8 22 l 1,15,-1
 8 24 l 1,16,-1
 10 24 l 1,17,-1
 10 26 l 1,0,-1
EndSplineSet
EndChar

StartChar: uni0189
Encoding: 393 393 364
Width: 16
Flags: W
LayerCount: 2
Fore
SplineSet
2 26 m 1,0,-1
 10 26 l 1,1,-1
 10 24 l 1,2,-1
 12 24 l 1,3,-1
 12 22 l 1,4,-1
 14 22 l 1,5,-1
 14 18 l 1,6,-1
 14 16 l 1,7,-1
 12 16 l 1,8,-1
 12 14 l 1,9,-1
 10 14 l 1,10,-1
 10 12 l 1,11,-1
 2 12 l 1,12,-1
 2 18 l 1,13,-1
 0 18 l 1,14,-1
 0 20 l 1,15,-1
 2 20 l 1,16,-1
 2 24 l 1,17,-1
 2 26 l 1,0,-1
10 16 m 1,18,-1
 10 18 l 1,19,-1
 10 22 l 1,20,-1
 8 22 l 1,21,-1
 8 24 l 1,22,-1
 6 24 l 1,23,-1
 6 20 l 1,24,-1
 8 20 l 1,25,-1
 8 18 l 1,26,-1
 6 18 l 1,27,-1
 6 14 l 1,28,-1
 8 14 l 1,29,-1
 8 16 l 1,30,-1
 10 16 l 1,18,-1
EndSplineSet
EndChar

StartChar: uni018A
Encoding: 394 394 365
Width: 16
Flags: W
LayerCount: 2
Fore
SplineSet
2 26 m 1,0,-1
 12 26 l 1,1,-1
 12 24 l 1,2,-1
 14 24 l 1,3,-1
 14 14 l 1,4,-1
 12 14 l 1,5,-1
 12 12 l 1,6,-1
 2 12 l 1,7,-1
 2 14 l 1,8,-1
 4 14 l 1,9,-1
 4 24 l 1,10,-1
 2 24 l 1,11,-1
 2 20 l 1,12,-1
 0 20 l 1,13,-1
 0 24 l 1,14,-1
 2 24 l 1,15,-1
 2 26 l 1,0,-1
10 14 m 1,16,-1
 10 24 l 1,17,-1
 8 24 l 1,18,-1
 8 14 l 1,19,-1
 10 14 l 1,16,-1
EndSplineSet
EndChar

StartChar: uni018B
Encoding: 395 395 366
Width: 16
Flags: W
LayerCount: 2
Fore
SplineSet
4 26 m 1,0,-1
 14 26 l 1,1,-1
 14 18 l 1,2,-1
 14 14 l 1,3,-1
 14 12 l 1,4,-1
 4 12 l 1,5,-1
 4 14 l 1,6,-1
 2 14 l 1,7,-1
 2 18 l 1,8,-1
 4 18 l 1,9,-1
 4 20 l 1,10,-1
 10 20 l 1,11,-1
 10 24 l 1,12,-1
 4 24 l 1,13,-1
 4 26 l 1,0,-1
10 14 m 1,14,-1
 10 18 l 1,15,-1
 6 18 l 1,16,-1
 6 14 l 1,17,-1
 10 14 l 1,14,-1
EndSplineSet
EndChar

StartChar: uni018C
Encoding: 396 396 367
Width: 16
Flags: W
LayerCount: 2
Fore
SplineSet
4 26 m 1,0,-1
 14 26 l 1,1,-1
 14 20 l 1,2,-1
 14 14 l 1,3,-1
 14 12 l 1,4,-1
 4 12 l 1,5,-1
 4 14 l 1,6,-1
 2 14 l 1,7,-1
 2 20 l 1,8,-1
 4 20 l 1,9,-1
 4 22 l 1,10,-1
 10 22 l 1,11,-1
 10 24 l 1,12,-1
 4 24 l 1,13,-1
 4 26 l 1,0,-1
10 14 m 1,14,-1
 10 20 l 1,15,-1
 6 20 l 1,16,-1
 6 14 l 1,17,-1
 10 14 l 1,14,-1
EndSplineSet
EndChar

StartChar: uni018D
Encoding: 397 397 368
Width: 16
Flags: W
LayerCount: 2
Fore
SplineSet
4 22 m 1,0,-1
 12 22 l 1,1,-1
 12 20 l 1,2,-1
 14 20 l 1,3,-1
 14 16 l 1,4,-1
 12 16 l 1,5,-1
 12 14 l 1,6,-1
 14 14 l 1,7,-1
 14 12 l 1,8,-1
 12 12 l 1,9,-1
 12 10 l 1,10,-1
 6 10 l 1,11,-1
 6 12 l 1,12,-1
 10 12 l 1,13,-1
 10 14 l 1,14,-1
 4 14 l 1,15,-1
 4 16 l 1,16,-1
 2 16 l 1,17,-1
 2 20 l 1,18,-1
 4 20 l 1,19,-1
 4 22 l 1,0,-1
10 16 m 1,20,-1
 10 20 l 1,21,-1
 6 20 l 1,22,-1
 6 16 l 1,23,-1
 10 16 l 1,20,-1
EndSplineSet
EndChar

StartChar: uni018E
Encoding: 398 398 369
Width: 16
Flags: W
LayerCount: 2
Fore
SplineSet
2 26 m 1,0,-1
 14 26 l 1,1,-1
 14 12 l 1,2,-1
 2 12 l 1,3,-1
 2 14 l 1,4,-1
 10 14 l 1,5,-1
 10 18 l 1,6,-1
 4 18 l 1,7,-1
 4 20 l 1,8,-1
 10 20 l 1,9,-1
 10 24 l 1,10,-1
 2 24 l 1,11,-1
 2 26 l 1,0,-1
EndSplineSet
EndChar

StartChar: uni018F
Encoding: 399 399 370
Width: 16
Flags: W
LayerCount: 2
Fore
SplineSet
4 26 m 1,0,-1
 12 26 l 1,1,-1
 12 24 l 1,2,-1
 14 24 l 1,3,-1
 14 18 l 1,4,-1
 14 14 l 1,5,-1
 12 14 l 1,6,-1
 12 12 l 1,7,-1
 4 12 l 1,8,-1
 4 14 l 1,9,-1
 2 14 l 1,10,-1
 2 18 l 1,11,-1
 2 20 l 1,12,-1
 10 20 l 1,13,-1
 10 24 l 1,14,-1
 6 24 l 1,15,-1
 6 22 l 1,16,-1
 2 22 l 1,17,-1
 2 24 l 1,18,-1
 4 24 l 1,19,-1
 4 26 l 1,0,-1
10 14 m 1,20,-1
 10 18 l 1,21,-1
 6 18 l 1,22,-1
 6 14 l 1,23,-1
 10 14 l 1,20,-1
EndSplineSet
EndChar

StartChar: uni0190
Encoding: 400 400 371
Width: 16
Flags: W
LayerCount: 2
Fore
SplineSet
10 16 m 1,0,-1
 14 16 l 1,1,-1
 14 14 l 1,2,-1
 12 14 l 1,3,-1
 12 12 l 1,4,-1
 4 12 l 1,5,-1
 4 14 l 1,6,-1
 2 14 l 1,7,-1
 2 18 l 1,8,-1
 4 18 l 1,9,-1
 4 20 l 1,10,-1
 2 20 l 1,11,-1
 2 24 l 1,12,-1
 4 24 l 1,13,-1
 4 26 l 1,14,-1
 12 26 l 1,15,-1
 12 24 l 1,16,-1
 14 24 l 1,17,-1
 14 22 l 1,18,-1
 10 22 l 1,19,-1
 10 24 l 1,20,-1
 6 24 l 1,21,-1
 6 20 l 1,22,-1
 10 20 l 1,23,-1
 10 18 l 1,24,-1
 6 18 l 1,25,-1
 6 14 l 1,26,-1
 10 14 l 1,27,-1
 10 16 l 1,0,-1
EndSplineSet
EndChar

StartChar: uni0191
Encoding: 401 401 372
Width: 16
Flags: W
LayerCount: 2
Fore
SplineSet
2 26 m 1,0,-1
 14 26 l 1,1,-1
 14 24 l 1,2,-1
 6 24 l 1,3,-1
 6 20 l 1,4,-1
 12 20 l 1,5,-1
 12 18 l 1,6,-1
 6 18 l 1,7,-1
 6 12 l 1,8,-1
 4 12 l 1,9,-1
 4 10 l 1,10,-1
 0 10 l 1,11,-1
 0 12 l 1,12,-1
 2 12 l 1,13,-1
 2 18 l 1,14,-1
 2 24 l 1,15,-1
 2 26 l 1,0,-1
EndSplineSet
EndChar

StartChar: florin
Encoding: 402 402 373
Width: 16
Flags: W
LayerCount: 2
Fore
SplineSet
0 14 m 1,0,-1
 4 14 l 1,1,-1
 4 12 l 1,2,-1
 6 12 l 1,3,-1
 6 14 l 1,4,-1
 6 18 l 1,5,-1
 4 18 l 1,6,-1
 4 20 l 1,7,-1
 6 20 l 1,8,-1
 6 24 l 1,9,-1
 8 24 l 1,10,-1
 8 26 l 1,11,-1
 14 26 l 1,12,-1
 14 24 l 1,13,-1
 16 24 l 1,14,-1
 16 22 l 1,15,-1
 12 22 l 1,16,-1
 12 24 l 1,17,-1
 10 24 l 1,18,-1
 10 20 l 1,19,-1
 12 20 l 1,20,-1
 12 18 l 1,21,-1
 10 18 l 1,22,-1
 10 14 l 1,23,-1
 10 12 l 1,24,-1
 8 12 l 1,25,-1
 8 10 l 1,26,-1
 2 10 l 1,27,-1
 2 12 l 1,28,-1
 0 12 l 1,29,-1
 0 14 l 1,0,-1
EndSplineSet
EndChar

StartChar: uni0193
Encoding: 403 403 374
Width: 16
Flags: W
LayerCount: 2
Fore
SplineSet
6 18 m 1,0,-1
 12 18 l 1,1,-1
 12 14 l 1,2,-1
 12 12 l 1,3,-1
 2 12 l 1,4,-1
 2 14 l 1,5,-1
 0 14 l 1,6,-1
 0 22 l 1,7,-1
 2 22 l 1,8,-1
 2 24 l 1,9,-1
 10 24 l 1,10,-1
 10 26 l 1,11,-1
 14 26 l 1,12,-1
 14 24 l 1,13,-1
 12 24 l 1,14,-1
 12 22 l 1,15,-1
 4 22 l 1,16,-1
 4 14 l 1,17,-1
 8 14 l 1,18,-1
 8 16 l 1,19,-1
 6 16 l 1,20,-1
 6 18 l 1,0,-1
EndSplineSet
EndChar

StartChar: uni0194
Encoding: 404 404 375
Width: 16
Flags: W
LayerCount: 2
Fore
SplineSet
10 26 m 1,0,-1
 14 26 l 1,1,-1
 14 20 l 1,2,-1
 12 20 l 1,3,-1
 12 18 l 1,4,-1
 10 18 l 1,5,-1
 10 16 l 1,6,-1
 12 16 l 1,7,-1
 12 14 l 1,8,-1
 10 14 l 1,9,-1
 10 12 l 1,10,-1
 4 12 l 1,11,-1
 4 14 l 1,12,-1
 2 14 l 1,13,-1
 2 16 l 1,14,-1
 4 16 l 1,15,-1
 4 18 l 1,16,-1
 2 18 l 1,17,-1
 2 20 l 1,18,-1
 0 20 l 1,19,-1
 0 26 l 1,20,-1
 4 26 l 1,21,-1
 4 20 l 1,22,-1
 6 20 l 1,23,-1
 6 18 l 1,24,-1
 8 18 l 1,25,-1
 8 20 l 1,26,-1
 10 20 l 1,27,-1
 10 26 l 1,0,-1
8 14 m 1,28,-1
 8 16 l 1,29,-1
 6 16 l 1,30,-1
 6 14 l 1,31,-1
 8 14 l 1,28,-1
EndSplineSet
EndChar

StartChar: uni0195
Encoding: 405 405 376
Width: 16
Flags: W
LayerCount: 2
Fore
SplineSet
12 22 m 1,0,-1
 16 22 l 1,1,-1
 16 20 l 1,2,-1
 16 14 l 1,3,-1
 14 14 l 1,4,-1
 14 12 l 1,5,-1
 8 12 l 1,6,-1
 8 14 l 1,7,-1
 6 14 l 1,8,-1
 6 20 l 1,9,-1
 4 20 l 1,10,-1
 4 12 l 1,11,-1
 0 12 l 1,12,-1
 0 20 l 1,13,-1
 0 26 l 1,14,-1
 4 26 l 1,15,-1
 4 22 l 1,16,-1
 8 22 l 1,17,-1
 8 20 l 1,18,-1
 10 20 l 1,19,-1
 10 14 l 1,20,-1
 12 14 l 1,21,-1
 12 20 l 1,22,-1
 12 22 l 1,0,-1
EndSplineSet
EndChar

StartChar: uni0197
Encoding: 407 407 377
Width: 16
Flags: W
LayerCount: 2
Fore
SplineSet
2 26 m 1,0,-1
 14 26 l 1,1,-1
 14 24 l 1,2,-1
 10 24 l 1,3,-1
 10 20 l 1,4,-1
 14 20 l 1,5,-1
 14 18 l 1,6,-1
 10 18 l 1,7,-1
 10 14 l 1,8,-1
 14 14 l 1,9,-1
 14 12 l 1,10,-1
 2 12 l 1,11,-1
 2 14 l 1,12,-1
 6 14 l 1,13,-1
 6 18 l 1,14,-1
 2 18 l 1,15,-1
 2 20 l 1,16,-1
 6 20 l 1,17,-1
 6 24 l 1,18,-1
 2 24 l 1,19,-1
 2 26 l 1,0,-1
EndSplineSet
EndChar

StartChar: uni0198
Encoding: 408 408 378
Width: 16
Flags: W
LayerCount: 2
Fore
SplineSet
8 26 m 1,0,-1
 14 26 l 1,1,-1
 14 24 l 1,2,-1
 14 22 l 1,3,-1
 12 22 l 1,4,-1
 12 24 l 1,5,-1
 10 24 l 1,6,-1
 10 20 l 1,7,-1
 8 20 l 1,8,-1
 8 18 l 1,9,-1
 10 18 l 1,10,-1
 10 16 l 1,11,-1
 12 16 l 1,12,-1
 12 12 l 1,13,-1
 8 12 l 1,14,-1
 8 16 l 1,15,-1
 6 16 l 1,16,-1
 6 18 l 1,17,-1
 4 18 l 1,18,-1
 4 12 l 1,19,-1
 0 12 l 1,20,-1
 0 18 l 1,21,-1
 0 26 l 1,22,-1
 4 26 l 1,23,-1
 4 20 l 1,24,-1
 6 20 l 1,25,-1
 6 24 l 1,26,-1
 8 24 l 1,27,-1
 8 26 l 1,0,-1
EndSplineSet
EndChar

StartChar: uni0199
Encoding: 409 409 379
Width: 16
Flags: W
LayerCount: 2
Fore
SplineSet
10 22 m 1,0,-1
 14 22 l 1,1,-1
 14 20 l 1,2,-1
 12 20 l 1,3,-1
 12 18 l 1,4,-1
 10 18 l 1,5,-1
 10 16 l 1,6,-1
 12 16 l 1,7,-1
 12 14 l 1,8,-1
 14 14 l 1,9,-1
 14 12 l 1,10,-1
 10 12 l 1,11,-1
 10 14 l 1,12,-1
 8 14 l 1,13,-1
 8 16 l 1,14,-1
 6 16 l 1,15,-1
 6 12 l 1,16,-1
 2 12 l 1,17,-1
 2 16 l 1,18,-1
 2 24 l 1,19,-1
 4 24 l 1,20,-1
 4 26 l 1,21,-1
 12 26 l 1,22,-1
 12 24 l 1,23,-1
 6 24 l 1,24,-1
 6 18 l 1,25,-1
 8 18 l 1,26,-1
 8 20 l 1,27,-1
 10 20 l 1,28,-1
 10 22 l 1,0,-1
EndSplineSet
EndChar

StartChar: uni019A
Encoding: 410 410 380
Width: 16
Flags: W
LayerCount: 2
Fore
SplineSet
2 26 m 1,0,-1
 10 26 l 1,1,-1
 10 20 l 1,2,-1
 14 20 l 1,3,-1
 14 18 l 1,4,-1
 10 18 l 1,5,-1
 10 14 l 1,6,-1
 14 14 l 1,7,-1
 14 12 l 1,8,-1
 6 12 l 1,9,-1
 6 18 l 1,10,-1
 2 18 l 1,11,-1
 2 20 l 1,12,-1
 6 20 l 1,13,-1
 6 24 l 1,14,-1
 2 24 l 1,15,-1
 2 26 l 1,0,-1
EndSplineSet
EndChar

StartChar: uni019B
Encoding: 411 411 381
Width: 16
Flags: W
LayerCount: 2
Fore
SplineSet
8 26 m 1,0,-1
 12 26 l 1,1,-1
 12 24 l 1,2,-1
 14 24 l 1,3,-1
 14 22 l 1,4,-1
 12 22 l 1,5,-1
 12 18 l 1,6,-1
 12 12 l 1,7,-1
 8 12 l 1,8,-1
 8 18 l 1,9,-1
 4 18 l 1,10,-1
 4 12 l 1,11,-1
 0 12 l 1,12,-1
 0 18 l 1,13,-1
 2 18 l 1,14,-1
 2 20 l 1,15,-1
 8 20 l 1,16,-1
 8 22 l 1,17,-1
 4 22 l 1,18,-1
 4 24 l 1,19,-1
 8 24 l 1,20,-1
 8 26 l 1,0,-1
EndSplineSet
EndChar

StartChar: uni019C
Encoding: 412 412 382
Width: 16
Flags: W
LayerCount: 2
Fore
SplineSet
10 26 m 1,0,-1
 14 26 l 1,1,-1
 14 14 l 1,2,-1
 14 12 l 1,3,-1
 2 12 l 1,4,-1
 2 14 l 1,5,-1
 0 14 l 1,6,-1
 0 26 l 1,7,-1
 4 26 l 1,8,-1
 4 14 l 1,9,-1
 6 14 l 1,10,-1
 6 26 l 1,11,-1
 8 26 l 1,12,-1
 8 14 l 1,13,-1
 10 14 l 1,14,-1
 10 26 l 1,0,-1
EndSplineSet
EndChar

StartChar: uni019D
Encoding: 413 413 383
Width: 16
Flags: W
LayerCount: 2
Fore
SplineSet
10 26 m 1,0,-1
 14 26 l 1,1,-1
 14 20 l 1,2,-1
 14 18 l 1,3,-1
 14 12 l 1,4,-1
 10 12 l 1,5,-1
 10 14 l 1,6,-1
 8 14 l 1,7,-1
 8 16 l 1,8,-1
 6 16 l 1,9,-1
 6 18 l 1,10,-1
 4 18 l 1,11,-1
 4 10 l 1,12,-1
 0 10 l 1,13,-1
 0 18 l 1,14,-1
 0 26 l 1,15,-1
 4 26 l 1,16,-1
 4 24 l 1,17,-1
 6 24 l 1,18,-1
 6 22 l 1,19,-1
 8 22 l 1,20,-1
 8 20 l 1,21,-1
 10 20 l 1,22,-1
 10 26 l 1,0,-1
EndSplineSet
EndChar

StartChar: uni019E
Encoding: 414 414 384
Width: 16
Flags: W
LayerCount: 2
Fore
SplineSet
2 22 m 1,0,-1
 12 22 l 1,1,-1
 12 20 l 1,2,-1
 14 20 l 1,3,-1
 14 10 l 1,4,-1
 10 10 l 1,5,-1
 10 20 l 1,6,-1
 6 20 l 1,7,-1
 6 12 l 1,8,-1
 2 12 l 1,9,-1
 2 20 l 1,10,-1
 2 22 l 1,0,-1
EndSplineSet
EndChar

StartChar: uni019F
Encoding: 415 415 385
Width: 16
Flags: W
LayerCount: 2
Fore
SplineSet
4 26 m 1,0,-1
 12 26 l 1,1,-1
 12 24 l 1,2,-1
 14 24 l 1,3,-1
 14 20 l 1,4,-1
 14 18 l 1,5,-1
 14 14 l 1,6,-1
 12 14 l 1,7,-1
 12 12 l 1,8,-1
 4 12 l 1,9,-1
 4 14 l 1,10,-1
 2 14 l 1,11,-1
 2 18 l 1,12,-1
 2 24 l 1,13,-1
 4 24 l 1,14,-1
 4 26 l 1,0,-1
10 14 m 1,15,-1
 10 18 l 1,16,-1
 6 18 l 1,17,-1
 6 14 l 1,18,-1
 10 14 l 1,15,-1
10 20 m 1,19,-1
 10 24 l 1,20,-1
 6 24 l 1,21,-1
 6 20 l 1,22,-1
 10 20 l 1,19,-1
EndSplineSet
EndChar

StartChar: uni01B7
Encoding: 439 439 386
Width: 16
Flags: W
LayerCount: 2
Fore
SplineSet
0 16 m 1,0,-1
 4 16 l 1,1,-1
 4 14 l 1,2,-1
 10 14 l 1,3,-1
 10 16 l 1,4,-1
 10 18 l 1,5,-1
 4 18 l 1,6,-1
 4 20 l 1,7,-1
 6 20 l 1,8,-1
 6 22 l 1,9,-1
 8 22 l 1,10,-1
 8 24 l 1,11,-1
 0 24 l 1,12,-1
 0 26 l 1,13,-1
 14 26 l 1,14,-1
 14 24 l 1,15,-1
 12 24 l 1,16,-1
 12 22 l 1,17,-1
 10 22 l 1,18,-1
 10 20 l 1,19,-1
 12 20 l 1,20,-1
 12 18 l 1,21,-1
 14 18 l 1,22,-1
 14 16 l 1,23,-1
 14 14 l 1,24,-1
 12 14 l 1,25,-1
 12 12 l 1,26,-1
 2 12 l 1,27,-1
 2 14 l 1,28,-1
 0 14 l 1,29,-1
 0 16 l 1,0,-1
EndSplineSet
EndChar

StartChar: uni01CD
Encoding: 461 461 387
Width: 16
Flags: W
LayerCount: 2
Fore
SplineSet
4 20 m 1,0,-1
 12 20 l 1,1,-1
 12 18 l 1,2,-1
 14 18 l 1,3,-1
 14 16 l 1,4,-1
 14 14 l 1,5,-1
 14 12 l 1,6,-1
 10 12 l 1,7,-1
 10 14 l 1,8,-1
 6 14 l 1,9,-1
 6 12 l 1,10,-1
 2 12 l 1,11,-1
 2 14 l 1,12,-1
 2 18 l 1,13,-1
 4 18 l 1,14,-1
 4 20 l 1,0,-1
10 26 m 1,15,-1
 14 26 l 1,16,-1
 14 24 l 1,17,-1
 10 24 l 1,18,-1
 10 26 l 1,15,-1
2 26 m 1,19,-1
 6 26 l 1,20,-1
 6 24 l 1,21,-1
 2 24 l 1,22,-1
 2 26 l 1,19,-1
10 16 m 1,23,-1
 10 18 l 1,24,-1
 6 18 l 1,25,-1
 6 16 l 1,26,-1
 10 16 l 1,23,-1
10 24 m 1,27,-1
 10 22 l 1,28,-1
 6 22 l 1,29,-1
 6 24 l 1,30,-1
 10 24 l 1,27,-1
EndSplineSet
EndChar

StartChar: uni01CE
Encoding: 462 462 388
Width: 16
Flags: W
LayerCount: 2
Fore
SplineSet
4 20 m 1,0,-1
 14 20 l 1,1,-1
 14 18 l 1,2,-1
 14 16 l 1,3,-1
 14 14 l 1,4,-1
 14 12 l 1,5,-1
 2 12 l 1,6,-1
 2 14 l 1,7,-1
 0 14 l 1,8,-1
 0 16 l 1,9,-1
 2 16 l 1,10,-1
 2 18 l 1,11,-1
 4 18 l 1,12,-1
 4 20 l 1,0,-1
10 26 m 1,13,-1
 14 26 l 1,14,-1
 14 24 l 1,15,-1
 10 24 l 1,16,-1
 10 26 l 1,13,-1
2 26 m 1,17,-1
 6 26 l 1,18,-1
 6 24 l 1,19,-1
 2 24 l 1,20,-1
 2 26 l 1,17,-1
10 14 m 1,21,-1
 10 16 l 1,22,-1
 10 18 l 1,23,-1
 6 18 l 1,24,-1
 6 16 l 1,25,-1
 4 16 l 1,26,-1
 4 14 l 1,27,-1
 10 14 l 1,21,-1
10 24 m 1,28,-1
 10 22 l 1,29,-1
 6 22 l 1,30,-1
 6 24 l 1,31,-1
 10 24 l 1,28,-1
EndSplineSet
EndChar

StartChar: uni01CF
Encoding: 463 463 389
Width: 16
Flags: W
LayerCount: 2
Fore
SplineSet
2 20 m 1,0,-1
 14 20 l 1,1,-1
 14 18 l 1,2,-1
 10 18 l 1,3,-1
 10 14 l 1,4,-1
 14 14 l 1,5,-1
 14 12 l 1,6,-1
 2 12 l 1,7,-1
 2 14 l 1,8,-1
 6 14 l 1,9,-1
 6 18 l 1,10,-1
 2 18 l 1,11,-1
 2 20 l 1,0,-1
10 26 m 1,12,-1
 14 26 l 1,13,-1
 14 24 l 1,14,-1
 10 24 l 1,15,-1
 10 26 l 1,12,-1
2 26 m 1,16,-1
 6 26 l 1,17,-1
 6 24 l 1,18,-1
 2 24 l 1,19,-1
 2 26 l 1,16,-1
10 24 m 1,20,-1
 10 22 l 1,21,-1
 6 22 l 1,22,-1
 6 24 l 1,23,-1
 10 24 l 1,20,-1
EndSplineSet
EndChar

StartChar: uni01D0
Encoding: 464 464 390
Width: 16
Flags: W
LayerCount: 2
Fore
SplineSet
4 20 m 1,0,-1
 10 20 l 1,1,-1
 10 14 l 1,2,-1
 12 14 l 1,3,-1
 12 12 l 1,4,-1
 4 12 l 1,5,-1
 4 14 l 1,6,-1
 6 14 l 1,7,-1
 6 18 l 1,8,-1
 4 18 l 1,9,-1
 4 20 l 1,0,-1
10 26 m 1,10,-1
 14 26 l 1,11,-1
 14 24 l 1,12,-1
 10 24 l 1,13,-1
 10 26 l 1,10,-1
2 26 m 1,14,-1
 6 26 l 1,15,-1
 6 24 l 1,16,-1
 2 24 l 1,17,-1
 2 26 l 1,14,-1
10 24 m 1,18,-1
 10 22 l 1,19,-1
 6 22 l 1,20,-1
 6 24 l 1,21,-1
 10 24 l 1,18,-1
EndSplineSet
EndChar

StartChar: uni01D1
Encoding: 465 465 391
Width: 16
Flags: W
LayerCount: 2
Fore
SplineSet
2 20 m 1,0,-1
 12 20 l 1,1,-1
 12 18 l 1,2,-1
 14 18 l 1,3,-1
 14 14 l 1,4,-1
 12 14 l 1,5,-1
 12 12 l 1,6,-1
 2 12 l 1,7,-1
 2 14 l 1,8,-1
 0 14 l 1,9,-1
 0 18 l 1,10,-1
 2 18 l 1,11,-1
 2 20 l 1,0,-1
10 26 m 1,12,-1
 14 26 l 1,13,-1
 14 24 l 1,14,-1
 10 24 l 1,15,-1
 10 26 l 1,12,-1
2 26 m 1,16,-1
 6 26 l 1,17,-1
 6 24 l 1,18,-1
 2 24 l 1,19,-1
 2 26 l 1,16,-1
10 14 m 1,20,-1
 10 18 l 1,21,-1
 4 18 l 1,22,-1
 4 14 l 1,23,-1
 10 14 l 1,20,-1
10 24 m 1,24,-1
 10 22 l 1,25,-1
 6 22 l 1,26,-1
 6 24 l 1,27,-1
 10 24 l 1,24,-1
EndSplineSet
EndChar

StartChar: uni01D2
Encoding: 466 466 392
Width: 16
Flags: W
LayerCount: 2
Fore
SplineSet
4 20 m 1,0,-1
 12 20 l 1,1,-1
 12 18 l 1,2,-1
 14 18 l 1,3,-1
 14 14 l 1,4,-1
 12 14 l 1,5,-1
 12 12 l 1,6,-1
 4 12 l 1,7,-1
 4 14 l 1,8,-1
 2 14 l 1,9,-1
 2 18 l 1,10,-1
 4 18 l 1,11,-1
 4 20 l 1,0,-1
10 26 m 1,12,-1
 14 26 l 1,13,-1
 14 24 l 1,14,-1
 10 24 l 1,15,-1
 10 26 l 1,12,-1
2 26 m 1,16,-1
 6 26 l 1,17,-1
 6 24 l 1,18,-1
 2 24 l 1,19,-1
 2 26 l 1,16,-1
10 14 m 1,20,-1
 10 18 l 1,21,-1
 6 18 l 1,22,-1
 6 14 l 1,23,-1
 10 14 l 1,20,-1
10 24 m 1,24,-1
 10 22 l 1,25,-1
 6 22 l 1,26,-1
 6 24 l 1,27,-1
 10 24 l 1,24,-1
EndSplineSet
EndChar

StartChar: uni01D3
Encoding: 467 467 393
Width: 16
Flags: W
LayerCount: 2
Fore
SplineSet
10 20 m 1,0,-1
 14 20 l 1,1,-1
 14 14 l 1,2,-1
 12 14 l 1,3,-1
 12 12 l 1,4,-1
 2 12 l 1,5,-1
 2 14 l 1,6,-1
 0 14 l 1,7,-1
 0 20 l 1,8,-1
 4 20 l 1,9,-1
 4 14 l 1,10,-1
 10 14 l 1,11,-1
 10 20 l 1,0,-1
10 26 m 1,12,-1
 14 26 l 1,13,-1
 14 24 l 1,14,-1
 10 24 l 1,15,-1
 10 26 l 1,12,-1
2 26 m 1,16,-1
 6 26 l 1,17,-1
 6 24 l 1,18,-1
 2 24 l 1,19,-1
 2 26 l 1,16,-1
10 24 m 1,20,-1
 10 22 l 1,21,-1
 6 22 l 1,22,-1
 6 24 l 1,23,-1
 10 24 l 1,20,-1
EndSplineSet
EndChar

StartChar: uni01D4
Encoding: 468 468 394
Width: 16
Flags: W
LayerCount: 2
Fore
SplineSet
10 20 m 1,0,-1
 14 20 l 1,1,-1
 14 14 l 1,2,-1
 14 12 l 1,3,-1
 4 12 l 1,4,-1
 4 14 l 1,5,-1
 2 14 l 1,6,-1
 2 20 l 1,7,-1
 6 20 l 1,8,-1
 6 14 l 1,9,-1
 10 14 l 1,10,-1
 10 20 l 1,0,-1
10 26 m 1,11,-1
 14 26 l 1,12,-1
 14 24 l 1,13,-1
 10 24 l 1,14,-1
 10 26 l 1,11,-1
2 26 m 1,15,-1
 6 26 l 1,16,-1
 6 24 l 1,17,-1
 2 24 l 1,18,-1
 2 26 l 1,15,-1
10 24 m 1,19,-1
 10 22 l 1,20,-1
 6 22 l 1,21,-1
 6 24 l 1,22,-1
 10 24 l 1,19,-1
EndSplineSet
EndChar

StartChar: uni01D5
Encoding: 469 469 395
Width: 16
Flags: W
LayerCount: 2
Fore
SplineSet
10 20 m 1,0,-1
 14 20 l 1,1,-1
 14 14 l 1,2,-1
 12 14 l 1,3,-1
 12 12 l 1,4,-1
 2 12 l 1,5,-1
 2 14 l 1,6,-1
 0 14 l 1,7,-1
 0 20 l 1,8,-1
 4 20 l 1,9,-1
 4 14 l 1,10,-1
 10 14 l 1,11,-1
 10 20 l 1,0,-1
0 26 m 1,12,-1
 14 26 l 1,13,-1
 14 24 l 1,14,-1
 12 24 l 1,15,-1
 12 22 l 1,16,-1
 8 22 l 1,17,-1
 8 24 l 1,18,-1
 6 24 l 1,19,-1
 6 22 l 1,20,-1
 2 22 l 1,21,-1
 2 24 l 1,22,-1
 0 24 l 1,23,-1
 0 26 l 1,12,-1
EndSplineSet
EndChar

StartChar: uni01D6
Encoding: 470 470 396
Width: 16
Flags: W
LayerCount: 2
Fore
SplineSet
10 20 m 1,0,-1
 14 20 l 1,1,-1
 14 14 l 1,2,-1
 14 12 l 1,3,-1
 4 12 l 1,4,-1
 4 14 l 1,5,-1
 2 14 l 1,6,-1
 2 20 l 1,7,-1
 6 20 l 1,8,-1
 6 14 l 1,9,-1
 10 14 l 1,10,-1
 10 20 l 1,0,-1
0 26 m 1,11,-1
 14 26 l 1,12,-1
 14 24 l 1,13,-1
 12 24 l 1,14,-1
 12 22 l 1,15,-1
 8 22 l 1,16,-1
 8 24 l 1,17,-1
 6 24 l 1,18,-1
 6 22 l 1,19,-1
 2 22 l 1,20,-1
 2 24 l 1,21,-1
 0 24 l 1,22,-1
 0 26 l 1,11,-1
EndSplineSet
EndChar

StartChar: uni01D7
Encoding: 471 471 397
Width: 16
Flags: W
LayerCount: 2
Fore
SplineSet
10 20 m 1,0,-1
 14 20 l 1,1,-1
 14 14 l 1,2,-1
 12 14 l 1,3,-1
 12 12 l 1,4,-1
 2 12 l 1,5,-1
 2 14 l 1,6,-1
 0 14 l 1,7,-1
 0 20 l 1,8,-1
 4 20 l 1,9,-1
 4 14 l 1,10,-1
 10 14 l 1,11,-1
 10 20 l 1,0,-1
0 24 m 1,12,-1
 4 24 l 1,13,-1
 4 22 l 1,14,-1
 0 22 l 1,15,-1
 0 24 l 1,12,-1
8 26 m 1,16,-1
 12 26 l 1,17,-1
 12 24 l 1,18,-1
 16 24 l 1,19,-1
 16 22 l 1,20,-1
 12 22 l 1,21,-1
 12 24 l 1,22,-1
 10 24 l 1,23,-1
 10 22 l 1,24,-1
 6 22 l 1,25,-1
 6 24 l 1,26,-1
 8 24 l 1,27,-1
 8 26 l 1,16,-1
EndSplineSet
EndChar

StartChar: uni01D8
Encoding: 472 472 398
Width: 16
Flags: W
LayerCount: 2
Fore
SplineSet
10 20 m 1,0,-1
 14 20 l 1,1,-1
 14 14 l 1,2,-1
 14 12 l 1,3,-1
 4 12 l 1,4,-1
 4 14 l 1,5,-1
 2 14 l 1,6,-1
 2 20 l 1,7,-1
 6 20 l 1,8,-1
 6 14 l 1,9,-1
 10 14 l 1,10,-1
 10 20 l 1,0,-1
0 24 m 1,11,-1
 4 24 l 1,12,-1
 4 22 l 1,13,-1
 0 22 l 1,14,-1
 0 24 l 1,11,-1
8 26 m 1,15,-1
 12 26 l 1,16,-1
 12 24 l 1,17,-1
 16 24 l 1,18,-1
 16 22 l 1,19,-1
 12 22 l 1,20,-1
 12 24 l 1,21,-1
 10 24 l 1,22,-1
 10 22 l 1,23,-1
 6 22 l 1,24,-1
 6 24 l 1,25,-1
 8 24 l 1,26,-1
 8 26 l 1,15,-1
EndSplineSet
EndChar

StartChar: uni01D9
Encoding: 473 473 399
Width: 16
Flags: W
LayerCount: 2
Fore
SplineSet
10 20 m 1,0,-1
 14 20 l 1,1,-1
 14 14 l 1,2,-1
 12 14 l 1,3,-1
 12 12 l 1,4,-1
 2 12 l 1,5,-1
 2 14 l 1,6,-1
 0 14 l 1,7,-1
 0 20 l 1,8,-1
 4 20 l 1,9,-1
 4 14 l 1,10,-1
 10 14 l 1,11,-1
 10 20 l 1,0,-1
4 26 m 1,12,-1
 12 26 l 1,13,-1
 12 24 l 1,14,-1
 16 24 l 1,15,-1
 16 22 l 1,16,-1
 12 22 l 1,17,-1
 12 24 l 1,18,-1
 10 24 l 1,19,-1
 10 22 l 1,20,-1
 6 22 l 1,21,-1
 6 24 l 1,22,-1
 4 24 l 1,23,-1
 4 22 l 1,24,-1
 0 22 l 1,25,-1
 0 24 l 1,26,-1
 4 24 l 1,27,-1
 4 26 l 1,12,-1
EndSplineSet
EndChar

StartChar: uni01DA
Encoding: 474 474 400
Width: 16
Flags: W
LayerCount: 2
Fore
SplineSet
10 20 m 1,0,-1
 14 20 l 1,1,-1
 14 14 l 1,2,-1
 14 12 l 1,3,-1
 4 12 l 1,4,-1
 4 14 l 1,5,-1
 2 14 l 1,6,-1
 2 20 l 1,7,-1
 6 20 l 1,8,-1
 6 14 l 1,9,-1
 10 14 l 1,10,-1
 10 20 l 1,0,-1
4 26 m 1,11,-1
 12 26 l 1,12,-1
 12 24 l 1,13,-1
 16 24 l 1,14,-1
 16 22 l 1,15,-1
 12 22 l 1,16,-1
 12 24 l 1,17,-1
 10 24 l 1,18,-1
 10 22 l 1,19,-1
 6 22 l 1,20,-1
 6 24 l 1,21,-1
 4 24 l 1,22,-1
 4 22 l 1,23,-1
 0 22 l 1,24,-1
 0 24 l 1,25,-1
 4 24 l 1,26,-1
 4 26 l 1,11,-1
EndSplineSet
EndChar

StartChar: uni01DB
Encoding: 475 475 401
Width: 16
Flags: W
LayerCount: 2
Fore
SplineSet
10 20 m 1,0,-1
 14 20 l 1,1,-1
 14 14 l 1,2,-1
 12 14 l 1,3,-1
 12 12 l 1,4,-1
 2 12 l 1,5,-1
 2 14 l 1,6,-1
 0 14 l 1,7,-1
 0 20 l 1,8,-1
 4 20 l 1,9,-1
 4 14 l 1,10,-1
 10 14 l 1,11,-1
 10 20 l 1,0,-1
12 24 m 1,12,-1
 16 24 l 1,13,-1
 16 22 l 1,14,-1
 12 22 l 1,15,-1
 12 24 l 1,12,-1
4 26 m 1,16,-1
 8 26 l 1,17,-1
 8 24 l 1,18,-1
 10 24 l 1,19,-1
 10 22 l 1,20,-1
 6 22 l 1,21,-1
 6 24 l 1,22,-1
 4 24 l 1,23,-1
 4 22 l 1,24,-1
 0 22 l 1,25,-1
 0 24 l 1,26,-1
 4 24 l 1,27,-1
 4 26 l 1,16,-1
EndSplineSet
EndChar

StartChar: uni01DC
Encoding: 476 476 402
Width: 16
Flags: W
LayerCount: 2
Fore
SplineSet
10 20 m 1,0,-1
 14 20 l 1,1,-1
 14 14 l 1,2,-1
 14 12 l 1,3,-1
 4 12 l 1,4,-1
 4 14 l 1,5,-1
 2 14 l 1,6,-1
 2 20 l 1,7,-1
 6 20 l 1,8,-1
 6 14 l 1,9,-1
 10 14 l 1,10,-1
 10 20 l 1,0,-1
12 24 m 1,11,-1
 16 24 l 1,12,-1
 16 22 l 1,13,-1
 12 22 l 1,14,-1
 12 24 l 1,11,-1
4 26 m 1,15,-1
 8 26 l 1,16,-1
 8 24 l 1,17,-1
 10 24 l 1,18,-1
 10 22 l 1,19,-1
 6 22 l 1,20,-1
 6 24 l 1,21,-1
 4 24 l 1,22,-1
 4 22 l 1,23,-1
 0 22 l 1,24,-1
 0 24 l 1,25,-1
 4 24 l 1,26,-1
 4 26 l 1,15,-1
EndSplineSet
EndChar

StartChar: uni01DD
Encoding: 477 477 403
Width: 16
Flags: W
LayerCount: 2
Fore
SplineSet
4 22 m 1,0,-1
 12 22 l 1,1,-1
 12 20 l 1,2,-1
 14 20 l 1,3,-1
 14 16 l 1,4,-1
 14 14 l 1,5,-1
 12 14 l 1,6,-1
 12 12 l 1,7,-1
 4 12 l 1,8,-1
 4 14 l 1,9,-1
 2 14 l 1,10,-1
 2 16 l 1,11,-1
 2 18 l 1,12,-1
 10 18 l 1,13,-1
 10 20 l 1,14,-1
 4 20 l 1,15,-1
 4 22 l 1,0,-1
10 14 m 1,16,-1
 10 16 l 1,17,-1
 6 16 l 1,18,-1
 6 14 l 1,19,-1
 10 14 l 1,16,-1
EndSplineSet
EndChar

